# vtk DataFile Version 3.0
tensile membrane
ASCII
DATASET POLYDATA
POINTS 221 float
2.000000e+00 7.500000e-01 1.250000e+00
2.000000e+00 8.750000e-01 1.250000e+00
2.000000e+00 1.000000e+00 1.250000e+00
2.000000e+00 1.125000e+00 1.250000e+00
2.000000e+00 1.250000e+00 1.250000e+00
2.000000e+00 1.375000e+00 1.250000e+00
2.000000e+00 1.500000e+00 1.250000e+00
2.000000e+00 1.625000e+00 1.250000e+00
2.000000e+00 1.750000e+00 1.250000e+00
2.000000e+00 1.875000e+00 1.250000e+00
2.000000e+00 2.000000e+00 1.250000e+00
2.000000e+00 2.125000e+00 1.250000e+00
2.000000e+00 2.250000e+00 1.250000e+00
2.152160e+00 7.892134e-01 1.246482e+00
2.131052e+00 8.954819e-01 1.245101e+00
2.127573e+00 1.011363e+00 1.243934e+00
2.124345e+00 1.133123e+00 1.243192e+00
2.122840e+00 1.256523e+00 1.242776e+00
2.123426e+00 1.378469e+00 1.242614e+00
2.124047e+00 1.499706e+00 1.242799e+00
2.123595e+00 1.619957e+00 1.243380e+00
2.121673e+00 1.739032e+00 1.244266e+00
2.118753e+00 1.859847e+00 1.245247e+00
2.117240e+00 1.982526e+00 1.246145e+00
2.116655e+00 2.100147e+00 1.247220e+00
2.111533e+00 2.213920e+00 1.248755e+00
2.286078e+00 8.047368e-01 1.245683e+00
2.264913e+00 9.121365e-01 1.242499e+00
2.257156e+00 1.022950e+00 1.239632e+00
2.250229e+00 1.142334e+00 1.237598e+00
2.247336e+00 1.262676e+00 1.236413e+00
2.248221e+00 1.381001e+00 1.235849e+00
2.249259e+00 1.499674e+00 1.235958e+00
2.249064e+00 1.617661e+00 1.236801e+00
2.246753e+00 1.733556e+00 1.238292e+00
2.241222e+00 1.850282e+00 1.240286e+00
2.235583e+00 1.968492e+00 1.242505e+00
2.234709e+00 2.083318e+00 1.245019e+00
2.227162e+00 2.196047e+00 1.248355e+00
2.414375e+00 8.140577e-01 1.244953e+00
2.395459e+00 9.221822e-01 1.240370e+00
2.386389e+00 1.031766e+00 1.236186e+00
2.377150e+00 1.149081e+00 1.232936e+00
2.373419e+00 1.266358e+00 1.230951e+00
2.373865e+00 1.382209e+00 1.229954e+00
2.374666e+00 1.499692e+00 1.229903e+00
2.374653e+00 1.616861e+00 1.230855e+00
2.372750e+00 1.731709e+00 1.232723e+00
2.366588e+00 1.847151e+00 1.235457e+00
2.357690e+00 1.962936e+00 1.238807e+00
2.353296e+00 2.073920e+00 1.242602e+00
2.343212e+00 2.185347e+00 1.247636e+00
2.540764e+00 8.177172e-01 1.244306e+00
2.524137e+00 9.262497e-01 1.238424e+00
2.514666e+00 1.035745e+00 1.233166e+00
2.504564e+00 1.152108e+00 1.228946e+00
2.499967e+00 1.267937e+00 1.226275e+00
2.499521e+00 1.382826e+00 1.224882e+00
2.499897e+00 1.499829e+00 1.224660e+00
2.499926e+00 1.616667e+00 1.225672e+00
2.498355e+00 1.731205e+00 1.227829e+00
2.492287e+00 1.846596e+00 1.231153e+00
2.482009e+00 1.962448e+00 1.235471e+00
2.474652e+00 2.072275e+00 1.240383e+00
2.461568e+00 2.182003e+00 1.246654e+00
2.666806e+00 8.181350e-01 1.243939e+00
2.651296e+00 9.269110e-01 1.236933e+00
2.641808e+00 1.036836e+00 1.230769e+00
2.631294e+00 1.153106e+00 1.225764e+00
2.625930e+00 1.268612e+00 1.222516e+00
2.624864e+00 1.383186e+00 1.220761e+00
2.624994e+00 1.499946e+00 1.220362e+00
2.625011e+00 1.616637e+00 1.221397e+00
2.623568e+00 1.731079e+00 1.223772e+00
2.617614e+00 1.846527e+00 1.227553e+00
2.606868e+00 1.962766e+00 1.232656e+00
2.598046e+00 2.072770e+00 1.238538e+00
2.583469e+00 2.181899e+00 1.245793e+00
2.792505e+00 8.179190e-01 1.243798e+00
2.777262e+00 9.268217e-01 1.235944e+00
2.767771e+00 1.037006e+00 1.229119e+00
2.757024e+00 1.153391e+00 1.223520e+00
2.751294e+00 1.268876e+00 1.219804e+00
2.749994e+00 1.383334e+00 1.217732e+00
2.750026e+00 1.499994e+00 1.217161e+00
2.750022e+00 1.616635e+00 1.218179e+00
2.748615e+00 1.731051e+00 1.220686e+00
2.742713e+00 1.846516e+00 1.224778e+00
2.731838e+00 1.962919e+00 1.230450e+00
2.722482e+00 2.073126e+00 1.237076e+00
2.707415e+00 2.182133e+00 1.245079e+00
2.917805e+00 8.177875e-01 1.243844e+00
2.902585e+00 9.267497e-01 1.235455e+00
2.893071e+00 1.037019e+00 1.228246e+00
2.882219e+00 1.153464e+00 1.222271e+00
2.876386e+00 1.268946e+00 1.218221e+00
2.875024e+00 1.383370e+00 1.215904e+00
2.875021e+00 1.500003e+00 1.215175e+00
2.875007e+00 1.616634e+00 1.216136e+00
2.873613e+00 1.731045e+00 1.218681e+00
2.867736e+00 1.846515e+00 1.222926e+00
2.856840e+00 1.962964e+00 1.228939e+00
2.847339e+00 2.073242e+00 1.236045e+00
2.832143e+00 2.182230e+00 1.244506e+00
3.042888e+00 8.177507e-01 1.244070e+00
3.027668e+00 9.267321e-01 1.235474e+00
3.018142e+00 1.037021e+00 1.228165e+00
3.007255e+00 1.153480e+00 1.222045e+00
3.001396e+00 1.268956e+00 1.217816e+00
3.000014e+00 1.383370e+00 1.215338e+00
3.000000e+00 1.500000e+00 1.214479e+00
2.999986e+00 1.616630e+00 1.215345e+00
2.998605e+00 1.731044e+00 1.217830e+00
2.992745e+00 1.846519e+00 1.222065e+00
2.981858e+00 1.962978e+00 1.228186e+00
2.972332e+00 2.073267e+00 1.235493e+00
2.957112e+00 2.182248e+00 1.244091e+00
3.167857e+00 8.177677e-01 1.244470e+00
3.152662e+00 9.267550e-01 1.235999e+00
3.143160e+00 1.037032e+00 1.228874e+00
3.132265e+00 1.153482e+00 1.222846e+00
3.126388e+00 1.268952e+00 1.218598e+00
3.124994e+00 1.383365e+00 1.216054e+00
3.124980e+00 1.499997e+00 1.215097e+00
3.124977e+00 1.616631e+00 1.215835e+00
3.123614e+00 1.731055e+00 1.218165e+00
3.117781e+00 1.846538e+00 1.222230e+00
3.106929e+00 1.962982e+00 1.228221e+00
3.097415e+00 2.073251e+00 1.235446e+00
3.082195e+00 2.182212e+00 1.243849e+00
3.292586e+00 8.178632e-01 1.245029e+00
3.277519e+00 9.268697e-01 1.237005e+00
3.268164e+00 1.037076e+00 1.230342e+00
3.257290e+00 1.153478e+00 1.224641e+00
3.251388e+00 1.268945e+00 1.220537e+00
3.249982e+00 1.383362e+00 1.218024e+00
3.249978e+00 1.500006e+00 1.217006e+00
3.250009e+00 1.616667e+00 1.217590e+00
3.248708e+00 1.731128e+00 1.219679e+00
3.242978e+00 1.846613e+00 1.223418e+00
3.232230e+00 1.962998e+00 1.229048e+00
3.222738e+00 2.073181e+00 1.235906e+00
3.207495e+00 2.182082e+00 1.243786e+00
3.416532e+00 8.180969e-01 1.245729e+00
3.401955e+00 9.272243e-01 1.238443e+00
3.393136e+00 1.037228e+00 1.232508e+00
3.382391e+00 1.153466e+00 1.227362e+00
3.376438e+00 1.268916e+00 1.223561e+00
3.374996e+00 1.383360e+00 1.221173e+00
3.375013e+00 1.500053e+00 1.220135e+00
3.375142e+00 1.616816e+00 1.220548e+00
3.374075e+00 1.731392e+00 1.222326e+00
3.368709e+00 1.846900e+00 1.225604e+00
3.358194e+00 1.963170e+00 1.230653e+00
3.348705e+00 2.073093e+00 1.236866e+00
3.333194e+00 2.181867e+00 1.243909e+00
3.538433e+00 8.179934e-01 1.246579e+00
3.525350e+00 9.277192e-01 1.240266e+00
3.517996e+00 1.037545e+00 1.235287e+00
3.507720e+00 1.153397e+00 1.230913e+00
3.501655e+00 1.268789e+00 1.227560e+00
3.500085e+00 1.383330e+00 1.225385e+00
3.500114e+00 1.500170e+00 1.224366e+00
3.500489e+00 1.617175e+00 1.224602e+00
3.500042e+00 1.732067e+00 1.226021e+00
3.495442e+00 1.847898e+00 1.228730e+00
3.485337e+00 1.964262e+00 1.233008e+00
3.475864e+00 2.073755e+00 1.238328e+00
3.459236e+00 2.182286e+00 1.244257e+00
3.656789e+00 8.146499e-01 1.247565e+00
3.646707e+00 9.260751e-01 1.242470e+00
3.642316e+00 1.037058e+00 1.238592e+00
3.633423e+00 1.152842e+00 1.235172e+00
3.627263e+00 1.268285e+00 1.232399e+00
3.625363e+00 1.383135e+00 1.230507e+00
3.625350e+00 1.500306e+00 1.229545e+00
3.626150e+00 1.617793e+00 1.229608e+00
3.626594e+00 1.733646e+00 1.230634e+00
3.622858e+00 1.850925e+00 1.232665e+00
3.613616e+00 1.968240e+00 1.235989e+00
3.604542e+00 2.077823e+00 1.240248e+00
3.585625e+00 2.185945e+00 1.244885e+00
3.772839e+00 8.039517e-01 1.248290e+00
3.765294e+00 9.166785e-01 1.244882e+00
3.764424e+00 1.031503e+00 1.242264e+00
3.758790e+00 1.149713e+00 1.239960e+00
3.753265e+00 1.266439e+00 1.237912e+00
3.750957e+00 1.382335e+00 1.236388e+00
3.750763e+00 1.500324e+00 1.235527e+00
3.751800e+00 1.619000e+00 1.235426e+00
3.752682e+00 1.737327e+00 1.236016e+00
3.749784e+00 1.857671e+00 1.237251e+00
3.742851e+00 1.977056e+00 1.239373e+00
3.735089e+00 2.087868e+00 1.242336e+00
3.713923e+00 2.195266e+00 1.245585e+00
3.888469e+00 7.860787e-01 1.248630e+00
3.883349e+00 8.998511e-01 1.247040e+00
3.882769e+00 1.017472e+00 1.245862e+00
3.881262e+00 1.140150e+00 1.244876e+00
3.878349e+00 1.260965e+00 1.243827e+00
3.876432e+00 1.380040e+00 1.242889e+00
3.875983e+00 1.500292e+00 1.242276e+00
3.876605e+00 1.621530e+00 1.242086e+00
3.877188e+00 1.743479e+00 1.242264e+00
3.875679e+00 1.866880e+00 1.242720e+00
3.872443e+00 1.988641e+00 1.243542e+00
3.868956e+00 2.104522e+00 1.244820e+00
3.847843e+00 2.210790e+00 1.246304e+00
4.000000e+00 7.500000e-01 1.250000e+00
4.000000e+00 8.750000e-01 1.250000e+00
4.000000e+00 1.000000e+00 1.250000e+00
4.000000e+00 1.125000e+00 1.250000e+00
4.000000e+00 1.250000e+00 1.250000e+00
4.000000e+00 1.375000e+00 1.250000e+00
4.000000e+00 1.500000e+00 1.250000e+00
4.000000e+00 1.625000e+00 1.250000e+00
4.000000e+00 1.750000e+00 1.250000e+00
4.000000e+00 1.875000e+00 1.250000e+00
4.000000e+00 2.000000e+00 1.250000e+00
4.000000e+00 2.125000e+00 1.250000e+00
4.000000e+00 2.250000e+00 1.250000e+00
POLYGONS 384 1536
3 0 13 14
3 0 14 1
3 1 14 15
3 1 15 2
3 2 15 16
3 2 16 3
3 3 16 17
3 3 17 4
3 4 17 18
3 4 18 5
3 5 18 19
3 5 19 6
3 6 19 20
3 6 20 7
3 7 20 21
3 7 21 8
3 8 21 22
3 8 22 9
3 9 22 23
3 9 23 10
3 10 23 24
3 10 24 11
3 11 24 25
3 11 25 12
3 13 26 27
3 13 27 14
3 14 27 28
3 14 28 15
3 15 28 29
3 15 29 16
3 16 29 30
3 16 30 17
3 17 30 31
3 17 31 18
3 18 31 32
3 18 32 19
3 19 32 33
3 19 33 20
3 20 33 34
3 20 34 21
3 21 34 35
3 21 35 22
3 22 35 36
3 22 36 23
3 23 36 37
3 23 37 24
3 24 37 38
3 24 38 25
3 26 39 40
3 26 40 27
3 27 40 41
3 27 41 28
3 28 41 42
3 28 42 29
3 29 42 43
3 29 43 30
3 30 43 44
3 30 44 31
3 31 44 45
3 31 45 32
3 32 45 46
3 32 46 33
3 33 46 47
3 33 47 34
3 34 47 48
3 34 48 35
3 35 48 49
3 35 49 36
3 36 49 50
3 36 50 37
3 37 50 51
3 37 51 38
3 39 52 53
3 39 53 40
3 40 53 54
3 40 54 41
3 41 54 55
3 41 55 42
3 42 55 56
3 42 56 43
3 43 56 57
3 43 57 44
3 44 57 58
3 44 58 45
3 45 58 59
3 45 59 46
3 46 59 60
3 46 60 47
3 47 60 61
3 47 61 48
3 48 61 62
3 48 62 49
3 49 62 63
3 49 63 50
3 50 63 64
3 50 64 51
3 52 65 66
3 52 66 53
3 53 66 67
3 53 67 54
3 54 67 68
3 54 68 55
3 55 68 69
3 55 69 56
3 56 69 70
3 56 70 57
3 57 70 71
3 57 71 58
3 58 71 72
3 58 72 59
3 59 72 73
3 59 73 60
3 60 73 74
3 60 74 61
3 61 74 75
3 61 75 62
3 62 75 76
3 62 76 63
3 63 76 77
3 63 77 64
3 65 78 79
3 65 79 66
3 66 79 80
3 66 80 67
3 67 80 81
3 67 81 68
3 68 81 82
3 68 82 69
3 69 82 83
3 69 83 70
3 70 83 84
3 70 84 71
3 71 84 85
3 71 85 72
3 72 85 86
3 72 86 73
3 73 86 87
3 73 87 74
3 74 87 88
3 74 88 75
3 75 88 89
3 75 89 76
3 76 89 90
3 76 90 77
3 78 91 92
3 78 92 79
3 79 92 93
3 79 93 80
3 80 93 94
3 80 94 81
3 81 94 95
3 81 95 82
3 82 95 96
3 82 96 83
3 83 96 97
3 83 97 84
3 84 97 98
3 84 98 85
3 85 98 99
3 85 99 86
3 86 99 100
3 86 100 87
3 87 100 101
3 87 101 88
3 88 101 102
3 88 102 89
3 89 102 103
3 89 103 90
3 91 104 105
3 91 105 92
3 92 105 106
3 92 106 93
3 93 106 107
3 93 107 94
3 94 107 108
3 94 108 95
3 95 108 109
3 95 109 96
3 96 109 110
3 96 110 97
3 97 110 111
3 97 111 98
3 98 111 112
3 98 112 99
3 99 112 113
3 99 113 100
3 100 113 114
3 100 114 101
3 101 114 115
3 101 115 102
3 102 115 116
3 102 116 103
3 104 117 118
3 104 118 105
3 105 118 119
3 105 119 106
3 106 119 120
3 106 120 107
3 107 120 121
3 107 121 108
3 108 121 122
3 108 122 109
3 109 122 123
3 109 123 110
3 110 123 124
3 110 124 111
3 111 124 125
3 111 125 112
3 112 125 126
3 112 126 113
3 113 126 127
3 113 127 114
3 114 127 128
3 114 128 115
3 115 128 129
3 115 129 116
3 117 130 131
3 117 131 118
3 118 131 132
3 118 132 119
3 119 132 133
3 119 133 120
3 120 133 134
3 120 134 121
3 121 134 135
3 121 135 122
3 122 135 136
3 122 136 123
3 123 136 137
3 123 137 124
3 124 137 138
3 124 138 125
3 125 138 139
3 125 139 126
3 126 139 140
3 126 140 127
3 127 140 141
3 127 141 128
3 128 141 142
3 128 142 129
3 130 143 144
3 130 144 131
3 131 144 145
3 131 145 132
3 132 145 146
3 132 146 133
3 133 146 147
3 133 147 134
3 134 147 148
3 134 148 135
3 135 148 149
3 135 149 136
3 136 149 150
3 136 150 137
3 137 150 151
3 137 151 138
3 138 151 152
3 138 152 139
3 139 152 153
3 139 153 140
3 140 153 154
3 140 154 141
3 141 154 155
3 141 155 142
3 143 156 157
3 143 157 144
3 144 157 158
3 144 158 145
3 145 158 159
3 145 159 146
3 146 159 160
3 146 160 147
3 147 160 161
3 147 161 148
3 148 161 162
3 148 162 149
3 149 162 163
3 149 163 150
3 150 163 164
3 150 164 151
3 151 164 165
3 151 165 152
3 152 165 166
3 152 166 153
3 153 166 167
3 153 167 154
3 154 167 168
3 154 168 155
3 156 169 170
3 156 170 157
3 157 170 171
3 157 171 158
3 158 171 172
3 158 172 159
3 159 172 173
3 159 173 160
3 160 173 174
3 160 174 161
3 161 174 175
3 161 175 162
3 162 175 176
3 162 176 163
3 163 176 177
3 163 177 164
3 164 177 178
3 164 178 165
3 165 178 179
3 165 179 166
3 166 179 180
3 166 180 167
3 167 180 181
3 167 181 168
3 169 182 183
3 169 183 170
3 170 183 184
3 170 184 171
3 171 184 185
3 171 185 172
3 172 185 186
3 172 186 173
3 173 186 187
3 173 187 174
3 174 187 188
3 174 188 175
3 175 188 189
3 175 189 176
3 176 189 190
3 176 190 177
3 177 190 191
3 177 191 178
3 178 191 192
3 178 192 179
3 179 192 193
3 179 193 180
3 180 193 194
3 180 194 181
3 182 195 196
3 182 196 183
3 183 196 197
3 183 197 184
3 184 197 198
3 184 198 185
3 185 198 199
3 185 199 186
3 186 199 200
3 186 200 187
3 187 200 201
3 187 201 188
3 188 201 202
3 188 202 189
3 189 202 203
3 189 203 190
3 190 203 204
3 190 204 191
3 191 204 205
3 191 205 192
3 192 205 206
3 192 206 193
3 193 206 207
3 193 207 194
3 195 208 209
3 195 209 196
3 196 209 210
3 196 210 197
3 197 210 211
3 197 211 198
3 198 211 212
3 198 212 199
3 199 212 213
3 199 213 200
3 200 213 214
3 200 214 201
3 201 214 215
3 201 215 202
3 202 215 216
3 202 216 203
3 203 216 217
3 203 217 204
3 204 217 218
3 204 218 205
3 205 218 219
3 205 219 206
3 206 219 220
3 206 220 207
POINT_DATA 221
VECTORS velocity float
0.000000e+00 0.000000e+00 0.000000e+00
0.000000e+00 0.000000e+00 0.000000e+00
0.000000e+00 0.000000e+00 0.000000e+00
0.000000e+00 0.000000e+00 0.000000e+00
0.000000e+00 0.000000e+00 0.000000e+00
0.000000e+00 0.000000e+00 0.000000e+00
0.000000e+00 0.000000e+00 0.000000e+00
0.000000e+00 0.000000e+00 0.000000e+00
0.000000e+00 0.000000e+00 0.000000e+00
0.000000e+00 0.000000e+00 0.000000e+00
0.000000e+00 0.000000e+00 0.000000e+00
0.000000e+00 0.000000e+00 0.000000e+00
0.000000e+00 0.000000e+00 0.000000e+00
-4.185590e-01 -4.931580e-01 8.702668e-02
3.151003e-01 -4.819093e-02 1.344429e-01
-1.617550e-01 3.775244e-01 2.076163e-01
3.534755e-02 4.972006e-02 2.553531e-01
1.171836e-01 -2.242043e-01 2.774367e-01
-3.035336e-03 -8.621418e-02 2.942245e-01
-7.911465e-02 -7.179747e-02 2.965162e-01
-9.231116e-02 -5.657595e-02 2.749548e-01
-7.001950e-03 2.502340e-01 2.356880e-01
1.630972e-01 2.044299e-01 1.851022e-01
9.424070e-03 -4.534757e-01 1.374743e-01
-3.285396e-01 -1.295477e-01 8.961935e-02
6.371341e-01 4.235184e-01 6.208053e-02
-2.385107e-01 -1.267051e-01 3.255226e-02
2.809544e-01 -1.859035e-02 6.039559e-02
-2.438629e-01 5.650262e-01 1.158982e-01
1.228357e-01 -1.875098e-01 1.819214e-01
1.758938e-01 -3.940990e-01 2.102891e-01
-3.770253e-02 -6.468624e-03 2.321313e-01
-1.067425e-01 -4.655596e-02 2.432207e-01
-1.475422e-01 -1.438935e-01 2.327741e-01
-1.771951e-01 2.072270e-01 2.141516e-01
6.887974e-02 2.437245e-01 1.698088e-01
3.260849e-01 -2.648007e-01 1.028394e-01
-3.934690e-01 7.264051e-02 6.844434e-02
2.572108e-01 1.239014e-01 1.700633e-02
-7.687326e-02 -2.140262e-01 3.040482e-02
2.956872e-01 -9.985343e-02 4.501593e-02
-1.787898e-01 5.414786e-01 7.479797e-02
2.017991e-01 -3.101771e-01 1.444500e-01
1.129691e-01 -2.987406e-01 1.675746e-01
-6.701851e-02 1.341391e-01 1.838398e-01
-7.467959e-02 -3.012234e-02 1.964927e-01
-1.138915e-01 -2.053877e-01 1.892771e-01
-2.405434e-01 1.502220e-01 1.848743e-01
-1.290233e-01 1.150267e-01 1.558033e-01
3.065717e-01 -5.151374e-01 8.161086e-02
-1.837405e-01 2.245952e-01 8.000937e-02
1.809701e-01 2.540065e-01 3.563510e-02
-2.310364e-02 -2.072370e-01 2.894805e-02
1.966349e-01 -1.679326e-02 3.699991e-02
-1.559208e-01 5.737187e-01 5.144468e-02
1.364579e-01 -2.318905e-01 1.210512e-01
6.765027e-02 -1.849319e-01 1.336193e-01
-2.943192e-02 1.853592e-01 1.422883e-01
-3.103699e-02 -2.817585e-02 1.560964e-01
-7.354473e-02 -2.317098e-01 1.495311e-01
-2.228211e-01 1.335454e-01 1.515957e-01
-2.075274e-01 1.058780e-01 1.347578e-01
1.994330e-01 -6.911680e-01 5.434635e-02
-1.204683e-01 -1.294375e-02 6.388644e-02
1.974827e-01 1.954589e-01 4.975201e-02
-7.023687e-02 -1.346698e-01 1.894251e-02
1.597312e-01 7.700253e-02 2.065806e-02
-1.634115e-01 6.186227e-01 2.362788e-02
1.189716e-01 -1.708656e-01 9.248853e-02
1.132235e-01 -1.516579e-01 9.785740e-02
1.530920e-02 2.064550e-01 1.021550e-01
-1.103807e-02 -1.525809e-02 1.173520e-01
-5.445708e-02 -2.372966e-01 1.112071e-01
-1.986118e-01 1.258480e-01 1.170293e-01
-2.179590e-01 1.303821e-01 1.098178e-01
1.290492e-01 -6.848918e-01 3.147097e-02
-1.523047e-01 -1.055418e-01 4.535311e-02
1.366752e-01 1.300424e-01 4.455014e-02
-7.876637e-02 -1.168663e-01 1.146728e-02
1.923636e-01 8.988444e-02 6.178222e-03
-1.328120e-01 6.373960e-01 -6.134774e-03
1.664068e-01 -1.535840e-01 6.114091e-02
1.592821e-01 -1.361309e-01 6.212818e-02
3.526992e-02 2.251168e-01 6.282602e-02
-3.995745e-03 -5.032122e-03 7.808062e-02
-4.787347e-02 -2.375972e-01 7.239804e-02
-1.876202e-01 1.220293e-01 8.156402e-02
-2.147835e-01 1.417560e-01 8.216716e-02
9.691927e-02 -6.559670e-01 9.369833e-03
-2.032915e-01 -9.974152e-02 3.119934e-02
8.049967e-02 1.222819e-01 3.731088e-02
-5.754306e-02 -1.232050e-01 6.008733e-03
2.245245e-01 8.363223e-02 -6.137707e-03
-1.015414e-01 6.394421e-01 -3.330730e-02
1.997850e-01 -1.497735e-01 3.085899e-02
1.777041e-01 -1.260186e-01 2.782049e-02
4.251888e-02 2.338687e-01 2.445794e-02
-1.125041e-03 -1.174556e-03 3.852139e-02
-4.613832e-02 -2.369557e-01 3.331150e-02
-1.845226e-01 1.213367e-01 4.524036e-02
-2.126807e-01 1.456898e-01 5.222724e-02
8.723893e-02 -6.436126e-01 -1.371488e-02
-2.306762e-01 -8.730040e-02 1.675887e-02
5.161247e-02 1.258523e-01 2.977108e-02
-4.554426e-02 -1.283344e-01 4.019637e-04
2.361928e-01 8.131175e-02 -1.776315e-02
-8.820387e-02 6.385585e-01 -5.775326e-02
2.104743e-01 -1.490471e-01 1.376604e-03
1.829885e-01 -1.230410e-01 -5.498658e-03
4.529864e-02 2.358480e-01 -1.314584e-02
1.051841e-04 3.026140e-05 -1.146471e-03
-4.509224e-02 -2.358968e-01 -5.856541e-03
-1.827882e-01 1.226967e-01 8.415703e-03
-2.102818e-01 1.482410e-01 2.112279e-02
8.836087e-02 -6.397348e-01 -3.663830e-02
-2.360949e-01 -8.261851e-02 1.032397e-03
4.562720e-02 1.267257e-01 2.121395e-02
-5.137499e-02 -1.285285e-01 -6.076856e-03
2.310606e-01 8.421289e-02 -2.902994e-02
-8.651180e-02 6.399923e-01 -7.949013e-02
2.136875e-01 -1.490286e-01 -2.724902e-02
1.856309e-01 -1.236569e-01 -3.755205e-02
4.724894e-02 2.357814e-01 -4.926166e-02
2.136050e-03 1.151718e-03 -3.985575e-02
-4.171219e-02 -2.329336e-01 -4.392443e-02
-1.771337e-01 1.275851e-01 -2.787248e-02
-1.994443e-01 1.515647e-01 -1.011377e-02
1.016968e-01 -6.380161e-01 -5.790739e-02
-2.244753e-01 -8.300952e-02 -1.532472e-02
5.756120e-02 1.228152e-01 1.088596e-02
-8.003464e-02 -1.257629e-01 -1.280330e-02
2.041599e-01 9.525598e-02 -4.010126e-02
-9.513622e-02 6.504020e-01 -9.888146e-02
2.174511e-01 -1.472082e-01 -5.450173e-02
1.907857e-01 -1.261098e-01 -6.745726e-02
5.126641e-02 2.353176e-01 -8.283347e-02
7.302300e-03 4.772288e-03 -7.632512e-02
-3.242888e-02 -2.234784e-01 -7.945688e-02
-1.570957e-01 1.392761e-01 -6.210910e-02
-1.649562e-01 1.576810e-01 -4.019812e-02
1.335491e-01 -6.335578e-01 -7.666461e-02
-1.921102e-01 -8.742809e-02 -3.169368e-02
7.882129e-02 1.177073e-01 -5.232287e-04
-1.359293e-01 -1.339902e-01 -1.930343e-02
1.537979e-01 1.002111e-01 -4.969649e-02
-1.258627e-01 6.781505e-01 -1.161376e-01
2.229198e-01 -1.372336e-01 -8.026512e-02
2.047187e-01 -1.312313e-01 -9.412704e-02
6.121404e-02 2.340850e-01 -1.123723e-01
1.784267e-02 1.464250e-02 -1.089694e-01
-9.243279e-03 -2.044881e-01 -1.107388e-01
-1.083525e-01 1.558338e-01 -9.270280e-02
-1.155664e-01 1.766588e-01 -6.787979e-02
1.652524e-01 -6.128969e-01 -9.223827e-02
-1.590337e-01 -7.303726e-02 -4.658004e-02
7.043445e-02 1.366229e-01 -1.121249e-02
-1.964876e-01 -1.993627e-01 -2.502748e-02
1.226448e-01 7.421308e-03 -5.289062e-02
-1.946679e-01 6.841710e-01 -1.290662e-01
2.151484e-01 -1.132285e-01 -1.046096e-01
2.324263e-01 -1.396088e-01 -1.173039e-01
8.436647e-02 2.278584e-01 -1.375011e-01
4.214842e-02 2.713254e-02 -1.373049e-01
3.956941e-02 -1.834869e-01 -1.373951e-01
-5.931403e-02 1.894220e-01 -1.204379e-01
-1.305273e-01 2.384510e-01 -9.526834e-02
1.591705e-01 -5.670033e-01 -1.066106e-01
-1.953447e-01 2.166469e-02 -5.884687e-02
2.353418e-02 2.100211e-01 -2.061136e-02
-1.800353e-01 -2.569534e-01 -3.628138e-02
1.863956e-01 -2.294582e-01 -5.226865e-02
-3.003043e-01 5.088475e-01 -1.335192e-01
1.393742e-01 -1.218786e-01 -1.288917e-01
2.539284e-01 -1.562482e-01 -1.389503e-01
1.292205e-01 2.012605e-01 -1.585655e-01
9.067002e-02 2.862811e-02 -1.615919e-01
8.190346e-02 -1.327787e-01 -1.615657e-01
-1.005118e-01 3.027434e-01 -1.499174e-01
-1.929469e-01 3.163518e-01 -1.264509e-01
1.834920e-01 -5.349382e-01 -1.215042e-01
-2.938697e-01 1.047834e-01 -7.623234e-02
7.754219e-02 2.171660e-01 -3.847821e-02
-2.564515e-01 -1.255678e-01 -4.836170e-02
3.961701e-01 -7.594010e-02 -6.897153e-02
-3.188023e-01 2.601945e-01 -1.377710e-01
-5.612982e-02 -2.490155e-01 -1.561553e-01
1.944848e-01 -2.123563e-01 -1.652167e-01
1.680293e-01 1.399816e-01 -1.805564e-01
1.287399e-01 4.470365e-02 -1.874374e-01
5.887605e-02 7.014865e-03 -1.907484e-01
-1.575180e-01 3.969299e-01 -1.863835e-01
-1.092467e-01 1.923092e-01 -1.645440e-01
2.512968e-01 -5.595465e-01 -1.426620e-01
-2.782238e-01 2.306689e-02 -1.025338e-01
2.394220e-01 1.299296e-01 -6.570249e-02
-6.351818e-01 -4.245381e-01 -6.229526e-02
3.326514e-01 1.277284e-01 -8.980609e-02
-3.643319e-04 4.510587e-01 -1.448791e-01
-1.480142e-01 -2.072477e-01 -1.850188e-01
2.817824e-02 -2.533297e-01 -2.019425e-01
1.188285e-01 5.382726e-02 -2.140428e-01
1.091354e-01 7.012724e-02 -2.251013e-01
3.360529e-02 8.601565e-02 -2.323534e-01
-8.883606e-02 2.254789e-01 -2.322675e-01
-1.188551e-02 -4.708773e-02 -2.150622e-01
1.776302e-01 -3.740552e-01 -1.831871e-01
-3.072016e-01 5.160757e-02 -1.453555e-01
4.212602e-01 4.965059e-01 -9.019657e-02
0.000000e+00 0.000000e+00 0.000000e+00
0.000000e+00 0.000000e+00 0.000000e+00
0.000000e+00 0.000000e+00 0.000000e+00
0.000000e+00 0.000000e+00 0.000000e+00
0.000000e+00 0.000000e+00 0.000000e+00
0.000000e+00 0.000000e+00 0.000000e+00
0.000000e+00 0.000000e+00 0.000000e+00
0.000000e+00 0.000000e+00 0.000000e+00
0.000000e+00 0.000000e+00 0.000000e+00
0.000000e+00 0.000000e+00 0.000000e+00
0.000000e+00 0.000000e+00 0.000000e+00
0.000000e+00 0.000000e+00 0.000000e+00
0.000000e+00 0.000000e+00 0.000000e+00
