# vtk DataFile Version 3.0
tensile membrane
ASCII
DATASET POLYDATA
POINTS 221 float
2.000000e+00 7.500000e-01 1.250000e+00
2.000000e+00 8.750000e-01 1.250000e+00
2.000000e+00 1.000000e+00 1.250000e+00
2.000000e+00 1.125000e+00 1.250000e+00
2.000000e+00 1.250000e+00 1.250000e+00
2.000000e+00 1.375000e+00 1.250000e+00
2.000000e+00 1.500000e+00 1.250000e+00
2.000000e+00 1.625000e+00 1.250000e+00
2.000000e+00 1.750000e+00 1.250000e+00
2.000000e+00 1.875000e+00 1.250000e+00
2.000000e+00 2.000000e+00 1.250000e+00
2.000000e+00 2.125000e+00 1.250000e+00
2.000000e+00 2.250000e+00 1.250000e+00
2.125000e+00 7.500000e-01 1.250000e+00
2.124856e+00 8.748775e-01 1.236579e+00
2.124758e+00 9.999153e-01 1.232045e+00
2.124718e+00 1.124964e+00 1.230342e+00
2.124723e+00 1.250002e+00 1.229684e+00
2.124749e+00 1.375014e+00 1.229931e+00
2.124759e+00 1.500041e+00 1.230577e+00
2.124714e+00 1.625086e+00 1.231617e+00
2.124709e+00 1.750144e+00 1.233116e+00
2.124719e+00 1.875178e+00 1.235321e+00
2.124771e+00 2.000211e+00 1.238209e+00
2.124890e+00 2.125170e+00 1.242766e+00
2.125000e+00 2.250000e+00 1.250000e+00
2.250000e+00 7.500000e-01 1.250000e+00
2.249822e+00 8.746553e-01 1.229580e+00
2.249652e+00 9.996280e-01 1.218883e+00
2.249582e+00 1.124741e+00 1.214145e+00
2.249587e+00 1.249868e+00 1.211979e+00
2.249635e+00 1.374971e+00 1.211939e+00
2.249649e+00 1.500088e+00 1.213111e+00
2.249566e+00 1.625227e+00 1.214926e+00
2.249553e+00 1.750340e+00 1.218202e+00
2.249592e+00 1.875398e+00 1.222745e+00
2.249669e+00 2.000398e+00 1.228804e+00
2.249832e+00 2.125305e+00 1.237198e+00
2.250000e+00 2.250000e+00 1.250000e+00
2.375000e+00 7.500000e-01 1.250000e+00
2.374918e+00 8.744811e-01 1.225749e+00
2.374754e+00 9.993389e-01 1.210344e+00
2.374670e+00 1.124461e+00 1.202007e+00
2.374688e+00 1.249673e+00 1.198304e+00
2.374735e+00 1.374876e+00 1.197379e+00
2.374721e+00 1.500085e+00 1.198900e+00
2.374641e+00 1.625303e+00 1.201678e+00
2.374628e+00 1.750482e+00 1.205823e+00
2.374713e+00 1.875568e+00 1.212749e+00
2.374765e+00 2.000554e+00 1.221510e+00
2.374866e+00 2.125391e+00 1.233595e+00
2.375000e+00 2.250000e+00 1.250000e+00
2.500000e+00 7.500000e-01 1.250000e+00
2.500079e+00 8.743773e-01 1.223282e+00
2.499977e+00 9.991427e-01 1.204176e+00
2.499869e+00 1.124230e+00 1.192125e+00
2.499850e+00 1.249500e+00 1.186481e+00
2.499874e+00 1.374810e+00 1.185206e+00
2.499817e+00 1.500097e+00 1.186300e+00
2.499760e+00 1.625342e+00 1.190021e+00
2.499789e+00 1.750547e+00 1.195795e+00
2.499858e+00 1.875681e+00 1.204284e+00
2.499885e+00 2.000689e+00 1.215793e+00
2.499912e+00 2.125490e+00 1.230687e+00
2.500000e+00 2.250000e+00 1.250000e+00
2.625000e+00 7.500000e-01 1.250000e+00
2.625186e+00 8.742734e-01 1.221110e+00
2.625155e+00 9.989766e-01 1.199180e+00
2.625040e+00 1.124039e+00 1.183793e+00
2.624957e+00 1.249357e+00 1.175602e+00
2.624917e+00 1.374751e+00 1.173378e+00
2.624849e+00 1.500092e+00 1.174529e+00
2.624790e+00 1.625376e+00 1.178548e+00
2.624818e+00 1.750625e+00 1.186013e+00
2.624868e+00 1.875814e+00 1.196366e+00
2.624889e+00 2.000819e+00 1.210497e+00
2.624908e+00 2.125586e+00 1.228032e+00
2.625000e+00 2.250000e+00 1.250000e+00
2.750000e+00 7.500000e-01 1.250000e+00
2.750240e+00 8.741296e-01 1.218291e+00
2.750270e+00 9.988060e-01 1.194264e+00
2.750180e+00 1.123840e+00 1.176073e+00
2.750054e+00 1.249170e+00 1.164779e+00
2.749975e+00 1.374657e+00 1.161036e+00
2.749896e+00 1.500091e+00 1.162364e+00
2.749825e+00 1.625478e+00 1.166969e+00
2.749790e+00 1.750806e+00 1.175840e+00
2.749824e+00 1.876029e+00 1.188573e+00
2.749857e+00 2.001033e+00 1.204858e+00
2.749883e+00 2.125683e+00 1.225545e+00
2.750000e+00 2.250000e+00 1.250000e+00
2.875000e+00 7.500000e-01 1.250000e+00
2.875275e+00 8.739043e-01 1.214316e+00
2.875396e+00 9.985215e-01 1.187795e+00
2.875404e+00 1.123601e+00 1.168143e+00
2.875305e+00 1.248953e+00 1.154059e+00
2.875214e+00 1.374543e+00 1.147812e+00
2.875120e+00 1.500173e+00 1.149325e+00
2.875018e+00 1.625737e+00 1.155193e+00
2.874899e+00 1.751167e+00 1.165240e+00
2.874850e+00 1.876361e+00 1.180362e+00
2.874865e+00 2.001304e+00 1.199275e+00
2.874881e+00 2.125838e+00 1.222763e+00
2.875000e+00 2.250000e+00 1.250000e+00
3.000000e+00 7.500000e-01 1.250000e+00
3.000392e+00 8.736766e-01 1.210414e+00
3.000650e+00 9.981210e-01 1.180243e+00
3.000767e+00 1.123221e+00 1.158793e+00
3.000737e+00 1.248689e+00 1.143779e+00
3.000660e+00 1.374419e+00 1.135245e+00
3.000542e+00 1.500305e+00 1.135454e+00
3.000369e+00 1.626096e+00 1.142359e+00
3.000163e+00 1.751637e+00 1.154143e+00
2.999987e+00 1.876808e+00 1.171566e+00
2.999927e+00 2.001629e+00 1.193377e+00
2.999927e+00 2.126031e+00 1.219441e+00
3.000000e+00 2.250000e+00 1.250000e+00
3.125000e+00 7.500000e-01 1.250000e+00
3.125596e+00 8.735295e-01 1.207284e+00
3.126040e+00 9.978191e-01 1.174146e+00
3.126255e+00 1.122855e+00 1.150622e+00
3.126293e+00 1.248437e+00 1.135380e+00
3.126256e+00 1.374321e+00 1.126256e+00
3.126143e+00 1.500372e+00 1.124477e+00
3.125901e+00 1.626344e+00 1.130736e+00
3.125581e+00 1.752020e+00 1.143273e+00
3.125269e+00 1.877244e+00 1.162425e+00
3.125089e+00 2.001934e+00 1.187560e+00
3.125024e+00 2.126173e+00 1.216705e+00
3.125000e+00 2.250000e+00 1.250000e+00
3.250000e+00 7.500000e-01 1.250000e+00
3.250798e+00 8.735210e-01 1.206584e+00
3.251460e+00 9.977284e-01 1.171428e+00
3.251824e+00 1.122707e+00 1.146365e+00
3.251955e+00 1.248303e+00 1.130782e+00
3.251953e+00 1.374238e+00 1.122216e+00
3.251822e+00 1.500294e+00 1.119432e+00
3.251542e+00 1.626328e+00 1.123965e+00
3.251123e+00 1.752112e+00 1.136182e+00
3.250667e+00 1.877445e+00 1.155623e+00
3.250310e+00 2.002140e+00 1.182219e+00
3.250107e+00 2.126267e+00 1.214219e+00
3.250000e+00 2.250000e+00 1.250000e+00
3.375000e+00 7.500000e-01 1.250000e+00
3.375890e+00 8.736374e-01 1.208972e+00
3.376744e+00 9.978365e-01 1.174060e+00
3.377339e+00 1.122732e+00 1.147723e+00
3.377627e+00 1.248239e+00 1.131112e+00
3.377687e+00 1.374135e+00 1.122592e+00
3.377563e+00 1.500176e+00 1.119586e+00
3.377250e+00 1.626174e+00 1.122840e+00
3.376739e+00 1.751980e+00 1.133853e+00
3.376105e+00 1.877370e+00 1.153142e+00
3.375576e+00 2.002176e+00 1.179423e+00
3.375211e+00 2.126343e+00 1.212022e+00
3.375000e+00 2.250000e+00 1.250000e+00
3.500000e+00 7.500000e-01 1.250000e+00
3.500905e+00 8.737841e-01 1.213508e+00
3.501858e+00 9.980378e-01 1.181179e+00
3.502652e+00 1.122881e+00 1.155157e+00
3.503138e+00 1.248256e+00 1.137633e+00
3.503288e+00 1.374009e+00 1.128525e+00
3.503230e+00 1.499984e+00 1.125147e+00
3.502950e+00 1.625927e+00 1.127479e+00
3.502379e+00 1.751669e+00 1.136831e+00
3.501575e+00 1.877034e+00 1.154591e+00
3.500854e+00 2.001909e+00 1.179852e+00
3.500347e+00 2.126230e+00 1.211547e+00
3.500000e+00 2.250000e+00 1.250000e+00
3.625000e+00 7.500000e-01 1.250000e+00
3.625859e+00 8.740006e-01 1.220240e+00
3.626749e+00 9.983474e-01 1.192658e+00
3.627623e+00 1.123135e+00 1.169161e+00
3.628281e+00 1.248354e+00 1.152077e+00
3.628548e+00 1.373923e+00 1.142701e+00
3.628531e+00 1.499721e+00 1.138688e+00
3.628288e+00 1.625559e+00 1.140285e+00
3.627751e+00 1.751223e+00 1.147638e+00
3.626906e+00 1.876558e+00 1.162029e+00
3.626032e+00 2.001460e+00 1.184301e+00
3.625412e+00 2.125945e+00 1.213497e+00
3.625000e+00 2.250000e+00 1.250000e+00
3.750000e+00 7.500000e-01 1.250000e+00
3.750650e+00 8.743101e-01 1.229480e+00
3.751346e+00 9.988363e-01 1.209501e+00
3.752118e+00 1.123629e+00 1.191291e+00
3.752772e+00 1.248703e+00 1.177091e+00
3.753094e+00 1.374058e+00 1.168631e+00
3.753082e+00 1.499583e+00 1.164717e+00
3.752884e+00 1.625179e+00 1.165310e+00
3.752489e+00 1.750695e+00 1.170217e+00
3.751811e+00 1.875983e+00 1.179679e+00
3.751032e+00 2.000973e+00 1.195537e+00
3.750411e+00 2.125646e+00 1.218622e+00
3.750000e+00 2.250000e+00 1.250000e+00
3.875000e+00 7.500000e-01 1.250000e+00
3.875363e+00 8.746549e-01 1.239874e+00
3.875736e+00 9.994217e-01 1.229713e+00
3.876174e+00 1.124315e+00 1.219804e+00
3.876583e+00 1.249320e+00 1.211271e+00
3.876823e+00 1.374474e+00 1.205977e+00
3.876846e+00 1.499713e+00 1.203438e+00
3.876736e+00 1.624966e+00 1.203324e+00
3.876541e+00 1.750216e+00 1.205430e+00
3.876177e+00 1.875381e+00 1.209521e+00
3.875727e+00 2.000431e+00 1.216840e+00
3.875323e+00 2.125322e+00 1.228898e+00
3.875000e+00 2.250000e+00 1.250000e+00
4.000000e+00 7.500000e-01 1.250000e+00
4.000000e+00 8.750000e-01 1.250000e+00
4.000000e+00 1.000000e+00 1.250000e+00
4.000000e+00 1.125000e+00 1.250000e+00
4.000000e+00 1.250000e+00 1.250000e+00
4.000000e+00 1.375000e+00 1.250000e+00
4.000000e+00 1.500000e+00 1.250000e+00
4.000000e+00 1.625000e+00 1.250000e+00
4.000000e+00 1.750000e+00 1.250000e+00
4.000000e+00 1.875000e+00 1.250000e+00
4.000000e+00 2.000000e+00 1.250000e+00
4.000000e+00 2.125000e+00 1.250000e+00
4.000000e+00 2.250000e+00 1.250000e+00
POLYGONS 384 1536
3 0 13 14
3 0 14 1
3 1 14 15
3 1 15 2
3 2 15 16
3 2 16 3
3 3 16 17
3 3 17 4
3 4 17 18
3 4 18 5
3 5 18 19
3 5 19 6
3 6 19 20
3 6 20 7
3 7 20 21
3 7 21 8
3 8 21 22
3 8 22 9
3 9 22 23
3 9 23 10
3 10 23 24
3 10 24 11
3 11 24 25
3 11 25 12
3 13 26 27
3 13 27 14
3 14 27 28
3 14 28 15
3 15 28 29
3 15 29 16
3 16 29 30
3 16 30 17
3 17 30 31
3 17 31 18
3 18 31 32
3 18 32 19
3 19 32 33
3 19 33 20
3 20 33 34
3 20 34 21
3 21 34 35
3 21 35 22
3 22 35 36
3 22 36 23
3 23 36 37
3 23 37 24
3 24 37 38
3 24 38 25
3 26 39 40
3 26 40 27
3 27 40 41
3 27 41 28
3 28 41 42
3 28 42 29
3 29 42 43
3 29 43 30
3 30 43 44
3 30 44 31
3 31 44 45
3 31 45 32
3 32 45 46
3 32 46 33
3 33 46 47
3 33 47 34
3 34 47 48
3 34 48 35
3 35 48 49
3 35 49 36
3 36 49 50
3 36 50 37
3 37 50 51
3 37 51 38
3 39 52 53
3 39 53 40
3 40 53 54
3 40 54 41
3 41 54 55
3 41 55 42
3 42 55 56
3 42 56 43
3 43 56 57
3 43 57 44
3 44 57 58
3 44 58 45
3 45 58 59
3 45 59 46
3 46 59 60
3 46 60 47
3 47 60 61
3 47 61 48
3 48 61 62
3 48 62 49
3 49 62 63
3 49 63 50
3 50 63 64
3 50 64 51
3 52 65 66
3 52 66 53
3 53 66 67
3 53 67 54
3 54 67 68
3 54 68 55
3 55 68 69
3 55 69 56
3 56 69 70
3 56 70 57
3 57 70 71
3 57 71 58
3 58 71 72
3 58 72 59
3 59 72 73
3 59 73 60
3 60 73 74
3 60 74 61
3 61 74 75
3 61 75 62
3 62 75 76
3 62 76 63
3 63 76 77
3 63 77 64
3 65 78 79
3 65 79 66
3 66 79 80
3 66 80 67
3 67 80 81
3 67 81 68
3 68 81 82
3 68 82 69
3 69 82 83
3 69 83 70
3 70 83 84
3 70 84 71
3 71 84 85
3 71 85 72
3 72 85 86
3 72 86 73
3 73 86 87
3 73 87 74
3 74 87 88
3 74 88 75
3 75 88 89
3 75 89 76
3 76 89 90
3 76 90 77
3 78 91 92
3 78 92 79
3 79 92 93
3 79 93 80
3 80 93 94
3 80 94 81
3 81 94 95
3 81 95 82
3 82 95 96
3 82 96 83
3 83 96 97
3 83 97 84
3 84 97 98
3 84 98 85
3 85 98 99
3 85 99 86
3 86 99 100
3 86 100 87
3 87 100 101
3 87 101 88
3 88 101 102
3 88 102 89
3 89 102 103
3 89 103 90
3 91 104 105
3 91 105 92
3 92 105 106
3 92 106 93
3 93 106 107
3 93 107 94
3 94 107 108
3 94 108 95
3 95 108 109
3 95 109 96
3 96 109 110
3 96 110 97
3 97 110 111
3 97 111 98
3 98 111 112
3 98 112 99
3 99 112 113
3 99 113 100
3 100 113 114
3 100 114 101
3 101 114 115
3 101 115 102
3 102 115 116
3 102 116 103
3 104 117 118
3 104 118 105
3 105 118 119
3 105 119 106
3 106 119 120
3 106 120 107
3 107 120 121
3 107 121 108
3 108 121 122
3 108 122 109
3 109 122 123
3 109 123 110
3 110 123 124
3 110 124 111
3 111 124 125
3 111 125 112
3 112 125 126
3 112 126 113
3 113 126 127
3 113 127 114
3 114 127 128
3 114 128 115
3 115 128 129
3 115 129 116
3 117 130 131
3 117 131 118
3 118 131 132
3 118 132 119
3 119 132 133
3 119 133 120
3 120 133 134
3 120 134 121
3 121 134 135
3 121 135 122
3 122 135 136
3 122 136 123
3 123 136 137
3 123 137 124
3 124 137 138
3 124 138 125
3 125 138 139
3 125 139 126
3 126 139 140
3 126 140 127
3 127 140 141
3 127 141 128
3 128 141 142
3 128 142 129
3 130 143 144
3 130 144 131
3 131 144 145
3 131 145 132
3 132 145 146
3 132 146 133
3 133 146 147
3 133 147 134
3 134 147 148
3 134 148 135
3 135 148 149
3 135 149 136
3 136 149 150
3 136 150 137
3 137 150 151
3 137 151 138
3 138 151 152
3 138 152 139
3 139 152 153
3 139 153 140
3 140 153 154
3 140 154 141
3 141 154 155
3 141 155 142
3 143 156 157
3 143 157 144
3 144 157 158
3 144 158 145
3 145 158 159
3 145 159 146
3 146 159 160
3 146 160 147
3 147 160 161
3 147 161 148
3 148 161 162
3 148 162 149
3 149 162 163
3 149 163 150
3 150 163 164
3 150 164 151
3 151 164 165
3 151 165 152
3 152 165 166
3 152 166 153
3 153 166 167
3 153 167 154
3 154 167 168
3 154 168 155
3 156 169 170
3 156 170 157
3 157 170 171
3 157 171 158
3 158 171 172
3 158 172 159
3 159 172 173
3 159 173 160
3 160 173 174
3 160 174 161
3 161 174 175
3 161 175 162
3 162 175 176
3 162 176 163
3 163 176 177
3 163 177 164
3 164 177 178
3 164 178 165
3 165 178 179
3 165 179 166
3 166 179 180
3 166 180 167
3 167 180 181
3 167 181 168
3 169 182 183
3 169 183 170
3 170 183 184
3 170 184 171
3 171 184 185
3 171 185 172
3 172 185 186
3 172 186 173
3 173 186 187
3 173 187 174
3 174 187 188
3 174 188 175
3 175 188 189
3 175 189 176
3 176 189 190
3 176 190 177
3 177 190 191
3 177 191 178
3 178 191 192
3 178 192 179
3 179 192 193
3 179 193 180
3 180 193 194
3 180 194 181
3 182 195 196
3 182 196 183
3 183 196 197
3 183 197 184
3 184 197 198
3 184 198 185
3 185 198 199
3 185 199 186
3 186 199 200
3 186 200 187
3 187 200 201
3 187 201 188
3 188 201 202
3 188 202 189
3 189 202 203
3 189 203 190
3 190 203 204
3 190 204 191
3 191 204 205
3 191 205 192
3 192 205 206
3 192 206 193
3 193 206 207
3 193 207 194
3 195 208 209
3 195 209 196
3 196 209 210
3 196 210 197
3 197 210 211
3 197 211 198
3 198 211 212
3 198 212 199
3 199 212 213
3 199 213 200
3 200 213 214
3 200 214 201
3 201 214 215
3 201 215 202
3 202 215 216
3 202 216 203
3 203 216 217
3 203 217 204
3 204 217 218
3 204 218 205
3 205 218 219
3 205 219 206
3 206 219 220
3 206 220 207
POINT_DATA 221
VECTORS velocity float
0.000000e+00 0.000000e+00 0.000000e+00
0.000000e+00 0.000000e+00 0.000000e+00
0.000000e+00 0.000000e+00 0.000000e+00
0.000000e+00 0.000000e+00 0.000000e+00
0.000000e+00 0.000000e+00 0.000000e+00
0.000000e+00 0.000000e+00 0.000000e+00
0.000000e+00 0.000000e+00 0.000000e+00
0.000000e+00 0.000000e+00 0.000000e+00
0.000000e+00 0.000000e+00 0.000000e+00
0.000000e+00 0.000000e+00 0.000000e+00
0.000000e+00 0.000000e+00 0.000000e+00
0.000000e+00 0.000000e+00 0.000000e+00
0.000000e+00 0.000000e+00 0.000000e+00
0.000000e+00 0.000000e+00 0.000000e+00
-6.215630e-04 2.367676e-03 1.624941e-02
1.545519e-03 4.646435e-03 4.404256e-02
6.510937e-03 5.459132e-03 4.352094e-02
7.990603e-03 -1.878277e-03 3.438278e-02
4.828065e-03 -7.418733e-03 3.333512e-02
7.730176e-03 -4.310519e-03 2.652077e-02
8.815829e-03 -5.810268e-03 2.577548e-02
3.724069e-03 -8.228781e-03 3.233800e-02
8.996275e-03 -2.576652e-03 4.607652e-02
1.110560e-02 -2.285153e-03 1.962582e-02
4.864712e-03 -5.424429e-03 1.430904e-02
0.000000e+00 0.000000e+00 0.000000e+00
0.000000e+00 0.000000e+00 0.000000e+00
4.350119e-03 4.521705e-03 1.825446e-02
7.857668e-03 8.366343e-03 6.279464e-02
1.582689e-02 1.122271e-02 8.768915e-02
2.009841e-02 4.478996e-03 6.174197e-02
2.120161e-02 -2.500489e-04 8.626283e-02
2.057918e-02 3.039488e-03 6.160745e-02
1.660485e-02 -2.254629e-03 5.922113e-02
1.156862e-02 -1.174493e-02 3.982267e-02
1.864785e-02 -1.423157e-02 3.163794e-02
2.320792e-02 -1.088702e-02 6.091139e-02
1.285470e-02 -8.908258e-03 3.488315e-02
0.000000e+00 0.000000e+00 0.000000e+00
0.000000e+00 0.000000e+00 0.000000e+00
1.388721e-02 9.545215e-03 1.059360e-02
1.840457e-02 1.093207e-02 3.408927e-02
2.476666e-02 1.359556e-02 1.030375e-01
2.596296e-02 1.002058e-02 6.918262e-02
2.404711e-02 5.385568e-03 7.776703e-02
2.034934e-02 4.513648e-03 1.098774e-01
1.647192e-02 1.539934e-03 6.619483e-02
1.851112e-02 -6.739540e-03 6.417977e-02
2.153961e-02 -1.193400e-02 5.962086e-02
1.987467e-02 -8.768731e-03 6.833860e-02
1.172753e-02 -5.347835e-03 5.103673e-02
0.000000e+00 0.000000e+00 0.000000e+00
0.000000e+00 0.000000e+00 0.000000e+00
1.749774e-02 1.093397e-02 -1.486638e-03
2.709188e-02 1.231773e-02 2.914591e-03
2.699995e-02 1.220033e-02 8.185988e-02
2.151881e-02 1.367164e-02 1.276488e-01
1.850224e-02 1.137319e-02 9.316867e-02
1.453201e-02 1.298544e-03 1.096323e-01
1.405585e-02 -7.239202e-03 1.349577e-01
1.448350e-02 -1.070580e-02 8.399642e-02
1.002646e-02 -1.205221e-02 9.584865e-02
5.099717e-03 -5.637101e-03 3.146276e-02
7.878004e-03 4.751333e-04 4.493841e-02
0.000000e+00 0.000000e+00 0.000000e+00
0.000000e+00 0.000000e+00 0.000000e+00
9.872334e-03 8.507353e-03 5.814084e-02
2.244718e-02 9.096643e-03 3.623487e-02
2.220276e-02 1.006919e-02 8.393740e-02
1.483187e-02 1.319206e-02 1.412886e-01
1.399734e-02 1.144898e-02 1.324651e-01
1.420923e-02 1.618773e-03 9.926881e-02
1.062341e-02 -8.053034e-03 1.264615e-01
7.036091e-03 -9.632659e-03 1.047347e-01
9.955970e-04 -1.133401e-02 1.053359e-01
4.568255e-04 -1.005860e-02 9.223051e-02
6.800285e-03 -8.319606e-04 1.749966e-02
0.000000e+00 0.000000e+00 0.000000e+00
0.000000e+00 0.000000e+00 0.000000e+00
3.304363e-04 6.121486e-03 1.690943e-01
1.495957e-02 7.991265e-03 1.264412e-01
2.042010e-02 6.868826e-03 5.772858e-02
1.931056e-02 1.115953e-02 1.378576e-01
2.115443e-02 9.101434e-03 1.645229e-01
2.344084e-02 5.536076e-03 1.120022e-01
2.076736e-02 5.916877e-03 1.577088e-01
1.638285e-02 5.292866e-03 1.900779e-01
1.122152e-02 2.758864e-03 8.941766e-02
3.502123e-03 -2.536990e-03 5.351380e-02
1.895417e-03 -8.520135e-04 -5.246300e-04
0.000000e+00 0.000000e+00 0.000000e+00
0.000000e+00 0.000000e+00 0.000000e+00
-6.099311e-03 1.077808e-02 2.274323e-01
1.116891e-02 1.655741e-02 2.770864e-01
2.505050e-02 1.180527e-02 1.046476e-01
2.932195e-02 1.278088e-02 5.733680e-02
3.146178e-02 1.654940e-02 1.869153e-01
2.873531e-02 1.875521e-02 1.937456e-01
2.638747e-02 2.153345e-02 1.663859e-01
2.311558e-02 1.572053e-02 2.378572e-01
2.155110e-02 1.427402e-02 1.771136e-01
1.229899e-02 1.105205e-02 5.070396e-02
5.777066e-03 6.827412e-04 3.120724e-02
0.000000e+00 0.000000e+00 0.000000e+00
0.000000e+00 0.000000e+00 0.000000e+00
-5.674442e-03 1.524259e-02 2.467217e-01
8.539888e-03 2.085506e-02 3.483622e-01
1.889776e-02 2.186320e-02 2.691837e-01
2.432826e-02 2.181280e-02 1.109091e-01
2.393590e-02 2.583939e-02 1.357752e-01
1.706521e-02 2.865348e-02 2.267014e-01
1.702103e-02 2.259022e-02 1.894990e-01
1.227717e-02 1.079075e-02 1.889883e-01
1.318730e-02 1.020697e-02 1.921908e-01
1.674453e-02 1.016526e-02 7.853089e-02
1.650539e-02 2.083012e-03 4.442085e-02
0.000000e+00 0.000000e+00 0.000000e+00
0.000000e+00 0.000000e+00 0.000000e+00
-6.404715e-04 1.141866e-02 2.443894e-01
2.972243e-03 1.984818e-02 4.024833e-01
3.743438e-03 2.291225e-02 4.015573e-01
9.572304e-03 2.339581e-02 2.929458e-01
1.017531e-02 2.513703e-02 1.952126e-01
3.604637e-03 2.249087e-02 2.454106e-01
2.097410e-03 8.404473e-03 2.479392e-01
-7.312285e-05 -2.567441e-03 2.013809e-01
3.595975e-03 -5.563924e-03 1.864461e-01
1.202879e-02 -5.500177e-03 9.823252e-02
1.429538e-02 -1.200909e-03 1.170723e-02
0.000000e+00 0.000000e+00 0.000000e+00
0.000000e+00 0.000000e+00 0.000000e+00
-4.817556e-03 4.758476e-03 1.599879e-01
-9.067014e-03 1.217935e-02 3.884023e-01
-7.603642e-03 1.730394e-02 4.983862e-01
-5.767625e-03 1.648069e-02 4.615328e-01
-6.809598e-03 1.529276e-02 3.067013e-01
-3.386294e-03 1.934582e-02 2.594144e-01
1.613832e-03 1.023321e-02 2.762010e-01
2.283266e-03 -1.777740e-03 2.410589e-01
3.145889e-03 -6.400463e-03 1.691687e-01
3.499558e-03 -4.076507e-03 1.262113e-01
4.268001e-03 1.325306e-03 6.171264e-02
0.000000e+00 0.000000e+00 0.000000e+00
0.000000e+00 0.000000e+00 0.000000e+00
-3.934929e-03 5.317045e-03 1.179103e-01
-1.461333e-02 6.696160e-03 2.936226e-01
-1.923876e-02 8.627535e-03 4.257692e-01
-2.276143e-02 8.858462e-03 4.717238e-01
-2.540106e-02 7.076554e-03 3.264524e-01
-1.769016e-02 1.392754e-02 1.815030e-01
-7.415005e-04 1.913215e-02 1.678542e-01
6.505094e-03 1.037673e-02 2.046660e-01
5.331984e-03 -1.742122e-03 1.527944e-01
1.251460e-03 -9.070060e-04 1.156871e-01
1.240330e-04 3.182177e-03 1.012937e-01
0.000000e+00 0.000000e+00 0.000000e+00
0.000000e+00 0.000000e+00 0.000000e+00
3.936194e-04 5.839760e-03 6.077289e-02
-1.667510e-02 9.378094e-03 2.040984e-01
-2.651960e-02 7.491882e-03 3.347625e-01
-2.979541e-02 4.071874e-03 4.101777e-01
-2.536214e-02 9.552237e-04 3.008370e-01
-1.762167e-02 4.034097e-03 1.369282e-01
-7.422355e-03 1.405468e-02 6.914864e-02
3.706396e-03 1.741638e-02 1.352528e-01
6.279544e-03 5.914721e-03 1.419952e-01
-4.478690e-04 -4.185054e-03 6.822399e-02
-4.320971e-03 -5.688551e-03 4.441271e-02
0.000000e+00 0.000000e+00 0.000000e+00
0.000000e+00 0.000000e+00 0.000000e+00
-1.126693e-03 3.391847e-03 -2.733380e-03
-1.662643e-02 6.720567e-03 1.107868e-01
-2.740218e-02 7.840499e-03 2.594023e-01
-2.818078e-02 8.685707e-03 3.907340e-01
-2.264458e-02 3.874379e-03 3.722337e-01
-1.879283e-02 6.100080e-04 2.159992e-01
-1.624460e-02 6.779154e-03 7.175801e-02
-5.066195e-03 1.645189e-02 4.681713e-02
2.893943e-03 1.460728e-02 9.138235e-02
-3.023091e-03 3.871588e-03 2.146016e-02
-9.504328e-03 -3.031125e-03 -3.257264e-02
0.000000e+00 0.000000e+00 0.000000e+00
0.000000e+00 0.000000e+00 0.000000e+00
1.232041e-03 4.070193e-03 -1.264641e-02
-1.070281e-02 7.943903e-03 2.812791e-02
-2.453463e-02 6.335086e-03 1.417860e-01
-2.657521e-02 4.531584e-03 2.813628e-01
-2.303255e-02 6.300523e-03 3.553840e-01
-2.249100e-02 -7.619369e-04 3.093978e-01
-1.889930e-02 -3.070403e-03 1.278924e-01
-6.527253e-03 4.965256e-03 2.318307e-03
5.673423e-03 8.335927e-03 4.841047e-02
1.864733e-03 2.458532e-03 4.365881e-02
-5.147940e-03 -2.881527e-04 -2.126175e-02
0.000000e+00 0.000000e+00 0.000000e+00
0.000000e+00 0.000000e+00 0.000000e+00
-2.436823e-03 8.178847e-03 4.740459e-03
-7.148544e-03 1.242893e-02 4.722602e-04
-8.910014e-03 3.265866e-03 1.644659e-02
-1.039171e-02 -4.761112e-03 9.998945e-02
-1.156078e-02 -3.458863e-04 2.010762e-01
-8.844847e-03 9.582079e-04 2.610363e-01
-3.736499e-03 -1.130837e-03 1.736605e-01
1.771542e-03 -7.250754e-04 2.005580e-02
1.044160e-02 3.933608e-03 2.472207e-02
7.185535e-03 3.476515e-03 8.297785e-02
4.119306e-04 1.420540e-03 5.691403e-02
0.000000e+00 0.000000e+00 0.000000e+00
0.000000e+00 0.000000e+00 0.000000e+00
0.000000e+00 0.000000e+00 0.000000e+00
0.000000e+00 0.000000e+00 0.000000e+00
0.000000e+00 0.000000e+00 0.000000e+00
0.000000e+00 0.000000e+00 0.000000e+00
0.000000e+00 0.000000e+00 0.000000e+00
0.000000e+00 0.000000e+00 0.000000e+00
0.000000e+00 0.000000e+00 0.000000e+00
0.000000e+00 0.000000e+00 0.000000e+00
0.000000e+00 0.000000e+00 0.000000e+00
0.000000e+00 0.000000e+00 0.000000e+00
0.000000e+00 0.000000e+00 0.000000e+00
0.000000e+00 0.000000e+00 0.000000e+00
