# vtk DataFile Version 3.0
tensile membrane
ASCII
DATASET POLYDATA
POINTS 221 float
2.000000e+00 7.500000e-01 1.250000e+00
2.000000e+00 8.750000e-01 1.250000e+00
2.000000e+00 1.000000e+00 1.250000e+00
2.000000e+00 1.125000e+00 1.250000e+00
2.000000e+00 1.250000e+00 1.250000e+00
2.000000e+00 1.375000e+00 1.250000e+00
2.000000e+00 1.500000e+00 1.250000e+00
2.000000e+00 1.625000e+00 1.250000e+00
2.000000e+00 1.750000e+00 1.250000e+00
2.000000e+00 1.875000e+00 1.250000e+00
2.000000e+00 2.000000e+00 1.250000e+00
2.000000e+00 2.125000e+00 1.250000e+00
2.000000e+00 2.250000e+00 1.250000e+00
2.154530e+00 7.885688e-01 1.255865e+00
2.135282e+00 8.958197e-01 1.252079e+00
2.128600e+00 1.012076e+00 1.249630e+00
2.125240e+00 1.131482e+00 1.248073e+00
2.123073e+00 1.252153e+00 1.247598e+00
2.121546e+00 1.373419e+00 1.247725e+00
2.120231e+00 1.494906e+00 1.247968e+00
2.118953e+00 1.616373e+00 1.247981e+00
2.117598e+00 1.737634e+00 1.248068e+00
2.116206e+00 1.858493e+00 1.248435e+00
2.114802e+00 1.978646e+00 1.249315e+00
2.113557e+00 2.097562e+00 1.250770e+00
2.113853e+00 2.214360e+00 1.251880e+00
2.293122e+00 8.073690e-01 1.262438e+00
2.272535e+00 9.145407e-01 1.256639e+00
2.260197e+00 1.025288e+00 1.251954e+00
2.253081e+00 1.139790e+00 1.248455e+00
2.248441e+00 1.256323e+00 1.246395e+00
2.245149e+00 1.373918e+00 1.245655e+00
2.242432e+00 1.492006e+00 1.245729e+00
2.239956e+00 1.610220e+00 1.245939e+00
2.237382e+00 1.728210e+00 1.246355e+00
2.234702e+00 1.845701e+00 1.247392e+00
2.232051e+00 1.962565e+00 1.249105e+00
2.229265e+00 2.078188e+00 1.251485e+00
2.227127e+00 2.192503e+00 1.253965e+00
2.426010e+00 8.195792e-01 1.268579e+00
2.406480e+00 9.273391e-01 1.261263e+00
2.392232e+00 1.036537e+00 1.254840e+00
2.382444e+00 1.147996e+00 1.249810e+00
2.375569e+00 1.261227e+00 1.246495e+00
2.370529e+00 1.375748e+00 1.244708e+00
2.366402e+00 1.490979e+00 1.244073e+00
2.362697e+00 1.606439e+00 1.244388e+00
2.358975e+00 1.721813e+00 1.245351e+00
2.355066e+00 1.836778e+00 1.247269e+00
2.350973e+00 1.951275e+00 1.250135e+00
2.346401e+00 2.064983e+00 1.253640e+00
2.341288e+00 2.178004e+00 1.257129e+00
2.556064e+00 8.280287e-01 1.274380e+00
2.537840e+00 9.362616e-01 1.265907e+00
2.523192e+00 1.045075e+00 1.258312e+00
2.512137e+00 1.155113e+00 1.252188e+00
2.503730e+00 1.266264e+00 1.247805e+00
2.497199e+00 1.378494e+00 1.245187e+00
2.491797e+00 1.491475e+00 1.243982e+00
2.486929e+00 1.604740e+00 1.244210e+00
2.482007e+00 1.717970e+00 1.245576e+00
2.476838e+00 1.831049e+00 1.248188e+00
2.471286e+00 1.943943e+00 1.252191e+00
2.464821e+00 2.056395e+00 1.257046e+00
2.457093e+00 2.168588e+00 1.261762e+00
2.684306e+00 8.340143e-01 1.279055e+00
2.667227e+00 9.426491e-01 1.269994e+00
2.652846e+00 1.051510e+00 1.261770e+00
2.641346e+00 1.160926e+00 1.254978e+00
2.632069e+00 1.270878e+00 1.249858e+00
2.624590e+00 1.381654e+00 1.246572e+00
2.618148e+00 1.492975e+00 1.245135e+00
2.612269e+00 1.604601e+00 1.245384e+00
2.606321e+00 1.716291e+00 1.247232e+00
2.599858e+00 1.827897e+00 1.250359e+00
2.592853e+00 1.939651e+00 1.254955e+00
2.584543e+00 2.051222e+00 1.260682e+00
2.574721e+00 2.162805e+00 1.266623e+00
2.811047e+00 8.382129e-01 1.283216e+00
2.795043e+00 9.472465e-01 1.273654e+00
2.781201e+00 1.056266e+00 1.265310e+00
2.769829e+00 1.165555e+00 1.258236e+00
2.760263e+00 1.274907e+00 1.252795e+00
2.752193e+00 1.384744e+00 1.249094e+00
2.745090e+00 1.495058e+00 1.247439e+00
2.738385e+00 1.605543e+00 1.247661e+00
2.731512e+00 1.716151e+00 1.249764e+00
2.724021e+00 1.826817e+00 1.253469e+00
2.715642e+00 1.937694e+00 1.258410e+00
2.705674e+00 2.048495e+00 1.264446e+00
2.694094e+00 2.159459e+00 1.271006e+00
2.936512e+00 8.410327e-01 1.286190e+00
2.921508e+00 9.504522e-01 1.276663e+00
2.908448e+00 1.059749e+00 1.268394e+00
2.897446e+00 1.169065e+00 1.261475e+00
2.888076e+00 1.278345e+00 1.256066e+00
2.879826e+00 1.387822e+00 1.252433e+00
2.872320e+00 1.497559e+00 1.250861e+00
2.865110e+00 1.607425e+00 1.251216e+00
2.857428e+00 1.717234e+00 1.253320e+00
2.849028e+00 1.827162e+00 1.257172e+00
2.839517e+00 1.937400e+00 1.262342e+00
2.828240e+00 2.047623e+00 1.268714e+00
2.815237e+00 2.158067e+00 1.275680e+00
3.060741e+00 8.425732e-01 1.287465e+00
3.046729e+00 9.523767e-01 1.278372e+00
3.034572e+00 1.062032e+00 1.270403e+00
3.024271e+00 1.171674e+00 1.263860e+00
3.015305e+00 1.281124e+00 1.258809e+00
3.007235e+00 1.390605e+00 1.255454e+00
2.999691e+00 1.500142e+00 1.254027e+00
2.992133e+00 1.609694e+00 1.254668e+00
2.984034e+00 1.719226e+00 1.257044e+00
2.974976e+00 1.828737e+00 1.261082e+00
2.964527e+00 1.938457e+00 1.266388e+00
2.952198e+00 2.048201e+00 1.272952e+00
2.937985e+00 2.158127e+00 1.280317e+00
3.183518e+00 8.426676e-01 1.286918e+00
3.170680e+00 9.530104e-01 1.278769e+00
3.159563e+00 1.063168e+00 1.271428e+00
3.150209e+00 1.173336e+00 1.265405e+00
3.141905e+00 1.283192e+00 1.260895e+00
3.134246e+00 1.392924e+00 1.258049e+00
3.127037e+00 1.502734e+00 1.256887e+00
3.119505e+00 1.612445e+00 1.257644e+00
3.111223e+00 1.721927e+00 1.260239e+00
3.101794e+00 1.831250e+00 1.264474e+00
3.090683e+00 1.940629e+00 1.269975e+00
3.077473e+00 2.050020e+00 1.276558e+00
3.062276e+00 2.159559e+00 1.284086e+00
3.304761e+00 8.411915e-01 1.284287e+00
3.293293e+00 9.521156e-01 1.277484e+00
3.283440e+00 1.062889e+00 1.271359e+00
3.275189e+00 1.173719e+00 1.266203e+00
3.267770e+00 1.284326e+00 1.262430e+00
3.260901e+00 1.394854e+00 1.260173e+00
3.254184e+00 1.505249e+00 1.259404e+00
3.247051e+00 1.615486e+00 1.260267e+00
3.238962e+00 1.725288e+00 1.262810e+00
3.229375e+00 1.834635e+00 1.267065e+00
3.217961e+00 1.943964e+00 1.272630e+00
3.204023e+00 2.053066e+00 1.279075e+00
3.187883e+00 2.162211e+00 1.286518e+00
3.424295e+00 8.376810e-01 1.279787e+00
3.414524e+00 9.492690e-01 1.274517e+00
3.406265e+00 1.060861e+00 1.269744e+00
3.399328e+00 1.172618e+00 1.265852e+00
3.392902e+00 1.284184e+00 1.262987e+00
3.386934e+00 1.395800e+00 1.261393e+00
3.381031e+00 1.507329e+00 1.260978e+00
3.374560e+00 1.618548e+00 1.261919e+00
3.367077e+00 1.729253e+00 1.264150e+00
3.357828e+00 1.839171e+00 1.268090e+00
3.346348e+00 1.948580e+00 1.273633e+00
3.331939e+00 2.057493e+00 1.280074e+00
3.314794e+00 2.166197e+00 1.287364e+00
3.542124e+00 8.317508e-01 1.273568e+00
3.534394e+00 9.439661e-01 1.270051e+00
3.527928e+00 1.056463e+00 1.266773e+00
3.522373e+00 1.169375e+00 1.264111e+00
3.517198e+00 1.282439e+00 1.262265e+00
3.512244e+00 1.395610e+00 1.261211e+00
3.507337e+00 1.508804e+00 1.261084e+00
3.501910e+00 1.621703e+00 1.262162e+00
3.495380e+00 1.733847e+00 1.264163e+00
3.487045e+00 1.844941e+00 1.267387e+00
3.476053e+00 1.954939e+00 1.272460e+00
3.461427e+00 2.063754e+00 1.278871e+00
3.443201e+00 2.172015e+00 1.286042e+00
3.658124e+00 8.222066e-01 1.266389e+00
3.652988e+00 9.352586e-01 1.264452e+00
3.648389e+00 1.049000e+00 1.262562e+00
3.644265e+00 1.163517e+00 1.261082e+00
3.640309e+00 1.278484e+00 1.260259e+00
3.636550e+00 1.393839e+00 1.259858e+00
3.632787e+00 1.509253e+00 1.259891e+00
3.628631e+00 1.624425e+00 1.260806e+00
3.623592e+00 1.738863e+00 1.262456e+00
3.616799e+00 1.852026e+00 1.265023e+00
3.607105e+00 1.963445e+00 1.269176e+00
3.592908e+00 2.072613e+00 1.274950e+00
3.573415e+00 2.180344e+00 1.281919e+00
3.772467e+00 8.075843e-01 1.259247e+00
3.770315e+00 9.219277e-01 1.258640e+00
3.767505e+00 1.037576e+00 1.257875e+00
3.764826e+00 1.154453e+00 1.257274e+00
3.762095e+00 1.271953e+00 1.257098e+00
3.759483e+00 1.389953e+00 1.257304e+00
3.756959e+00 1.508164e+00 1.257567e+00
3.754200e+00 1.626221e+00 1.258154e+00
3.750903e+00 1.743763e+00 1.259212e+00
3.746333e+00 1.860242e+00 1.260833e+00
3.739297e+00 1.974708e+00 1.263797e+00
3.727020e+00 2.085415e+00 1.268412e+00
3.706474e+00 2.192523e+00 1.274712e+00
3.885936e+00 7.856638e-01 1.253165e+00
3.886232e+00 9.024550e-01 1.253436e+00
3.884984e+00 1.021390e+00 1.253368e+00
3.883561e+00 1.141558e+00 1.253330e+00
3.882141e+00 1.262429e+00 1.253480e+00
3.880757e+00 1.383701e+00 1.253801e+00
3.879454e+00 1.505186e+00 1.254129e+00
3.878108e+00 1.626674e+00 1.254441e+00
3.876562e+00 1.747924e+00 1.254890e+00
3.874421e+00 1.868563e+00 1.255547e+00
3.871107e+00 1.987933e+00 1.256882e+00
3.864475e+00 2.104157e+00 1.259412e+00
3.845258e+00 2.211343e+00 1.264585e+00
4.000000e+00 7.500000e-01 1.250000e+00
4.000000e+00 8.750000e-01 1.250000e+00
4.000000e+00 1.000000e+00 1.250000e+00
4.000000e+00 1.125000e+00 1.250000e+00
4.000000e+00 1.250000e+00 1.250000e+00
4.000000e+00 1.375000e+00 1.250000e+00
4.000000e+00 1.500000e+00 1.250000e+00
4.000000e+00 1.625000e+00 1.250000e+00
4.000000e+00 1.750000e+00 1.250000e+00
4.000000e+00 1.875000e+00 1.250000e+00
4.000000e+00 2.000000e+00 1.250000e+00
4.000000e+00 2.125000e+00 1.250000e+00
4.000000e+00 2.250000e+00 1.250000e+00
POLYGONS 384 1536
3 0 13 14
3 0 14 1
3 1 14 15
3 1 15 2
3 2 15 16
3 2 16 3
3 3 16 17
3 3 17 4
3 4 17 18
3 4 18 5
3 5 18 19
3 5 19 6
3 6 19 20
3 6 20 7
3 7 20 21
3 7 21 8
3 8 21 22
3 8 22 9
3 9 22 23
3 9 23 10
3 10 23 24
3 10 24 11
3 11 24 25
3 11 25 12
3 13 26 27
3 13 27 14
3 14 27 28
3 14 28 15
3 15 28 29
3 15 29 16
3 16 29 30
3 16 30 17
3 17 30 31
3 17 31 18
3 18 31 32
3 18 32 19
3 19 32 33
3 19 33 20
3 20 33 34
3 20 34 21
3 21 34 35
3 21 35 22
3 22 35 36
3 22 36 23
3 23 36 37
3 23 37 24
3 24 37 38
3 24 38 25
3 26 39 40
3 26 40 27
3 27 40 41
3 27 41 28
3 28 41 42
3 28 42 29
3 29 42 43
3 29 43 30
3 30 43 44
3 30 44 31
3 31 44 45
3 31 45 32
3 32 45 46
3 32 46 33
3 33 46 47
3 33 47 34
3 34 47 48
3 34 48 35
3 35 48 49
3 35 49 36
3 36 49 50
3 36 50 37
3 37 50 51
3 37 51 38
3 39 52 53
3 39 53 40
3 40 53 54
3 40 54 41
3 41 54 55
3 41 55 42
3 42 55 56
3 42 56 43
3 43 56 57
3 43 57 44
3 44 57 58
3 44 58 45
3 45 58 59
3 45 59 46
3 46 59 60
3 46 60 47
3 47 60 61
3 47 61 48
3 48 61 62
3 48 62 49
3 49 62 63
3 49 63 50
3 50 63 64
3 50 64 51
3 52 65 66
3 52 66 53
3 53 66 67
3 53 67 54
3 54 67 68
3 54 68 55
3 55 68 69
3 55 69 56
3 56 69 70
3 56 70 57
3 57 70 71
3 57 71 58
3 58 71 72
3 58 72 59
3 59 72 73
3 59 73 60
3 60 73 74
3 60 74 61
3 61 74 75
3 61 75 62
3 62 75 76
3 62 76 63
3 63 76 77
3 63 77 64
3 65 78 79
3 65 79 66
3 66 79 80
3 66 80 67
3 67 80 81
3 67 81 68
3 68 81 82
3 68 82 69
3 69 82 83
3 69 83 70
3 70 83 84
3 70 84 71
3 71 84 85
3 71 85 72
3 72 85 86
3 72 86 73
3 73 86 87
3 73 87 74
3 74 87 88
3 74 88 75
3 75 88 89
3 75 89 76
3 76 89 90
3 76 90 77
3 78 91 92
3 78 92 79
3 79 92 93
3 79 93 80
3 80 93 94
3 80 94 81
3 81 94 95
3 81 95 82
3 82 95 96
3 82 96 83
3 83 96 97
3 83 97 84
3 84 97 98
3 84 98 85
3 85 98 99
3 85 99 86
3 86 99 100
3 86 100 87
3 87 100 101
3 87 101 88
3 88 101 102
3 88 102 89
3 89 102 103
3 89 103 90
3 91 104 105
3 91 105 92
3 92 105 106
3 92 106 93
3 93 106 107
3 93 107 94
3 94 107 108
3 94 108 95
3 95 108 109
3 95 109 96
3 96 109 110
3 96 110 97
3 97 110 111
3 97 111 98
3 98 111 112
3 98 112 99
3 99 112 113
3 99 113 100
3 100 113 114
3 100 114 101
3 101 114 115
3 101 115 102
3 102 115 116
3 102 116 103
3 104 117 118
3 104 118 105
3 105 118 119
3 105 119 106
3 106 119 120
3 106 120 107
3 107 120 121
3 107 121 108
3 108 121 122
3 108 122 109
3 109 122 123
3 109 123 110
3 110 123 124
3 110 124 111
3 111 124 125
3 111 125 112
3 112 125 126
3 112 126 113
3 113 126 127
3 113 127 114
3 114 127 128
3 114 128 115
3 115 128 129
3 115 129 116
3 117 130 131
3 117 131 118
3 118 131 132
3 118 132 119
3 119 132 133
3 119 133 120
3 120 133 134
3 120 134 121
3 121 134 135
3 121 135 122
3 122 135 136
3 122 136 123
3 123 136 137
3 123 137 124
3 124 137 138
3 124 138 125
3 125 138 139
3 125 139 126
3 126 139 140
3 126 140 127
3 127 140 141
3 127 141 128
3 128 141 142
3 128 142 129
3 130 143 144
3 130 144 131
3 131 144 145
3 131 145 132
3 132 145 146
3 132 146 133
3 133 146 147
3 133 147 134
3 134 147 148
3 134 148 135
3 135 148 149
3 135 149 136
3 136 149 150
3 136 150 137
3 137 150 151
3 137 151 138
3 138 151 152
3 138 152 139
3 139 152 153
3 139 153 140
3 140 153 154
3 140 154 141
3 141 154 155
3 141 155 142
3 143 156 157
3 143 157 144
3 144 157 158
3 144 158 145
3 145 158 159
3 145 159 146
3 146 159 160
3 146 160 147
3 147 160 161
3 147 161 148
3 148 161 162
3 148 162 149
3 149 162 163
3 149 163 150
3 150 163 164
3 150 164 151
3 151 164 165
3 151 165 152
3 152 165 166
3 152 166 153
3 153 166 167
3 153 167 154
3 154 167 168
3 154 168 155
3 156 169 170
3 156 170 157
3 157 170 171
3 157 171 158
3 158 171 172
3 158 172 159
3 159 172 173
3 159 173 160
3 160 173 174
3 160 174 161
3 161 174 175
3 161 175 162
3 162 175 176
3 162 176 163
3 163 176 177
3 163 177 164
3 164 177 178
3 164 178 165
3 165 178 179
3 165 179 166
3 166 179 180
3 166 180 167
3 167 180 181
3 167 181 168
3 169 182 183
3 169 183 170
3 170 183 184
3 170 184 171
3 171 184 185
3 171 185 172
3 172 185 186
3 172 186 173
3 173 186 187
3 173 187 174
3 174 187 188
3 174 188 175
3 175 188 189
3 175 189 176
3 176 189 190
3 176 190 177
3 177 190 191
3 177 191 178
3 178 191 192
3 178 192 179
3 179 192 193
3 179 193 180
3 180 193 194
3 180 194 181
3 182 195 196
3 182 196 183
3 183 196 197
3 183 197 184
3 184 197 198
3 184 198 185
3 185 198 199
3 185 199 186
3 186 199 200
3 186 200 187
3 187 200 201
3 187 201 188
3 188 201 202
3 188 202 189
3 189 202 203
3 189 203 190
3 190 203 204
3 190 204 191
3 191 204 205
3 191 205 192
3 192 205 206
3 192 206 193
3 193 206 207
3 193 207 194
3 195 208 209
3 195 209 196
3 196 209 210
3 196 210 197
3 197 210 211
3 197 211 198
3 198 211 212
3 198 212 199
3 199 212 213
3 199 213 200
3 200 213 214
3 200 214 201
3 201 214 215
3 201 215 202
3 202 215 216
3 202 216 203
3 203 216 217
3 203 217 204
3 204 217 218
3 204 218 205
3 205 218 219
3 205 219 206
3 206 219 220
3 206 220 207
POINT_DATA 221
VECTORS velocity float
0.000000e+00 0.000000e+00 0.000000e+00
0.000000e+00 0.000000e+00 0.000000e+00
0.000000e+00 0.000000e+00 0.000000e+00
0.000000e+00 0.000000e+00 0.000000e+00
0.000000e+00 0.000000e+00 0.000000e+00
0.000000e+00 0.000000e+00 0.000000e+00
0.000000e+00 0.000000e+00 0.000000e+00
0.000000e+00 0.000000e+00 0.000000e+00
0.000000e+00 0.000000e+00 0.000000e+00
0.000000e+00 0.000000e+00 0.000000e+00
0.000000e+00 0.000000e+00 0.000000e+00
0.000000e+00 0.000000e+00 0.000000e+00
0.000000e+00 0.000000e+00 0.000000e+00
2.431916e-02 1.199251e-03 8.583917e-02
-2.075238e-02 -4.049279e-03 7.399199e-02
-2.464168e-02 1.688300e-02 6.286417e-02
5.379795e-03 6.876569e-03 4.387300e-02
-6.665359e-03 -5.468024e-03 2.546042e-02
-6.117989e-03 1.408093e-02 8.675824e-03
1.322934e-02 2.165906e-02 1.090787e-02
2.875803e-02 2.711405e-02 1.045240e-02
-5.413963e-03 8.849417e-03 6.094630e-03
1.800355e-02 1.045975e-02 8.908895e-03
2.472841e-02 1.567305e-02 5.349855e-02
3.606309e-02 1.171317e-02 1.289768e-01
1.422423e-03 -1.292498e-02 1.415027e-01
3.652111e-02 2.522360e-02 9.461449e-02
-5.685308e-03 1.079977e-02 1.132771e-01
-2.350004e-02 1.113517e-02 1.244178e-01
2.942941e-02 1.134977e-02 1.004618e-01
1.126162e-02 1.360414e-02 7.166209e-02
-1.131785e-02 3.672541e-02 4.221781e-02
9.898891e-03 3.667502e-02 2.521150e-02
2.266101e-02 4.469946e-02 4.205527e-02
-4.204216e-03 4.328659e-02 5.325146e-02
3.457136e-02 4.737846e-02 5.218624e-02
1.081259e-02 1.561621e-02 7.141948e-02
1.839632e-02 9.865996e-03 1.318748e-01
1.102096e-02 1.306442e-02 1.775160e-01
1.546477e-02 -1.013002e-03 7.623034e-02
1.363549e-02 1.220694e-02 8.349273e-02
-1.752807e-03 2.994086e-02 1.071323e-01
2.991905e-02 1.742586e-02 1.072783e-01
1.464677e-02 1.572268e-02 8.272621e-02
-2.279031e-02 4.208539e-02 7.825828e-02
1.356670e-02 5.619987e-02 6.637657e-02
-6.945960e-03 4.392171e-02 7.249073e-02
4.221614e-03 5.515430e-02 8.634853e-02
3.511728e-02 4.193100e-02 8.870032e-02
2.463288e-02 1.753200e-02 9.719203e-02
4.436640e-03 1.723373e-02 1.158688e-01
1.364075e-02 2.848861e-02 1.376133e-01
-1.316501e-02 5.173792e-03 7.587344e-02
4.941433e-03 3.642104e-02 7.610201e-02
-3.592897e-04 5.757263e-02 7.624697e-02
-7.815070e-03 -5.642090e-03 9.806244e-02
2.808312e-03 8.331311e-03 1.020757e-01
-2.353013e-02 3.736075e-02 1.102216e-01
2.870467e-02 5.263960e-02 1.152118e-01
-4.742716e-03 2.030196e-02 1.004727e-01
3.350965e-02 4.546845e-02 9.467312e-02
4.051729e-02 2.193315e-02 8.259236e-02
2.426101e-02 -1.459337e-02 8.349946e-02
6.233775e-03 3.655782e-02 1.094794e-01
5.590908e-02 9.130801e-02 1.245696e-01
7.644139e-04 2.935183e-03 9.067113e-02
-1.084042e-02 2.461626e-02 1.051949e-01
3.316441e-03 8.264129e-02 1.325828e-01
-1.524290e-02 3.191812e-03 1.505386e-01
-1.321148e-02 5.408625e-03 1.528687e-01
-9.095284e-03 3.114882e-02 1.428541e-01
2.900901e-02 2.748934e-02 1.459422e-01
1.689267e-02 3.655637e-03 1.141319e-01
3.707271e-02 4.171976e-02 9.448312e-02
4.791008e-02 4.833910e-02 9.931256e-02
4.824764e-02 4.936274e-05 8.192243e-02
7.403266e-03 1.373640e-02 9.410053e-02
3.661849e-02 4.759169e-02 1.141239e-01
3.954564e-02 2.210062e-02 1.038121e-01
1.225193e-02 3.116949e-02 1.118893e-01
-2.239302e-02 5.869268e-02 1.455866e-01
-9.231398e-03 -8.736724e-03 1.735356e-01
4.194430e-03 -1.844038e-03 1.684800e-01
5.349068e-03 2.108198e-02 1.653957e-01
6.112918e-03 1.960030e-02 1.717798e-01
3.745908e-02 1.965170e-02 1.564778e-01
3.025656e-02 4.876614e-02 1.115678e-01
3.230526e-02 3.763260e-02 9.377706e-02
2.728924e-02 -4.142391e-02 6.873744e-02
1.646915e-02 1.823379e-02 6.678983e-02
-6.163222e-03 3.895051e-02 8.751999e-02
1.467186e-02 -2.979932e-02 9.898821e-02
2.639973e-02 2.983988e-02 1.012467e-01
-2.019342e-02 7.308376e-02 1.012904e-01
-1.933685e-02 -2.252700e-02 1.247515e-01
1.303044e-02 -1.142214e-05 1.218843e-01
1.082944e-02 3.914026e-02 1.281197e-01
-8.945975e-03 8.246676e-03 1.432070e-01
3.900505e-02 -7.239638e-03 1.612014e-01
1.634498e-02 2.275220e-02 1.358803e-01
2.295637e-02 3.829505e-02 9.815987e-02
5.389283e-03 -5.486320e-02 5.049358e-02
5.826307e-03 1.721856e-02 2.628400e-02
-2.620070e-02 4.220445e-02 3.681085e-02
2.279430e-02 -3.795470e-02 6.783962e-02
1.151821e-02 7.255047e-04 7.861002e-02
7.161460e-03 7.268942e-02 6.856746e-02
-1.164526e-02 -4.639539e-02 7.535178e-02
-4.796378e-03 -3.846670e-02 7.175093e-02
-2.385904e-02 5.444423e-03 8.600591e-02
3.880259e-03 -2.607084e-03 9.515083e-02
3.261515e-02 -1.196369e-02 1.115668e-01
1.711059e-02 2.976581e-02 1.186119e-01
2.532253e-02 3.829247e-02 1.108188e-01
4.599102e-03 -7.748012e-02 8.535588e-02
6.191761e-04 -4.057658e-04 4.459968e-02
-1.401063e-02 4.000632e-02 2.091484e-02
3.948447e-02 -4.806077e-02 3.282623e-02
1.023964e-02 -2.219447e-02 5.031467e-02
1.200104e-02 4.853169e-02 5.403539e-02
-4.462753e-03 -4.695483e-02 4.547521e-02
-1.000809e-03 -3.063667e-02 2.562039e-02
-2.935416e-02 1.953888e-03 3.402837e-02
2.041692e-02 -1.090901e-02 6.371097e-02
3.131314e-04 -4.406520e-02 7.666672e-02
-1.007818e-04 -4.092867e-03 9.296210e-02
3.136306e-02 2.000555e-02 1.004689e-01
3.119675e-02 -7.287751e-02 1.071821e-01
-1.441047e-02 -2.479677e-02 8.366854e-02
-7.386019e-03 3.656270e-02 5.615803e-02
2.102168e-02 -5.245669e-02 1.951945e-02
4.255707e-03 -2.700384e-02 2.238275e-02
-7.454491e-03 3.391221e-02 2.793949e-02
-1.452498e-02 -4.498958e-02 2.441025e-02
-1.611163e-02 -5.410247e-02 -6.420476e-03
-2.417612e-02 -2.298757e-02 -1.143046e-02
1.251719e-02 -2.094774e-02 2.232510e-02
1.282490e-02 -2.522352e-02 4.148014e-02
1.209985e-02 -6.949919e-04 6.361611e-02
2.416268e-02 9.159411e-03 7.540984e-02
3.595972e-02 -5.717504e-02 9.399548e-02
-6.876945e-04 -2.732789e-02 9.878920e-02
-2.884538e-02 -1.400160e-02 7.915766e-02
-2.794765e-02 -6.617171e-02 3.730667e-02
7.270562e-03 -2.497938e-02 3.456854e-02
-3.221782e-02 -3.088975e-03 2.856842e-02
-3.408626e-02 -4.805175e-02 2.487668e-02
-2.687339e-02 -4.167864e-02 -1.494495e-02
-2.355207e-03 -5.482428e-03 -3.039675e-02
-9.256621e-03 -3.316808e-02 -3.834396e-03
3.063143e-02 -3.829857e-02 2.229858e-02
2.702556e-02 -1.360376e-02 5.546542e-02
2.681820e-02 -8.292939e-03 6.706495e-02
8.922040e-03 -8.457268e-02 7.735669e-02
2.082995e-02 -2.541084e-02 1.026987e-01
1.041244e-02 -1.326971e-03 9.770578e-02
-4.637411e-02 -1.054576e-01 3.254600e-02
2.709184e-03 -4.877005e-02 3.270777e-02
-1.465291e-02 1.021302e-02 3.045228e-02
-3.217468e-02 -2.227701e-02 2.614597e-02
-2.177644e-02 -4.448792e-02 -2.755651e-03
1.899147e-02 -2.171732e-02 -2.692956e-02
-8.527034e-03 -5.598672e-02 -1.262356e-02
4.556925e-02 -4.239463e-02 6.158722e-03
1.020532e-02 -1.639897e-02 4.578771e-02
1.455688e-02 -4.131282e-03 7.563796e-02
8.083994e-03 -6.474779e-02 8.030679e-02
6.740457e-03 -3.971941e-02 1.017784e-01
2.729808e-02 -6.404129e-03 1.104260e-01
2.117113e-03 -4.304522e-02 3.515241e-02
6.058172e-03 -3.129569e-02 4.000858e-02
-1.932718e-02 -2.712539e-02 4.678664e-02
-3.085715e-02 -4.740470e-02 4.072118e-02
6.720844e-03 -5.705583e-02 1.448496e-02
1.893579e-02 -4.580247e-02 -2.672620e-03
5.876778e-03 -5.881177e-02 -1.549212e-03
4.465394e-02 -4.730167e-02 3.277068e-03
1.090976e-03 -2.235583e-02 3.806314e-02
-2.021560e-02 -2.367905e-02 7.508214e-02
1.119104e-02 -3.464110e-02 9.097247e-02
1.435981e-03 -1.425130e-02 9.542764e-02
6.076063e-04 3.521690e-04 1.108253e-01
6.267164e-03 -2.427616e-02 2.767462e-02
-6.756853e-03 -2.040677e-02 2.531234e-02
-8.059501e-03 -2.384531e-02 3.703220e-02
-3.578887e-02 -5.304833e-02 4.688943e-02
7.555181e-03 -4.717806e-02 3.069975e-02
-1.467138e-02 -4.748560e-02 6.922696e-03
5.657485e-03 -4.061107e-02 -4.805037e-03
2.968231e-02 -4.143870e-02 3.131887e-04
4.809948e-03 -1.835641e-02 1.095196e-02
-2.008028e-02 -1.693394e-02 4.181171e-02
2.993362e-02 -1.519177e-02 5.921338e-02
1.549982e-02 -8.526849e-03 7.538603e-02
-2.584890e-02 -1.884386e-02 9.019667e-02
8.394088e-03 7.596912e-03 1.528601e-02
-2.839040e-02 -1.458350e-02 1.636715e-02
-2.287145e-02 -1.769333e-02 1.961139e-02
-2.160719e-02 -1.300605e-02 2.767955e-02
2.174009e-03 -1.315615e-02 2.613534e-02
-2.626932e-02 -3.071428e-02 1.724552e-02
-2.277300e-03 -2.467106e-02 8.711870e-04
1.562352e-02 -1.977507e-02 1.055098e-02
1.446218e-02 6.135462e-04 1.188181e-02
-6.286973e-07 -9.612766e-03 2.099955e-02
2.654231e-02 -1.965664e-02 3.086460e-02
2.365976e-02 3.331008e-03 4.410892e-02
-2.126378e-02 -4.356440e-04 6.322023e-02
0.000000e+00 0.000000e+00 0.000000e+00
0.000000e+00 0.000000e+00 0.000000e+00
0.000000e+00 0.000000e+00 0.000000e+00
0.000000e+00 0.000000e+00 0.000000e+00
0.000000e+00 0.000000e+00 0.000000e+00
0.000000e+00 0.000000e+00 0.000000e+00
0.000000e+00 0.000000e+00 0.000000e+00
0.000000e+00 0.000000e+00 0.000000e+00
0.000000e+00 0.000000e+00 0.000000e+00
0.000000e+00 0.000000e+00 0.000000e+00
0.000000e+00 0.000000e+00 0.000000e+00
0.000000e+00 0.000000e+00 0.000000e+00
0.000000e+00 0.000000e+00 0.000000e+00
