# vtk DataFile Version 3.0
tensile membrane
ASCII
DATASET POLYDATA
POINTS 221 float
2.000000e+00 7.500000e-01 1.250000e+00
2.000000e+00 8.750000e-01 1.250000e+00
2.000000e+00 1.000000e+00 1.250000e+00
2.000000e+00 1.125000e+00 1.250000e+00
2.000000e+00 1.250000e+00 1.250000e+00
2.000000e+00 1.375000e+00 1.250000e+00
2.000000e+00 1.500000e+00 1.250000e+00
2.000000e+00 1.625000e+00 1.250000e+00
2.000000e+00 1.750000e+00 1.250000e+00
2.000000e+00 1.875000e+00 1.250000e+00
2.000000e+00 2.000000e+00 1.250000e+00
2.000000e+00 2.125000e+00 1.250000e+00
2.000000e+00 2.250000e+00 1.250000e+00
2.125000e+00 7.500000e-01 1.250000e+00
2.124753e+00 8.748058e-01 1.237760e+00
2.124569e+00 9.997861e-01 1.232723e+00
2.124448e+00 1.124820e+00 1.230284e+00
2.124350e+00 1.249851e+00 1.229309e+00
2.124284e+00 1.374879e+00 1.229168e+00
2.124305e+00 1.499933e+00 1.229823e+00
2.124356e+00 1.624975e+00 1.230962e+00
2.124438e+00 1.750018e+00 1.232606e+00
2.124573e+00 1.875073e+00 1.235118e+00
2.124739e+00 2.000112e+00 1.238446e+00
2.124872e+00 2.125086e+00 1.243295e+00
2.125000e+00 2.250000e+00 1.250000e+00
2.250000e+00 7.500000e-01 1.250000e+00
2.249665e+00 8.746134e-01 1.231998e+00
2.249351e+00 9.995101e-01 1.221528e+00
2.249126e+00 1.124568e+00 1.215697e+00
2.248942e+00 1.249676e+00 1.212717e+00
2.248796e+00 1.374763e+00 1.211725e+00
2.248786e+00 1.499875e+00 1.212548e+00
2.248882e+00 1.624982e+00 1.214817e+00
2.249032e+00 1.750069e+00 1.218057e+00
2.249249e+00 1.875162e+00 1.222656e+00
2.249525e+00 2.000224e+00 1.229103e+00
2.249768e+00 2.125178e+00 1.238001e+00
2.250000e+00 2.250000e+00 1.250000e+00
2.375000e+00 7.500000e-01 1.250000e+00
2.374674e+00 8.745031e-01 1.230358e+00
2.374338e+00 9.993167e-01 1.216611e+00
2.374083e+00 1.124377e+00 1.207905e+00
2.373861e+00 1.249529e+00 1.202824e+00
2.373688e+00 1.374677e+00 1.200474e+00
2.373612e+00 1.499823e+00 1.200732e+00
2.373687e+00 1.624973e+00 1.203413e+00
2.373874e+00 1.750115e+00 1.207963e+00
2.374115e+00 1.875252e+00 1.214232e+00
2.374407e+00 2.000337e+00 1.222724e+00
2.374702e+00 2.125265e+00 1.234550e+00
2.375000e+00 2.250000e+00 1.250000e+00
2.500000e+00 7.500000e-01 1.250000e+00
2.499734e+00 8.745151e-01 1.231204e+00
2.499440e+00 9.992808e-01 1.216406e+00
2.499195e+00 1.124285e+00 1.205902e+00
2.498974e+00 1.249410e+00 1.199096e+00
2.498808e+00 1.374588e+00 1.195375e+00
2.498711e+00 1.499777e+00 1.194879e+00
2.498736e+00 1.624944e+00 1.197516e+00
2.498887e+00 1.750100e+00 1.202759e+00
2.499108e+00 1.875230e+00 1.210428e+00
2.499365e+00 2.000321e+00 1.220226e+00
2.499672e+00 2.125282e+00 1.233141e+00
2.500000e+00 2.250000e+00 1.250000e+00
2.625000e+00 7.500000e-01 1.250000e+00
2.624792e+00 8.746290e-01 1.233199e+00
2.624555e+00 9.994024e-01 1.218719e+00
2.624350e+00 1.124352e+00 1.207369e+00
2.624155e+00 1.249410e+00 1.199390e+00
2.623992e+00 1.374552e+00 1.194546e+00
2.623877e+00 1.499740e+00 1.193237e+00
2.623864e+00 1.624926e+00 1.195541e+00
2.623960e+00 1.750094e+00 1.200784e+00
2.624131e+00 1.875215e+00 1.208872e+00
2.624358e+00 2.000255e+00 1.219804e+00
2.624658e+00 2.125212e+00 1.233353e+00
2.625000e+00 2.250000e+00 1.250000e+00
2.750000e+00 7.500000e-01 1.250000e+00
2.749825e+00 8.748118e-01 1.235920e+00
2.749653e+00 9.996638e-01 1.222860e+00
2.749508e+00 1.124591e+00 1.211889e+00
2.749368e+00 1.249587e+00 1.203592e+00
2.749218e+00 1.374650e+00 1.198176e+00
2.749096e+00 1.499782e+00 1.196188e+00
2.749044e+00 1.624918e+00 1.197854e+00
2.749085e+00 1.750058e+00 1.202281e+00
2.749183e+00 1.875179e+00 1.209339e+00
2.749371e+00 2.000216e+00 1.219883e+00
2.749648e+00 2.125165e+00 1.233586e+00
2.750000e+00 2.250000e+00 1.250000e+00
2.875000e+00 7.500000e-01 1.250000e+00
2.874833e+00 8.750014e-01 1.238896e+00
2.874708e+00 9.999604e-01 1.227936e+00
2.874611e+00 1.124892e+00 1.218381e+00
2.874532e+00 1.249823e+00 1.210731e+00
2.874417e+00 1.374779e+00 1.205346e+00
2.874301e+00 1.499792e+00 1.203123e+00
2.874236e+00 1.624827e+00 1.204403e+00
2.874240e+00 1.749905e+00 1.208107e+00
2.874289e+00 1.875038e+00 1.213559e+00
2.874431e+00 2.000128e+00 1.222355e+00
2.874660e+00 2.125124e+00 1.234586e+00
2.875000e+00 2.250000e+00 1.250000e+00
3.000000e+00 7.500000e-01 1.250000e+00
2.999845e+00 8.751584e-01 1.241467e+00
2.999757e+00 1.000223e+00 1.232943e+00
2.999688e+00 1.125177e+00 1.225191e+00
2.999619e+00 1.250059e+00 1.218645e+00
2.999515e+00 1.374912e+00 1.213664e+00
2.999398e+00 1.499791e+00 1.211443e+00
2.999333e+00 1.624718e+00 1.212556e+00
2.999334e+00 1.749698e+00 1.216119e+00
2.999379e+00 1.874788e+00 1.220506e+00
2.999501e+00 1.999925e+00 1.227293e+00
2.999693e+00 2.125030e+00 1.237010e+00
3.000000e+00 2.250000e+00 1.250000e+00
3.125000e+00 7.500000e-01 1.250000e+00
3.124855e+00 8.752259e-01 1.243509e+00
3.124800e+00 1.000385e+00 1.237030e+00
3.124743e+00 1.125407e+00 1.230995e+00
3.124660e+00 1.250273e+00 1.225411e+00
3.124555e+00 1.375059e+00 1.220970e+00
3.124423e+00 1.499837e+00 1.218916e+00
3.124342e+00 1.624651e+00 1.219911e+00
3.124342e+00 1.749523e+00 1.223376e+00
3.124409e+00 1.874537e+00 1.227396e+00
3.124534e+00 1.999700e+00 1.232602e+00
3.124714e+00 2.124895e+00 1.240017e+00
3.125000e+00 2.250000e+00 1.250000e+00
3.250000e+00 7.500000e-01 1.250000e+00
3.249870e+00 8.752481e-01 1.245262e+00
3.249782e+00 1.000450e+00 1.240466e+00
3.249718e+00 1.125539e+00 1.235738e+00
3.249639e+00 1.250418e+00 1.230865e+00
3.249562e+00 1.375186e+00 1.226892e+00
3.249443e+00 1.499920e+00 1.225055e+00
3.249348e+00 1.624670e+00 1.225785e+00
3.249329e+00 1.749456e+00 1.228991e+00
3.249408e+00 1.874393e+00 1.233007e+00
3.249548e+00 1.999548e+00 1.237018e+00
3.249741e+00 2.124780e+00 1.242632e+00
3.250000e+00 2.250000e+00 1.250000e+00
3.375000e+00 7.500000e-01 1.250000e+00
3.374861e+00 8.752629e-01 1.246635e+00
3.374713e+00 1.000466e+00 1.243263e+00
3.374613e+00 1.125544e+00 1.239644e+00
3.374584e+00 1.250443e+00 1.235307e+00
3.374554e+00 1.375239e+00 1.231682e+00
3.374455e+00 1.499987e+00 1.229925e+00
3.374359e+00 1.624723e+00 1.230448e+00
3.374341e+00 1.749506e+00 1.233156e+00
3.374427e+00 1.874415e+00 1.237114e+00
3.374587e+00 1.999528e+00 1.240530e+00
3.374796e+00 2.124759e+00 1.244581e+00
3.375000e+00 2.250000e+00 1.250000e+00
3.500000e+00 7.500000e-01 1.250000e+00
3.499843e+00 8.752329e-01 1.247575e+00
3.499666e+00 1.000402e+00 1.245157e+00
3.499529e+00 1.125448e+00 1.242512e+00
3.499530e+00 1.250352e+00 1.238722e+00
3.499559e+00 1.375202e+00 1.235546e+00
3.499531e+00 1.500005e+00 1.233845e+00
3.499464e+00 1.624777e+00 1.234047e+00
3.499420e+00 1.749592e+00 1.236235e+00
3.499493e+00 1.874517e+00 1.239761e+00
3.499656e+00 1.999591e+00 1.242937e+00
3.499848e+00 2.124780e+00 1.246066e+00
3.500000e+00 2.250000e+00 1.250000e+00
3.625000e+00 7.500000e-01 1.250000e+00
3.624844e+00 8.751770e-01 1.248319e+00
3.624691e+00 1.000281e+00 1.246346e+00
3.624580e+00 1.125288e+00 1.244270e+00
3.624595e+00 1.250209e+00 1.241347e+00
3.624648e+00 1.375130e+00 1.238749e+00
3.624668e+00 1.500006e+00 1.237340e+00
3.624655e+00 1.624851e+00 1.237251e+00
3.624598e+00 1.749716e+00 1.238756e+00
3.624627e+00 1.874646e+00 1.241607e+00
3.624751e+00 1.999685e+00 1.244364e+00
3.624895e+00 2.124823e+00 1.246934e+00
3.625000e+00 2.250000e+00 1.250000e+00
3.750000e+00 7.500000e-01 1.250000e+00
3.749860e+00 8.751382e-01 1.248915e+00
3.749748e+00 1.000211e+00 1.247609e+00
3.749705e+00 1.125182e+00 1.246026e+00
3.749763e+00 1.250091e+00 1.243863e+00
3.749814e+00 1.375020e+00 1.242095e+00
3.749830e+00 1.499966e+00 1.240996e+00
3.749823e+00 1.624910e+00 1.240761e+00
3.749790e+00 1.749850e+00 1.241601e+00
3.749797e+00 1.874816e+00 1.243526e+00
3.749879e+00 1.999841e+00 1.245582e+00
3.749950e+00 2.124902e+00 1.247514e+00
3.750000e+00 2.250000e+00 1.250000e+00
3.875000e+00 7.500000e-01 1.250000e+00
3.874900e+00 8.750861e-01 1.249454e+00
3.874844e+00 1.000130e+00 1.248797e+00
3.874850e+00 1.125099e+00 1.247873e+00
3.874935e+00 1.250027e+00 1.246479e+00
3.874994e+00 1.374964e+00 1.245454e+00
3.874986e+00 1.499946e+00 1.244880e+00
3.874963e+00 1.624956e+00 1.244638e+00
3.874949e+00 1.749948e+00 1.244949e+00
3.874933e+00 1.874934e+00 1.245902e+00
3.874962e+00 1.999939e+00 1.247067e+00
3.874984e+00 2.124951e+00 1.248157e+00
3.875000e+00 2.250000e+00 1.250000e+00
4.000000e+00 7.500000e-01 1.250000e+00
4.000000e+00 8.750000e-01 1.250000e+00
4.000000e+00 1.000000e+00 1.250000e+00
4.000000e+00 1.125000e+00 1.250000e+00
4.000000e+00 1.250000e+00 1.250000e+00
4.000000e+00 1.375000e+00 1.250000e+00
4.000000e+00 1.500000e+00 1.250000e+00
4.000000e+00 1.625000e+00 1.250000e+00
4.000000e+00 1.750000e+00 1.250000e+00
4.000000e+00 1.875000e+00 1.250000e+00
4.000000e+00 2.000000e+00 1.250000e+00
4.000000e+00 2.125000e+00 1.250000e+00
4.000000e+00 2.250000e+00 1.250000e+00
POLYGONS 384 1536
3 0 13 14
3 0 14 1
3 1 14 15
3 1 15 2
3 2 15 16
3 2 16 3
3 3 16 17
3 3 17 4
3 4 17 18
3 4 18 5
3 5 18 19
3 5 19 6
3 6 19 20
3 6 20 7
3 7 20 21
3 7 21 8
3 8 21 22
3 8 22 9
3 9 22 23
3 9 23 10
3 10 23 24
3 10 24 11
3 11 24 25
3 11 25 12
3 13 26 27
3 13 27 14
3 14 27 28
3 14 28 15
3 15 28 29
3 15 29 16
3 16 29 30
3 16 30 17
3 17 30 31
3 17 31 18
3 18 31 32
3 18 32 19
3 19 32 33
3 19 33 20
3 20 33 34
3 20 34 21
3 21 34 35
3 21 35 22
3 22 35 36
3 22 36 23
3 23 36 37
3 23 37 24
3 24 37 38
3 24 38 25
3 26 39 40
3 26 40 27
3 27 40 41
3 27 41 28
3 28 41 42
3 28 42 29
3 29 42 43
3 29 43 30
3 30 43 44
3 30 44 31
3 31 44 45
3 31 45 32
3 32 45 46
3 32 46 33
3 33 46 47
3 33 47 34
3 34 47 48
3 34 48 35
3 35 48 49
3 35 49 36
3 36 49 50
3 36 50 37
3 37 50 51
3 37 51 38
3 39 52 53
3 39 53 40
3 40 53 54
3 40 54 41
3 41 54 55
3 41 55 42
3 42 55 56
3 42 56 43
3 43 56 57
3 43 57 44
3 44 57 58
3 44 58 45
3 45 58 59
3 45 59 46
3 46 59 60
3 46 60 47
3 47 60 61
3 47 61 48
3 48 61 62
3 48 62 49
3 49 62 63
3 49 63 50
3 50 63 64
3 50 64 51
3 52 65 66
3 52 66 53
3 53 66 67
3 53 67 54
3 54 67 68
3 54 68 55
3 55 68 69
3 55 69 56
3 56 69 70
3 56 70 57
3 57 70 71
3 57 71 58
3 58 71 72
3 58 72 59
3 59 72 73
3 59 73 60
3 60 73 74
3 60 74 61
3 61 74 75
3 61 75 62
3 62 75 76
3 62 76 63
3 63 76 77
3 63 77 64
3 65 78 79
3 65 79 66
3 66 79 80
3 66 80 67
3 67 80 81
3 67 81 68
3 68 81 82
3 68 82 69
3 69 82 83
3 69 83 70
3 70 83 84
3 70 84 71
3 71 84 85
3 71 85 72
3 72 85 86
3 72 86 73
3 73 86 87
3 73 87 74
3 74 87 88
3 74 88 75
3 75 88 89
3 75 89 76
3 76 89 90
3 76 90 77
3 78 91 92
3 78 92 79
3 79 92 93
3 79 93 80
3 80 93 94
3 80 94 81
3 81 94 95
3 81 95 82
3 82 95 96
3 82 96 83
3 83 96 97
3 83 97 84
3 84 97 98
3 84 98 85
3 85 98 99
3 85 99 86
3 86 99 100
3 86 100 87
3 87 100 101
3 87 101 88
3 88 101 102
3 88 102 89
3 89 102 103
3 89 103 90
3 91 104 105
3 91 105 92
3 92 105 106
3 92 106 93
3 93 106 107
3 93 107 94
3 94 107 108
3 94 108 95
3 95 108 109
3 95 109 96
3 96 109 110
3 96 110 97
3 97 110 111
3 97 111 98
3 98 111 112
3 98 112 99
3 99 112 113
3 99 113 100
3 100 113 114
3 100 114 101
3 101 114 115
3 101 115 102
3 102 115 116
3 102 116 103
3 104 117 118
3 104 118 105
3 105 118 119
3 105 119 106
3 106 119 120
3 106 120 107
3 107 120 121
3 107 121 108
3 108 121 122
3 108 122 109
3 109 122 123
3 109 123 110
3 110 123 124
3 110 124 111
3 111 124 125
3 111 125 112
3 112 125 126
3 112 126 113
3 113 126 127
3 113 127 114
3 114 127 128
3 114 128 115
3 115 128 129
3 115 129 116
3 117 130 131
3 117 131 118
3 118 131 132
3 118 132 119
3 119 132 133
3 119 133 120
3 120 133 134
3 120 134 121
3 121 134 135
3 121 135 122
3 122 135 136
3 122 136 123
3 123 136 137
3 123 137 124
3 124 137 138
3 124 138 125
3 125 138 139
3 125 139 126
3 126 139 140
3 126 140 127
3 127 140 141
3 127 141 128
3 128 141 142
3 128 142 129
3 130 143 144
3 130 144 131
3 131 144 145
3 131 145 132
3 132 145 146
3 132 146 133
3 133 146 147
3 133 147 134
3 134 147 148
3 134 148 135
3 135 148 149
3 135 149 136
3 136 149 150
3 136 150 137
3 137 150 151
3 137 151 138
3 138 151 152
3 138 152 139
3 139 152 153
3 139 153 140
3 140 153 154
3 140 154 141
3 141 154 155
3 141 155 142
3 143 156 157
3 143 157 144
3 144 157 158
3 144 158 145
3 145 158 159
3 145 159 146
3 146 159 160
3 146 160 147
3 147 160 161
3 147 161 148
3 148 161 162
3 148 162 149
3 149 162 163
3 149 163 150
3 150 163 164
3 150 164 151
3 151 164 165
3 151 165 152
3 152 165 166
3 152 166 153
3 153 166 167
3 153 167 154
3 154 167 168
3 154 168 155
3 156 169 170
3 156 170 157
3 157 170 171
3 157 171 158
3 158 171 172
3 158 172 159
3 159 172 173
3 159 173 160
3 160 173 174
3 160 174 161
3 161 174 175
3 161 175 162
3 162 175 176
3 162 176 163
3 163 176 177
3 163 177 164
3 164 177 178
3 164 178 165
3 165 178 179
3 165 179 166
3 166 179 180
3 166 180 167
3 167 180 181
3 167 181 168
3 169 182 183
3 169 183 170
3 170 183 184
3 170 184 171
3 171 184 185
3 171 185 172
3 172 185 186
3 172 186 173
3 173 186 187
3 173 187 174
3 174 187 188
3 174 188 175
3 175 188 189
3 175 189 176
3 176 189 190
3 176 190 177
3 177 190 191
3 177 191 178
3 178 191 192
3 178 192 179
3 179 192 193
3 179 193 180
3 180 193 194
3 180 194 181
3 182 195 196
3 182 196 183
3 183 196 197
3 183 197 184
3 184 197 198
3 184 198 185
3 185 198 199
3 185 199 186
3 186 199 200
3 186 200 187
3 187 200 201
3 187 201 188
3 188 201 202
3 188 202 189
3 189 202 203
3 189 203 190
3 190 203 204
3 190 204 191
3 191 204 205
3 191 205 192
3 192 205 206
3 192 206 193
3 193 206 207
3 193 207 194
3 195 208 209
3 195 209 196
3 196 209 210
3 196 210 197
3 197 210 211
3 197 211 198
3 198 211 212
3 198 212 199
3 199 212 213
3 199 213 200
3 200 213 214
3 200 214 201
3 201 214 215
3 201 215 202
3 202 215 216
3 202 216 203
3 203 216 217
3 203 217 204
3 204 217 218
3 204 218 205
3 205 218 219
3 205 219 206
3 206 219 220
3 206 220 207
POINT_DATA 221
VECTORS velocity float
0.000000e+00 0.000000e+00 0.000000e+00
0.000000e+00 0.000000e+00 0.000000e+00
0.000000e+00 0.000000e+00 0.000000e+00
0.000000e+00 0.000000e+00 0.000000e+00
0.000000e+00 0.000000e+00 0.000000e+00
0.000000e+00 0.000000e+00 0.000000e+00
0.000000e+00 0.000000e+00 0.000000e+00
0.000000e+00 0.000000e+00 0.000000e+00
0.000000e+00 0.000000e+00 0.000000e+00
0.000000e+00 0.000000e+00 0.000000e+00
0.000000e+00 0.000000e+00 0.000000e+00
0.000000e+00 0.000000e+00 0.000000e+00
0.000000e+00 0.000000e+00 0.000000e+00
0.000000e+00 0.000000e+00 0.000000e+00
3.005594e-03 2.855287e-03 -5.725904e-02
3.048935e-03 3.772606e-03 -7.853046e-02
-2.233471e-03 2.873558e-03 -9.814312e-02
-1.687685e-05 3.102655e-03 -9.506889e-02
3.659132e-03 -2.044055e-04 -8.988928e-02
3.120071e-03 -6.208021e-03 -8.610995e-02
3.162272e-04 -9.498278e-03 -8.578567e-02
-2.454394e-03 -9.357529e-03 -7.189534e-02
-2.008119e-03 -7.689928e-03 -4.999621e-02
-6.791997e-04 -2.749550e-03 -3.962852e-02
-3.084780e-03 6.219527e-04 -1.562358e-02
0.000000e+00 0.000000e+00 0.000000e+00
0.000000e+00 0.000000e+00 0.000000e+00
2.473677e-03 -2.869999e-04 -1.048698e-01
5.337994e-03 7.746168e-04 -1.600220e-01
1.722997e-03 3.253619e-03 -2.018707e-01
9.114076e-04 4.658141e-03 -1.976246e-01
3.840832e-03 2.295560e-04 -1.747566e-01
3.671756e-03 -5.784406e-03 -1.567689e-01
2.356658e-03 -6.080986e-03 -1.542073e-01
-9.679725e-04 -6.541835e-03 -1.588499e-01
-2.941513e-03 -7.689336e-03 -1.154764e-01
-4.511014e-03 -2.535554e-03 -8.500034e-02
-6.014036e-03 3.333940e-03 -5.647789e-02
0.000000e+00 0.000000e+00 0.000000e+00
0.000000e+00 0.000000e+00 0.000000e+00
4.233029e-03 -2.308852e-03 -1.759279e-01
6.855822e-03 -3.121407e-03 -2.786803e-01
6.167612e-03 3.349455e-04 -3.538877e-01
2.994011e-03 2.174275e-03 -3.804858e-01
3.086533e-03 -4.609781e-04 -3.557021e-01
2.773969e-03 -4.348265e-03 -3.181510e-01
4.723390e-03 -3.129728e-03 -2.909564e-01
5.668156e-03 -2.621327e-03 -2.690645e-01
1.996088e-03 -1.947104e-03 -2.361672e-01
-2.075030e-03 1.954764e-03 -1.614058e-01
-5.011140e-03 3.148478e-03 -7.449865e-02
0.000000e+00 0.000000e+00 0.000000e+00
0.000000e+00 0.000000e+00 0.000000e+00
6.514482e-03 -5.133465e-03 -1.854136e-01
9.310430e-03 -5.459395e-03 -3.185264e-01
1.000730e-02 -2.604663e-03 -4.062283e-01
7.870615e-03 -2.465602e-03 -4.515835e-01
9.237356e-03 -5.778848e-03 -4.492593e-01
8.590980e-03 -9.946437e-03 -4.198232e-01
7.594724e-03 -1.045062e-02 -3.858961e-01
8.670421e-03 -7.072509e-03 -3.421211e-01
6.545045e-03 -2.236316e-03 -2.953234e-01
4.111770e-04 5.280990e-03 -2.624981e-01
-2.919393e-03 4.594770e-03 -1.420697e-01
0.000000e+00 0.000000e+00 0.000000e+00
0.000000e+00 0.000000e+00 0.000000e+00
5.675771e-03 -7.547870e-03 -1.929154e-01
7.882386e-03 -1.263883e-02 -3.389199e-01
7.781619e-03 -1.643999e-02 -4.368344e-01
6.344743e-03 -1.574577e-02 -4.923321e-01
1.054314e-02 -1.485592e-02 -5.034930e-01
9.768666e-03 -1.776282e-02 -4.792349e-01
3.563536e-03 -1.863360e-02 -4.437985e-01
3.510014e-03 -1.405132e-02 -3.826145e-01
2.075949e-03 -8.059756e-03 -2.726764e-01
4.509192e-05 1.604861e-03 -2.150786e-01
-9.166778e-04 3.399279e-03 -1.305112e-01
0.000000e+00 0.000000e+00 0.000000e+00
0.000000e+00 0.000000e+00 0.000000e+00
6.147460e-03 -1.116541e-02 -2.118154e-01
1.166811e-02 -1.894615e-02 -3.801060e-01
1.027839e-02 -2.510811e-02 -5.213935e-01
3.793467e-03 -2.544605e-02 -6.264624e-01
5.439575e-03 -2.168279e-02 -6.766868e-01
3.015021e-03 -1.994027e-02 -6.793936e-01
-5.465242e-03 -2.026536e-02 -6.490681e-01
-4.184232e-03 -1.304894e-02 -5.879870e-01
-1.913618e-03 -4.842649e-03 -4.226839e-01
-2.583958e-03 -6.261187e-04 -2.480782e-01
1.466636e-04 2.614125e-03 -1.153452e-01
0.000000e+00 0.000000e+00 0.000000e+00
0.000000e+00 0.000000e+00 0.000000e+00
9.283041e-03 -1.197949e-02 -1.951026e-01
1.601477e-02 -2.208237e-02 -3.820129e-01
1.708702e-02 -2.849135e-02 -5.612405e-01
9.579231e-03 -3.204108e-02 -6.930208e-01
8.761166e-03 -2.591869e-02 -7.815849e-01
3.950571e-03 -1.912047e-02 -8.134686e-01
-5.264985e-03 -1.525164e-02 -7.945521e-01
-7.908233e-03 -2.482982e-03 -7.686999e-01
-4.884708e-03 1.011894e-02 -6.320233e-01
-4.522662e-03 9.636929e-03 -4.068510e-01
-1.459305e-03 7.147584e-03 -1.913623e-01
0.000000e+00 0.000000e+00 0.000000e+00
0.000000e+00 0.000000e+00 0.000000e+00
6.207494e-03 -1.102014e-02 -1.755971e-01
1.213484e-02 -2.182137e-02 -3.331973e-01
1.349276e-02 -3.309483e-02 -5.072754e-01
8.535565e-03 -3.788635e-02 -6.188222e-01
3.811927e-03 -3.370649e-02 -6.980052e-01
1.568972e-03 -2.186501e-02 -7.477848e-01
-5.592839e-03 -1.230069e-02 -7.377879e-01
-7.059855e-03 3.378118e-03 -7.213572e-01
-6.780442e-03 1.553711e-02 -6.651527e-01
-7.412716e-03 1.374542e-02 -4.776176e-01
-4.276086e-03 1.016896e-02 -2.548197e-01
0.000000e+00 0.000000e+00 0.000000e+00
0.000000e+00 0.000000e+00 0.000000e+00
4.643718e-03 -9.983453e-03 -1.332784e-01
1.125568e-02 -2.133784e-02 -2.727199e-01
1.157066e-02 -3.035313e-02 -4.112697e-01
9.751844e-03 -2.890523e-02 -4.782574e-01
-5.676762e-04 -2.607830e-02 -5.494158e-01
-5.161224e-03 -1.909074e-02 -5.891181e-01
-7.142922e-03 -1.203284e-02 -5.681808e-01
-4.023859e-03 1.099067e-03 -5.534461e-01
5.320024e-04 1.421768e-02 -5.639046e-01
-2.697600e-03 1.217087e-02 -4.250874e-01
-3.951700e-03 6.590063e-03 -2.473584e-01
0.000000e+00 0.000000e+00 0.000000e+00
0.000000e+00 0.000000e+00 0.000000e+00
9.339865e-03 -1.432821e-02 -1.032108e-01
1.802794e-02 -2.015908e-02 -2.265321e-01
1.716787e-02 -1.827907e-02 -3.144155e-01
1.288915e-02 -1.666541e-02 -3.510722e-01
3.660688e-03 -1.898207e-02 -4.148186e-01
-6.470040e-04 -1.802968e-02 -4.559824e-01
-5.182428e-04 -1.227502e-02 -4.191231e-01
5.998597e-04 -6.352195e-03 -3.664337e-01
4.143015e-03 2.396747e-03 -4.123841e-01
4.040518e-03 2.355588e-03 -3.267423e-01
-1.383681e-03 -1.836417e-03 -1.823279e-01
0.000000e+00 0.000000e+00 0.000000e+00
0.000000e+00 0.000000e+00 0.000000e+00
6.319022e-03 -1.496720e-02 -9.021774e-02
1.026273e-02 -2.023293e-02 -2.002025e-01
1.263874e-02 -1.032470e-02 -2.363497e-01
9.620395e-03 -5.090881e-03 -2.492190e-01
2.447709e-03 -9.370438e-03 -3.143019e-01
3.151711e-03 -1.035295e-02 -3.484494e-01
6.247598e-03 -6.252330e-03 -3.193927e-01
5.294876e-03 -3.939077e-03 -2.472996e-01
5.147497e-03 -6.447363e-03 -2.703644e-01
3.396226e-03 -9.155857e-03 -2.440435e-01
9.344933e-05 -6.670288e-03 -1.315488e-01
0.000000e+00 0.000000e+00 0.000000e+00
0.000000e+00 0.000000e+00 0.000000e+00
-6.033480e-03 -8.596761e-03 -8.770049e-02
-5.753130e-03 -1.145277e-02 -1.613042e-01
-4.670247e-03 -1.803615e-03 -1.835200e-01
8.531366e-04 5.825270e-03 -1.842974e-01
6.487153e-03 1.002924e-03 -2.571678e-01
1.000646e-02 -2.027242e-05 -2.945402e-01
9.315972e-03 -1.609766e-03 -2.739072e-01
7.250544e-03 -5.922726e-03 -1.994384e-01
8.231132e-03 -1.009294e-02 -1.818165e-01
2.135122e-03 -1.306932e-02 -1.733633e-01
-1.188531e-03 -8.009664e-03 -9.776616e-02
0.000000e+00 0.000000e+00 0.000000e+00
0.000000e+00 0.000000e+00 0.000000e+00
-8.194125e-03 -1.800249e-03 -5.577532e-02
-6.596765e-03 -2.739601e-03 -1.212395e-01
-1.056564e-02 2.783035e-03 -1.473448e-01
-3.005519e-03 6.971927e-03 -1.696101e-01
1.463632e-02 2.833881e-03 -2.178480e-01
2.478570e-02 -3.866592e-04 -2.585078e-01
1.634225e-02 -7.318841e-03 -2.548841e-01
6.914201e-03 -1.816689e-02 -1.855061e-01
6.518795e-03 -2.052927e-02 -1.326738e-01
-9.201020e-04 -1.692582e-02 -1.325899e-01
-6.727411e-03 -1.168887e-02 -7.136348e-02
0.000000e+00 0.000000e+00 0.000000e+00
0.000000e+00 0.000000e+00 0.000000e+00
-2.682711e-03 2.137571e-03 -3.201475e-02
6.937030e-04 -9.425354e-04 -5.716429e-02
2.705403e-03 -6.766482e-03 -8.930950e-02
1.013199e-02 -9.705094e-03 -1.264014e-01
2.190103e-02 -5.917510e-03 -1.790093e-01
2.621414e-02 9.012580e-04 -2.015775e-01
1.812453e-02 -6.842137e-05 -2.048606e-01
6.872985e-03 -1.081412e-02 -1.602807e-01
1.028832e-03 -1.432835e-02 -1.121450e-01
-5.749353e-03 -1.020074e-02 -1.118079e-01
-6.790234e-03 -4.652269e-03 -8.061437e-02
0.000000e+00 0.000000e+00 0.000000e+00
0.000000e+00 0.000000e+00 0.000000e+00
-1.576817e-03 1.347140e-03 -1.279174e-02
3.057701e-03 -2.532390e-03 -3.246053e-02
8.997168e-03 -1.418799e-02 -3.111980e-02
1.781244e-02 -2.073145e-02 -5.587197e-02
2.180885e-02 -1.144668e-02 -9.515682e-02
1.743401e-02 1.402925e-03 -1.175002e-01
1.222796e-02 2.203376e-03 -1.191957e-01
8.027911e-03 -4.168621e-03 -1.011689e-01
-3.241710e-04 -6.749753e-03 -6.566821e-02
-5.386350e-03 -6.615419e-03 -5.665365e-02
-5.636286e-03 -4.768811e-03 -4.347156e-02
0.000000e+00 0.000000e+00 0.000000e+00
0.000000e+00 0.000000e+00 0.000000e+00
0.000000e+00 0.000000e+00 0.000000e+00
0.000000e+00 0.000000e+00 0.000000e+00
0.000000e+00 0.000000e+00 0.000000e+00
0.000000e+00 0.000000e+00 0.000000e+00
0.000000e+00 0.000000e+00 0.000000e+00
0.000000e+00 0.000000e+00 0.000000e+00
0.000000e+00 0.000000e+00 0.000000e+00
0.000000e+00 0.000000e+00 0.000000e+00
0.000000e+00 0.000000e+00 0.000000e+00
0.000000e+00 0.000000e+00 0.000000e+00
0.000000e+00 0.000000e+00 0.000000e+00
0.000000e+00 0.000000e+00 0.000000e+00
