# vtk DataFile Version 3.0
tensile membrane
ASCII
DATASET POLYDATA
POINTS 221 float
2.000000e+00 7.500000e-01 1.250000e+00
2.000000e+00 8.750000e-01 1.250000e+00
2.000000e+00 1.000000e+00 1.250000e+00
2.000000e+00 1.125000e+00 1.250000e+00
2.000000e+00 1.250000e+00 1.250000e+00
2.000000e+00 1.375000e+00 1.250000e+00
2.000000e+00 1.500000e+00 1.250000e+00
2.000000e+00 1.625000e+00 1.250000e+00
2.000000e+00 1.750000e+00 1.250000e+00
2.000000e+00 1.875000e+00 1.250000e+00
2.000000e+00 2.000000e+00 1.250000e+00
2.000000e+00 2.125000e+00 1.250000e+00
2.000000e+00 2.250000e+00 1.250000e+00
2.157865e+00 7.882824e-01 1.226882e+00
2.137604e+00 8.950179e-01 1.230371e+00
2.130214e+00 1.011102e+00 1.231571e+00
2.125918e+00 1.129861e+00 1.232328e+00
2.123204e+00 1.250222e+00 1.232944e+00
2.121107e+00 1.371246e+00 1.233113e+00
2.119654e+00 1.493113e+00 1.233138e+00
2.117593e+00 1.614265e+00 1.233511e+00
2.116469e+00 1.735899e+00 1.234143e+00
2.115238e+00 1.857212e+00 1.235211e+00
2.112766e+00 1.976759e+00 1.236855e+00
2.112662e+00 2.096559e+00 1.239141e+00
2.113349e+00 2.213544e+00 1.242866e+00
2.299558e+00 8.067958e-01 1.211626e+00
2.277451e+00 9.135769e-01 1.213305e+00
2.263872e+00 1.024214e+00 1.214546e+00
2.254839e+00 1.137563e+00 1.215746e+00
2.249273e+00 1.254073e+00 1.216769e+00
2.244671e+00 1.371280e+00 1.217272e+00
2.240550e+00 1.488756e+00 1.217561e+00
2.237204e+00 1.606576e+00 1.218284e+00
2.234463e+00 1.724627e+00 1.219738e+00
2.231835e+00 1.842895e+00 1.221982e+00
2.228545e+00 1.959352e+00 1.225207e+00
2.226869e+00 2.075540e+00 1.229321e+00
2.225134e+00 2.189977e+00 1.234921e+00
2.435285e+00 8.195795e-01 1.199307e+00
2.414153e+00 9.271241e-01 1.199275e+00
2.398419e+00 1.036533e+00 1.199645e+00
2.385841e+00 1.146131e+00 1.200408e+00
2.376945e+00 1.258738e+00 1.201501e+00
2.370033e+00 1.373212e+00 1.202461e+00
2.363890e+00 1.487293e+00 1.203213e+00
2.358468e+00 1.601492e+00 1.204405e+00
2.355036e+00 1.717534e+00 1.206670e+00
2.350200e+00 1.832503e+00 1.210182e+00
2.345682e+00 1.945978e+00 1.214923e+00
2.342468e+00 2.060575e+00 1.220777e+00
2.337299e+00 2.173571e+00 1.227814e+00
2.568208e+00 8.297903e-01 1.187626e+00
2.548471e+00 9.375450e-01 1.186388e+00
2.531335e+00 1.045847e+00 1.186091e+00
2.516995e+00 1.153755e+00 1.186259e+00
2.506503e+00 1.264537e+00 1.186868e+00
2.496731e+00 1.375978e+00 1.188057e+00
2.489311e+00 1.487338e+00 1.189408e+00
2.482168e+00 1.598526e+00 1.191185e+00
2.476616e+00 1.712042e+00 1.194249e+00
2.470673e+00 1.825969e+00 1.199028e+00
2.464270e+00 1.937012e+00 1.205295e+00
2.458861e+00 2.050285e+00 1.212894e+00
2.451400e+00 2.163014e+00 1.221501e+00
2.698291e+00 8.369865e-01 1.177629e+00
2.680391e+00 9.458623e-01 1.174707e+00
2.663236e+00 1.054099e+00 1.173356e+00
2.647127e+00 1.159967e+00 1.172937e+00
2.636062e+00 1.270184e+00 1.172941e+00
2.625005e+00 1.380548e+00 1.173925e+00
2.615573e+00 1.489145e+00 1.175771e+00
2.608017e+00 1.598944e+00 1.178288e+00
2.600068e+00 1.710197e+00 1.182136e+00
2.591886e+00 1.821706e+00 1.187984e+00
2.584106e+00 1.930950e+00 1.195605e+00
2.576449e+00 2.042923e+00 1.204740e+00
2.566980e+00 2.155226e+00 1.214944e+00
2.826712e+00 8.430937e-01 1.169938e+00
2.809310e+00 9.522044e-01 1.165214e+00
2.793293e+00 1.061310e+00 1.162154e+00
2.777521e+00 1.167060e+00 1.160545e+00
2.765064e+00 1.275891e+00 1.159969e+00
2.753641e+00 1.385802e+00 1.160597e+00
2.743291e+00 1.492395e+00 1.162507e+00
2.734356e+00 1.599588e+00 1.165371e+00
2.724878e+00 1.709996e+00 1.169755e+00
2.715058e+00 1.820393e+00 1.176418e+00
2.705252e+00 1.928065e+00 1.185191e+00
2.695826e+00 2.039176e+00 1.195730e+00
2.684416e+00 2.150832e+00 1.207363e+00
2.952549e+00 8.474709e-01 1.164146e+00
2.936370e+00 9.573098e-01 1.157893e+00
2.921260e+00 1.066297e+00 1.153195e+00
2.906772e+00 1.172271e+00 1.150129e+00
2.894313e+00 1.281047e+00 1.148728e+00
2.882108e+00 1.389999e+00 1.148929e+00
2.871642e+00 1.495816e+00 1.150574e+00
2.862093e+00 1.602296e+00 1.153367e+00
2.851046e+00 1.712134e+00 1.157804e+00
2.840107e+00 1.821862e+00 1.164712e+00
2.828573e+00 1.928247e+00 1.173997e+00
2.817346e+00 2.037892e+00 1.185469e+00
2.804058e+00 2.148261e+00 1.198247e+00
3.076243e+00 8.498250e-01 1.160430e+00
3.061305e+00 9.601683e-01 1.152779e+00
3.048115e+00 1.069613e+00 1.146680e+00
3.034628e+00 1.175195e+00 1.142465e+00
3.022495e+00 1.284108e+00 1.140177e+00
3.010847e+00 1.393927e+00 1.139848e+00
3.000499e+00 1.499861e+00 1.140918e+00
2.990191e+00 1.605781e+00 1.143231e+00
2.978637e+00 1.715536e+00 1.147197e+00
2.966691e+00 1.824291e+00 1.153615e+00
2.953486e+00 1.929610e+00 1.162656e+00
2.940652e+00 2.038703e+00 1.174202e+00
2.926202e+00 2.148655e+00 1.187524e+00
3.198318e+00 8.500601e-01 1.160125e+00
3.184685e+00 9.607460e-01 1.151039e+00
3.173133e+00 1.070701e+00 1.143454e+00
3.161359e+00 1.177367e+00 1.138038e+00
3.150228e+00 1.287311e+00 1.134925e+00
3.139069e+00 1.397298e+00 1.134156e+00
3.129476e+00 1.503890e+00 1.134754e+00
3.118990e+00 1.609755e+00 1.136298e+00
3.106806e+00 1.718709e+00 1.139411e+00
3.094466e+00 1.827411e+00 1.144654e+00
3.080251e+00 1.933261e+00 1.152412e+00
3.065471e+00 2.041947e+00 1.162927e+00
3.049831e+00 2.151354e+00 1.175794e+00
3.317771e+00 8.475951e-01 1.163915e+00
3.306161e+00 9.593993e-01 1.153616e+00
3.296553e+00 1.070697e+00 1.144711e+00
3.286603e+00 1.178567e+00 1.138008e+00
3.276654e+00 1.289222e+00 1.134039e+00
3.267117e+00 1.399886e+00 1.132751e+00
3.258149e+00 1.507287e+00 1.132863e+00
3.247727e+00 1.613990e+00 1.133531e+00
3.236258e+00 1.723984e+00 1.135514e+00
3.223848e+00 1.832844e+00 1.139276e+00
3.208241e+00 1.938545e+00 1.144868e+00
3.192534e+00 2.047442e+00 1.153235e+00
3.175648e+00 2.156140e+00 1.164562e+00
3.434992e+00 8.434377e-01 1.171597e+00
3.425488e+00 9.557300e-01 1.160374e+00
3.417804e+00 1.067746e+00 1.150704e+00
3.410007e+00 1.177126e+00 1.143191e+00
3.401783e+00 1.288890e+00 1.138457e+00
3.393811e+00 1.400415e+00 1.136690e+00
3.386215e+00 1.510444e+00 1.136420e+00
3.376720e+00 1.619220e+00 1.136280e+00
3.365572e+00 1.729744e+00 1.136750e+00
3.354477e+00 1.840084e+00 1.138625e+00
3.338401e+00 1.945961e+00 1.141693e+00
3.321460e+00 2.054079e+00 1.147025e+00
3.303974e+00 2.162661e+00 1.155648e+00
3.550239e+00 8.358754e-01 1.183870e+00
3.542912e+00 9.485419e-01 1.172033e+00
3.537618e+00 1.061806e+00 1.161853e+00
3.531288e+00 1.172933e+00 1.153983e+00
3.525379e+00 1.287038e+00 1.148737e+00
3.519844e+00 1.400765e+00 1.146578e+00
3.512669e+00 1.512146e+00 1.146166e+00
3.505208e+00 1.623707e+00 1.145644e+00
3.495356e+00 1.735345e+00 1.144832e+00
3.484763e+00 1.846262e+00 1.144432e+00
3.470346e+00 1.954252e+00 1.144554e+00
3.453280e+00 2.062584e+00 1.146254e+00
3.433760e+00 2.170228e+00 1.151292e+00
3.663982e+00 8.255987e-01 1.200132e+00
3.658984e+00 9.385374e-01 1.188778e+00
3.655931e+00 1.053114e+00 1.179114e+00
3.651547e+00 1.166626e+00 1.171286e+00
3.646816e+00 1.281697e+00 1.165754e+00
3.643448e+00 1.397884e+00 1.163027e+00
3.638038e+00 1.512235e+00 1.162455e+00
3.631852e+00 1.626433e+00 1.161821e+00
3.624893e+00 1.741049e+00 1.160266e+00
3.615885e+00 1.853776e+00 1.158076e+00
3.603181e+00 1.963499e+00 1.155312e+00
3.587391e+00 2.073063e+00 1.153060e+00
3.566243e+00 2.180679e+00 1.153362e+00
3.775821e+00 8.095043e-01 1.218313e+00
3.774185e+00 9.239167e-01 1.208588e+00
3.772611e+00 1.040094e+00 1.200952e+00
3.769463e+00 1.156583e+00 1.194536e+00
3.766976e+00 1.274899e+00 1.189696e+00
3.764326e+00 1.392978e+00 1.186845e+00
3.761002e+00 1.510825e+00 1.185926e+00
3.756860e+00 1.628351e+00 1.185382e+00
3.752245e+00 1.745645e+00 1.183672e+00
3.746607e+00 1.862254e+00 1.180905e+00
3.737457e+00 1.975683e+00 1.176734e+00
3.723791e+00 2.086482e+00 1.171172e+00
3.701570e+00 2.193467e+00 1.165929e+00
3.887178e+00 7.861608e-01 1.236344e+00
3.887908e+00 9.032102e-01 1.229531e+00
3.887844e+00 1.023035e+00 1.225036e+00
3.885469e+00 1.142594e+00 1.221454e+00
3.884337e+00 1.263894e+00 1.218600e+00
3.883297e+00 1.385506e+00 1.216725e+00
3.881252e+00 1.506635e+00 1.215868e+00
3.879769e+00 1.628502e+00 1.215483e+00
3.877664e+00 1.749567e+00 1.214599e+00
3.874906e+00 1.869962e+00 1.212811e+00
3.870550e+00 1.988721e+00 1.209634e+00
3.863088e+00 2.104847e+00 1.203935e+00
3.842773e+00 2.211856e+00 1.193522e+00
4.000000e+00 7.500000e-01 1.250000e+00
4.000000e+00 8.750000e-01 1.250000e+00
4.000000e+00 1.000000e+00 1.250000e+00
4.000000e+00 1.125000e+00 1.250000e+00
4.000000e+00 1.250000e+00 1.250000e+00
4.000000e+00 1.375000e+00 1.250000e+00
4.000000e+00 1.500000e+00 1.250000e+00
4.000000e+00 1.625000e+00 1.250000e+00
4.000000e+00 1.750000e+00 1.250000e+00
4.000000e+00 1.875000e+00 1.250000e+00
4.000000e+00 2.000000e+00 1.250000e+00
4.000000e+00 2.125000e+00 1.250000e+00
4.000000e+00 2.250000e+00 1.250000e+00
POLYGONS 384 1536
3 0 13 14
3 0 14 1
3 1 14 15
3 1 15 2
3 2 15 16
3 2 16 3
3 3 16 17
3 3 17 4
3 4 17 18
3 4 18 5
3 5 18 19
3 5 19 6
3 6 19 20
3 6 20 7
3 7 20 21
3 7 21 8
3 8 21 22
3 8 22 9
3 9 22 23
3 9 23 10
3 10 23 24
3 10 24 11
3 11 24 25
3 11 25 12
3 13 26 27
3 13 27 14
3 14 27 28
3 14 28 15
3 15 28 29
3 15 29 16
3 16 29 30
3 16 30 17
3 17 30 31
3 17 31 18
3 18 31 32
3 18 32 19
3 19 32 33
3 19 33 20
3 20 33 34
3 20 34 21
3 21 34 35
3 21 35 22
3 22 35 36
3 22 36 23
3 23 36 37
3 23 37 24
3 24 37 38
3 24 38 25
3 26 39 40
3 26 40 27
3 27 40 41
3 27 41 28
3 28 41 42
3 28 42 29
3 29 42 43
3 29 43 30
3 30 43 44
3 30 44 31
3 31 44 45
3 31 45 32
3 32 45 46
3 32 46 33
3 33 46 47
3 33 47 34
3 34 47 48
3 34 48 35
3 35 48 49
3 35 49 36
3 36 49 50
3 36 50 37
3 37 50 51
3 37 51 38
3 39 52 53
3 39 53 40
3 40 53 54
3 40 54 41
3 41 54 55
3 41 55 42
3 42 55 56
3 42 56 43
3 43 56 57
3 43 57 44
3 44 57 58
3 44 58 45
3 45 58 59
3 45 59 46
3 46 59 60
3 46 60 47
3 47 60 61
3 47 61 48
3 48 61 62
3 48 62 49
3 49 62 63
3 49 63 50
3 50 63 64
3 50 64 51
3 52 65 66
3 52 66 53
3 53 66 67
3 53 67 54
3 54 67 68
3 54 68 55
3 55 68 69
3 55 69 56
3 56 69 70
3 56 70 57
3 57 70 71
3 57 71 58
3 58 71 72
3 58 72 59
3 59 72 73
3 59 73 60
3 60 73 74
3 60 74 61
3 61 74 75
3 61 75 62
3 62 75 76
3 62 76 63
3 63 76 77
3 63 77 64
3 65 78 79
3 65 79 66
3 66 79 80
3 66 80 67
3 67 80 81
3 67 81 68
3 68 81 82
3 68 82 69
3 69 82 83
3 69 83 70
3 70 83 84
3 70 84 71
3 71 84 85
3 71 85 72
3 72 85 86
3 72 86 73
3 73 86 87
3 73 87 74
3 74 87 88
3 74 88 75
3 75 88 89
3 75 89 76
3 76 89 90
3 76 90 77
3 78 91 92
3 78 92 79
3 79 92 93
3 79 93 80
3 80 93 94
3 80 94 81
3 81 94 95
3 81 95 82
3 82 95 96
3 82 96 83
3 83 96 97
3 83 97 84
3 84 97 98
3 84 98 85
3 85 98 99
3 85 99 86
3 86 99 100
3 86 100 87
3 87 100 101
3 87 101 88
3 88 101 102
3 88 102 89
3 89 102 103
3 89 103 90
3 91 104 105
3 91 105 92
3 92 105 106
3 92 106 93
3 93 106 107
3 93 107 94
3 94 107 108
3 94 108 95
3 95 108 109
3 95 109 96
3 96 109 110
3 96 110 97
3 97 110 111
3 97 111 98
3 98 111 112
3 98 112 99
3 99 112 113
3 99 113 100
3 100 113 114
3 100 114 101
3 101 114 115
3 101 115 102
3 102 115 116
3 102 116 103
3 104 117 118
3 104 118 105
3 105 118 119
3 105 119 106
3 106 119 120
3 106 120 107
3 107 120 121
3 107 121 108
3 108 121 122
3 108 122 109
3 109 122 123
3 109 123 110
3 110 123 124
3 110 124 111
3 111 124 125
3 111 125 112
3 112 125 126
3 112 126 113
3 113 126 127
3 113 127 114
3 114 127 128
3 114 128 115
3 115 128 129
3 115 129 116
3 117 130 131
3 117 131 118
3 118 131 132
3 118 132 119
3 119 132 133
3 119 133 120
3 120 133 134
3 120 134 121
3 121 134 135
3 121 135 122
3 122 135 136
3 122 136 123
3 123 136 137
3 123 137 124
3 124 137 138
3 124 138 125
3 125 138 139
3 125 139 126
3 126 139 140
3 126 140 127
3 127 140 141
3 127 141 128
3 128 141 142
3 128 142 129
3 130 143 144
3 130 144 131
3 131 144 145
3 131 145 132
3 132 145 146
3 132 146 133
3 133 146 147
3 133 147 134
3 134 147 148
3 134 148 135
3 135 148 149
3 135 149 136
3 136 149 150
3 136 150 137
3 137 150 151
3 137 151 138
3 138 151 152
3 138 152 139
3 139 152 153
3 139 153 140
3 140 153 154
3 140 154 141
3 141 154 155
3 141 155 142
3 143 156 157
3 143 157 144
3 144 157 158
3 144 158 145
3 145 158 159
3 145 159 146
3 146 159 160
3 146 160 147
3 147 160 161
3 147 161 148
3 148 161 162
3 148 162 149
3 149 162 163
3 149 163 150
3 150 163 164
3 150 164 151
3 151 164 165
3 151 165 152
3 152 165 166
3 152 166 153
3 153 166 167
3 153 167 154
3 154 167 168
3 154 168 155
3 156 169 170
3 156 170 157
3 157 170 171
3 157 171 158
3 158 171 172
3 158 172 159
3 159 172 173
3 159 173 160
3 160 173 174
3 160 174 161
3 161 174 175
3 161 175 162
3 162 175 176
3 162 176 163
3 163 176 177
3 163 177 164
3 164 177 178
3 164 178 165
3 165 178 179
3 165 179 166
3 166 179 180
3 166 180 167
3 167 180 181
3 167 181 168
3 169 182 183
3 169 183 170
3 170 183 184
3 170 184 171
3 171 184 185
3 171 185 172
3 172 185 186
3 172 186 173
3 173 186 187
3 173 187 174
3 174 187 188
3 174 188 175
3 175 188 189
3 175 189 176
3 176 189 190
3 176 190 177
3 177 190 191
3 177 191 178
3 178 191 192
3 178 192 179
3 179 192 193
3 179 193 180
3 180 193 194
3 180 194 181
3 182 195 196
3 182 196 183
3 183 196 197
3 183 197 184
3 184 197 198
3 184 198 185
3 185 198 199
3 185 199 186
3 186 199 200
3 186 200 187
3 187 200 201
3 187 201 188
3 188 201 202
3 188 202 189
3 189 202 203
3 189 203 190
3 190 203 204
3 190 204 191
3 191 204 205
3 191 205 192
3 192 205 206
3 192 206 193
3 193 206 207
3 193 207 194
3 195 208 209
3 195 209 196
3 196 209 210
3 196 210 197
3 197 210 211
3 197 211 198
3 198 211 212
3 198 212 199
3 199 212 213
3 199 213 200
3 200 213 214
3 200 214 201
3 201 214 215
3 201 215 202
3 202 215 216
3 202 216 203
3 203 216 217
3 203 217 204
3 204 217 218
3 204 218 205
3 205 218 219
3 205 219 206
3 206 219 220
3 206 220 207
POINT_DATA 221
VECTORS velocity float
0.000000e+00 0.000000e+00 0.000000e+00
0.000000e+00 0.000000e+00 0.000000e+00
0.000000e+00 0.000000e+00 0.000000e+00
0.000000e+00 0.000000e+00 0.000000e+00
0.000000e+00 0.000000e+00 0.000000e+00
0.000000e+00 0.000000e+00 0.000000e+00
0.000000e+00 0.000000e+00 0.000000e+00
0.000000e+00 0.000000e+00 0.000000e+00
0.000000e+00 0.000000e+00 0.000000e+00
0.000000e+00 0.000000e+00 0.000000e+00
0.000000e+00 0.000000e+00 0.000000e+00
0.000000e+00 0.000000e+00 0.000000e+00
0.000000e+00 0.000000e+00 0.000000e+00
-9.137610e-02 7.780734e-02 3.621351e-02
1.395469e-01 1.102701e-01 2.508802e-02
6.694473e-02 1.536002e-03 3.016767e-02
6.436105e-02 8.847841e-02 3.743704e-02
1.607402e-02 1.907242e-01 4.370752e-02
5.757651e-02 4.976211e-02 4.684017e-02
3.863213e-02 -8.656305e-02 2.983191e-02
4.809142e-02 1.264728e-02 1.059825e-02
8.545222e-02 7.489427e-02 8.995574e-03
-2.413734e-01 4.622549e-02 2.687775e-02
-8.578487e-02 5.523091e-02 1.946259e-02
-2.606280e-02 4.990499e-02 1.712996e-02
4.144984e-02 7.984947e-02 1.103810e-02
-1.752164e-03 3.239576e-01 4.790761e-02
1.948711e-01 2.321768e-01 4.746777e-02
2.805862e-01 2.061769e-01 3.570552e-02
2.274396e-01 9.503328e-02 4.685370e-02
8.744455e-02 2.291660e-02 6.899873e-02
4.541248e-02 -1.649862e-01 7.943262e-02
5.080357e-02 -3.630611e-03 6.400030e-02
-7.079994e-02 2.166564e-01 4.983719e-02
5.061759e-02 2.645909e-01 2.550588e-02
-1.274504e-01 3.043207e-01 2.807009e-02
-9.514918e-02 1.823267e-01 3.244372e-02
-4.520873e-02 1.076931e-01 4.490507e-02
5.628092e-02 1.275593e-01 4.085152e-02
1.200963e-01 2.150879e-01 1.249429e-01
2.305252e-01 -8.048082e-03 1.150314e-01
1.595036e-01 -1.408962e-01 1.075677e-01
4.657060e-01 1.402444e-01 6.976574e-02
3.577948e-01 2.513218e-01 7.461197e-02
1.055002e-01 4.000008e-02 9.586209e-02
6.101192e-03 2.107922e-01 9.044030e-02
-2.091867e-01 3.663568e-01 9.015656e-02
-1.349762e-01 1.576516e-01 6.054423e-02
3.762306e-02 2.782942e-01 3.756540e-02
9.371897e-02 4.117679e-01 4.686287e-02
1.415759e-03 3.711762e-01 6.864892e-02
1.207042e-02 3.035232e-01 7.477810e-02
-2.167155e-01 -1.772794e-01 2.425733e-01
1.765320e-01 -5.592222e-02 1.970363e-01
1.771216e-01 1.223273e-02 1.692266e-01
5.054245e-01 2.019731e-01 1.241580e-01
3.531376e-01 1.192108e-01 1.101432e-01
-2.413086e-02 -2.189980e-01 1.230101e-01
-1.318163e-03 1.392785e-01 1.138409e-01
-1.826849e-01 4.959440e-01 1.206860e-01
-2.610819e-02 3.709968e-01 9.805439e-02
1.487726e-01 3.172637e-01 7.701061e-02
1.096777e-01 4.646674e-01 7.805055e-02
4.776793e-02 6.034107e-01 9.315238e-02
2.147653e-01 6.856629e-01 1.028424e-01
-5.622148e-01 -3.683027e-01 3.983017e-01
-1.174951e-02 -1.847195e-01 3.208627e-01
6.603140e-02 -1.829797e-02 2.512783e-01
3.987614e-01 1.579729e-01 1.978134e-01
2.384061e-01 7.445617e-02 1.683990e-01
9.649899e-03 -1.701599e-01 1.515870e-01
1.652434e-02 6.884455e-02 1.402019e-01
-8.719205e-02 4.264023e-01 1.371275e-01
5.112554e-03 4.262336e-01 1.159104e-01
1.339319e-01 5.176541e-01 1.174052e-01
1.600767e-01 6.676448e-01 1.356978e-01
8.804539e-02 6.490011e-01 1.230376e-01
4.102862e-01 8.010994e-01 1.172528e-01
-7.447032e-01 -4.341335e-01 4.279924e-01
-2.069949e-03 -2.379217e-01 4.149663e-01
-1.081915e-01 -1.224694e-01 3.458040e-01
2.755909e-01 9.927505e-02 2.583728e-01
4.936548e-02 -1.164071e-01 2.246548e-01
7.131583e-02 -1.566644e-01 1.822182e-01
7.751489e-02 4.503134e-02 1.680188e-01
1.456946e-02 4.050570e-01 1.661327e-01
5.898929e-02 5.773460e-01 1.658603e-01
2.185580e-03 5.026862e-01 1.836142e-01
2.274258e-01 5.905590e-01 2.123547e-01
2.201802e-01 5.075925e-01 2.037960e-01
4.121543e-01 4.974955e-01 1.642030e-01
-7.074862e-01 -3.497021e-01 4.111261e-01
1.990900e-01 -2.080103e-01 4.082927e-01
-3.358717e-01 -4.004164e-01 4.124682e-01
6.972376e-02 -1.105080e-01 3.142543e-01
6.233991e-02 -1.992649e-01 2.531841e-01
7.283826e-02 -1.734120e-01 2.078957e-01
1.611197e-01 1.357510e-01 1.883613e-01
2.184634e-02 3.445623e-01 1.971314e-01
1.631503e-02 5.106541e-01 2.197110e-01
6.765738e-02 4.040459e-01 2.528291e-01
1.406941e-01 2.732601e-01 2.753137e-01
1.231349e-01 4.846900e-01 2.949131e-01
6.612612e-01 7.449185e-01 2.941933e-01
-7.554946e-01 -6.334317e-01 5.050228e-01
2.353558e-01 -2.932442e-01 4.533293e-01
-3.102661e-01 -4.901743e-01 4.375336e-01
-1.527033e-01 -4.664274e-01 3.671109e-01
1.405562e-01 -2.714522e-01 2.859495e-01
4.847923e-02 -1.977635e-01 2.537841e-01
-9.382091e-03 6.103065e-03 2.338648e-01
-6.090929e-02 2.140670e-01 2.429393e-01
-1.512494e-01 2.829758e-01 2.758047e-01
1.416331e-01 4.683698e-01 3.305391e-01
2.941682e-01 4.862503e-01 3.636145e-01
-2.659443e-01 2.848376e-01 3.459198e-01
7.316503e-01 6.374404e-01 3.637270e-01
-6.575318e-01 -7.352486e-01 5.182003e-01
-1.264079e-01 -4.788352e-01 5.081119e-01
-1.432789e-01 -2.656765e-01 4.584375e-01
-8.031943e-02 -3.935670e-01 4.125012e-01
-3.036043e-02 -4.929957e-01 3.499209e-01
-3.745097e-02 -3.261215e-01 2.951965e-01
-1.848783e-01 -1.241666e-01 2.719938e-01
-9.547614e-02 1.790088e-01 2.954245e-01
-7.684882e-02 1.946312e-01 3.396500e-01
-8.393642e-02 1.003959e-01 3.819258e-01
3.093635e-01 3.900386e-01 4.391037e-01
-2.378190e-01 1.981643e-01 4.175041e-01
6.757292e-01 3.516087e-01 4.201300e-01
-4.093373e-01 -4.784226e-01 3.984615e-01
-2.271522e-01 -4.930389e-01 4.455243e-01
-2.415123e-01 -5.752048e-01 4.646241e-01
-2.946020e-02 -4.882502e-01 4.264053e-01
-8.799002e-02 -5.593496e-01 3.631530e-01
-4.006864e-02 -3.895071e-01 2.865307e-01
-1.005829e-01 -3.850201e-02 2.494836e-01
-9.450483e-02 1.453691e-01 2.680988e-01
-7.168162e-02 1.016774e-01 3.113790e-01
-2.985484e-01 -1.026792e-01 3.496123e-01
7.698578e-02 1.232558e-01 4.214033e-01
-2.692333e-02 2.341647e-01 4.519393e-01
7.160325e-01 4.242814e-01 4.791442e-01
-4.273814e-01 -7.756917e-01 3.663341e-01
-1.050593e-01 -6.244994e-01 3.751786e-01
-1.862406e-01 -6.471852e-01 4.104965e-01
-1.655857e-01 -4.979578e-01 4.249333e-01
-3.245292e-02 -4.088339e-01 3.693350e-01
6.539914e-02 -4.238462e-01 2.909260e-01
-3.162893e-02 -7.908019e-02 2.545431e-01
-2.474546e-02 1.564092e-01 2.766012e-01
-2.637837e-01 -7.715315e-02 2.783132e-01
-4.264879e-01 -1.500191e-01 2.849061e-01
-9.376157e-02 2.272105e-02 3.318414e-01
9.595045e-04 1.754988e-01 3.851949e-01
5.412281e-01 3.479802e-01 4.295555e-01
-2.437629e-01 -6.585694e-01 3.613780e-01
-6.845781e-02 -5.747383e-01 3.729864e-01
-1.361029e-01 -4.410562e-01 3.998174e-01
-1.806785e-01 -2.998556e-01 4.422876e-01
-3.995095e-03 -3.579197e-01 4.201613e-01
1.617682e-01 -4.938877e-01 3.277318e-01
-1.079780e-02 -1.401598e-01 2.808767e-01
1.071985e-02 2.207542e-01 3.134088e-01
-3.786065e-01 -1.105618e-01 2.944935e-01
-5.357780e-01 -1.962743e-01 2.522772e-01
-2.044022e-01 -1.445296e-02 2.649905e-01
-1.840953e-01 5.183196e-02 2.921516e-01
2.012014e-01 1.734063e-01 3.470949e-01
-3.441957e-02 -2.806087e-01 3.005136e-01
-1.771309e-02 -3.496819e-01 3.449150e-01
-1.107562e-01 -3.895953e-01 3.925067e-01
-6.248155e-02 -2.624779e-01 4.303207e-01
1.042279e-01 -1.474408e-01 4.376498e-01
1.824347e-01 -3.618144e-01 3.604453e-01
-2.653613e-02 -2.015366e-01 2.784512e-01
-1.254039e-01 -2.647833e-02 2.812347e-01
-3.872049e-01 -2.377233e-01 2.598924e-01
-5.012588e-01 -1.386914e-01 1.925978e-01
-1.886018e-01 1.453392e-01 1.842384e-01
-2.444173e-01 2.178509e-02 1.964512e-01
-1.404281e-01 -2.017346e-01 2.048896e-01
-7.039463e-02 -1.140806e-01 1.992927e-01
3.812091e-02 -8.959144e-02 2.628918e-01
8.631011e-02 -1.635485e-01 3.281730e-01
1.134751e-01 -2.913770e-01 3.696035e-01
-7.304497e-02 -2.554249e-01 3.890490e-01
4.706462e-02 -2.061393e-01 3.580987e-01
-7.331533e-02 1.602267e-02 2.768484e-01
-7.046950e-02 1.774858e-01 2.424058e-01
-1.085731e-01 -7.806263e-03 2.192808e-01
-2.487847e-01 -9.168465e-02 1.563398e-01
-3.068905e-01 -2.080925e-01 1.280359e-01
-2.166873e-01 -2.320710e-01 1.646760e-01
-1.506700e-02 -3.177927e-01 1.775986e-01
-5.836219e-02 -7.066549e-02 7.041852e-02
1.255681e-02 -4.007402e-02 1.211999e-01
7.420415e-02 -4.337887e-02 1.858901e-01
2.314654e-01 -3.324905e-02 2.202237e-01
-1.004417e-01 -6.336400e-02 2.257122e-01
-6.902919e-02 -2.850151e-03 2.269330e-01
-4.941695e-02 1.022150e-01 1.813402e-01
-7.100710e-02 -4.107414e-02 1.513644e-01
-2.771843e-02 -1.849587e-01 1.351552e-01
-6.988937e-02 -8.045859e-02 1.045019e-01
-8.130279e-02 -1.900067e-04 7.435146e-02
-1.561950e-01 -1.166397e-01 1.102834e-01
7.104478e-02 -9.165119e-02 1.778018e-01
0.000000e+00 0.000000e+00 0.000000e+00
0.000000e+00 0.000000e+00 0.000000e+00
0.000000e+00 0.000000e+00 0.000000e+00
0.000000e+00 0.000000e+00 0.000000e+00
0.000000e+00 0.000000e+00 0.000000e+00
0.000000e+00 0.000000e+00 0.000000e+00
0.000000e+00 0.000000e+00 0.000000e+00
0.000000e+00 0.000000e+00 0.000000e+00
0.000000e+00 0.000000e+00 0.000000e+00
0.000000e+00 0.000000e+00 0.000000e+00
0.000000e+00 0.000000e+00 0.000000e+00
0.000000e+00 0.000000e+00 0.000000e+00
0.000000e+00 0.000000e+00 0.000000e+00
