# vtk DataFile Version 3.0
tensile membrane
ASCII
DATASET POLYDATA
POINTS 221 float
2.000000e+00 7.500000e-01 1.250000e+00
2.000000e+00 8.750000e-01 1.250000e+00
2.000000e+00 1.000000e+00 1.250000e+00
2.000000e+00 1.125000e+00 1.250000e+00
2.000000e+00 1.250000e+00 1.250000e+00
2.000000e+00 1.375000e+00 1.250000e+00
2.000000e+00 1.500000e+00 1.250000e+00
2.000000e+00 1.625000e+00 1.250000e+00
2.000000e+00 1.750000e+00 1.250000e+00
2.000000e+00 1.875000e+00 1.250000e+00
2.000000e+00 2.000000e+00 1.250000e+00
2.000000e+00 2.125000e+00 1.250000e+00
2.000000e+00 2.250000e+00 1.250000e+00
2.155727e+00 7.893544e-01 1.267102e+00
2.136375e+00 8.964412e-01 1.261323e+00
2.129875e+00 1.012765e+00 1.258848e+00
2.126439e+00 1.131855e+00 1.257532e+00
2.123912e+00 1.252243e+00 1.256639e+00
2.122263e+00 1.373327e+00 1.255908e+00
2.120659e+00 1.494681e+00 1.255313e+00
2.119192e+00 1.616295e+00 1.254878e+00
2.117309e+00 1.737654e+00 1.254721e+00
2.115975e+00 1.858859e+00 1.254666e+00
2.114512e+00 1.979040e+00 1.254773e+00
2.113049e+00 2.098093e+00 1.254933e+00
2.112848e+00 2.215187e+00 1.254416e+00
2.295304e+00 8.090027e-01 1.280353e+00
2.274669e+00 9.157534e-01 1.273003e+00
2.262441e+00 1.026016e+00 1.268074e+00
2.255342e+00 1.139974e+00 1.265006e+00
2.250237e+00 1.256393e+00 1.262873e+00
2.246658e+00 1.373985e+00 1.261316e+00
2.243167e+00 1.491807e+00 1.260294e+00
2.240276e+00 1.610232e+00 1.259650e+00
2.237084e+00 1.728503e+00 1.259490e+00
2.234236e+00 1.846338e+00 1.259726e+00
2.231486e+00 1.963268e+00 1.260350e+00
2.228496e+00 2.079367e+00 1.261260e+00
2.225577e+00 2.194045e+00 1.261726e+00
2.428657e+00 8.206901e-01 1.291046e+00
2.409280e+00 9.283088e-01 1.282781e+00
2.395266e+00 1.037282e+00 1.276297e+00
2.385502e+00 1.148252e+00 1.271688e+00
2.378111e+00 1.261619e+00 1.268447e+00
2.372545e+00 1.376186e+00 1.266118e+00
2.367369e+00 1.491100e+00 1.264802e+00
2.362972e+00 1.606547e+00 1.264241e+00
2.358722e+00 1.722418e+00 1.264372e+00
2.354417e+00 1.837792e+00 1.265120e+00
2.350021e+00 1.952228e+00 1.266489e+00
2.345220e+00 2.066559e+00 1.268402e+00
2.339502e+00 2.180057e+00 1.270071e+00
2.559207e+00 8.290488e-01 1.299313e+00
2.540936e+00 9.371098e-01 1.290439e+00
2.526519e+00 1.045766e+00 1.282998e+00
2.515592e+00 1.155259e+00 1.277255e+00
2.506693e+00 1.266579e+00 1.273079e+00
2.499422e+00 1.378859e+00 1.270182e+00
2.492695e+00 1.491675e+00 1.268622e+00
2.487130e+00 1.605036e+00 1.268320e+00
2.481474e+00 1.718757e+00 1.269070e+00
2.475835e+00 1.832409e+00 1.270606e+00
2.470063e+00 1.945326e+00 1.272895e+00
2.463212e+00 2.058378e+00 1.275924e+00
2.455179e+00 2.171063e+00 1.278894e+00
2.687518e+00 8.342266e-01 1.305227e+00
2.670434e+00 9.429959e-01 1.295994e+00
2.656131e+00 1.051907e+00 1.287964e+00
2.644945e+00 1.160930e+00 1.281489e+00
2.635217e+00 1.271230e+00 1.276718e+00
2.627015e+00 1.382236e+00 1.273451e+00
2.618924e+00 1.493319e+00 1.271792e+00
2.612148e+00 1.604994e+00 1.271730e+00
2.605392e+00 1.717313e+00 1.273114e+00
2.598424e+00 1.829478e+00 1.275633e+00
2.591564e+00 1.941186e+00 1.279015e+00
2.582887e+00 2.053095e+00 1.283244e+00
2.572885e+00 2.164894e+00 1.287571e+00
2.814261e+00 8.377329e-01 1.308814e+00
2.798104e+00 9.470953e-01 1.299509e+00
2.784378e+00 1.056550e+00 1.291220e+00
2.773452e+00 1.165467e+00 1.284407e+00
2.763213e+00 1.275007e+00 1.279265e+00
2.754574e+00 1.385321e+00 1.275845e+00
2.745901e+00 1.495559e+00 1.274197e+00
2.737918e+00 1.605907e+00 1.274417e+00
2.730238e+00 1.717094e+00 1.276400e+00
2.722209e+00 1.828229e+00 1.279810e+00
2.714235e+00 1.939027e+00 1.284322e+00
2.704206e+00 2.050285e+00 1.289720e+00
2.692582e+00 2.161442e+00 1.295383e+00
2.939776e+00 8.400918e-01 1.309935e+00
2.924455e+00 9.498364e-01 1.300966e+00
2.911413e+00 1.059562e+00 1.292728e+00
2.900972e+00 1.168736e+00 1.285884e+00
2.890897e+00 1.278310e+00 1.280667e+00
2.881903e+00 1.388196e+00 1.277305e+00
2.872923e+00 1.497933e+00 1.275825e+00
2.864209e+00 1.607618e+00 1.276325e+00
2.855935e+00 1.718092e+00 1.278763e+00
2.847074e+00 1.828456e+00 1.282878e+00
2.837850e+00 1.938343e+00 1.288353e+00
2.826707e+00 2.049063e+00 1.294834e+00
2.813608e+00 2.159698e+00 1.301685e+00
3.063786e+00 8.412587e-01 1.308390e+00
3.049556e+00 9.515119e-01 1.300254e+00
3.037447e+00 1.061736e+00 1.292552e+00
3.027361e+00 1.171080e+00 1.286050e+00
3.017896e+00 1.281050e+00 1.280966e+00
3.009091e+00 1.391032e+00 1.277765e+00
3.000027e+00 1.500462e+00 1.276598e+00
2.990967e+00 1.609889e+00 1.277356e+00
2.982169e+00 1.719875e+00 1.280122e+00
2.972709e+00 1.829874e+00 1.284691e+00
2.962610e+00 1.939242e+00 1.290809e+00
2.950426e+00 2.049471e+00 1.298110e+00
2.936122e+00 2.159722e+00 1.306007e+00
3.186234e+00 8.411939e-01 1.304391e+00
3.173236e+00 9.518404e-01 1.297364e+00
3.162165e+00 1.062561e+00 1.290660e+00
3.152971e+00 1.172456e+00 1.284922e+00
3.144117e+00 1.282819e+00 1.280400e+00
3.135834e+00 1.393285e+00 1.277476e+00
3.127122e+00 1.502966e+00 1.276483e+00
3.118152e+00 1.612696e+00 1.277494e+00
3.109168e+00 1.722596e+00 1.280481e+00
3.099104e+00 1.832203e+00 1.285316e+00
3.088660e+00 1.941416e+00 1.291722e+00
3.075569e+00 2.051171e+00 1.299465e+00
3.060198e+00 2.160931e+00 1.307986e+00
3.307219e+00 8.393258e-01 1.298166e+00
3.295709e+00 9.505181e-01 1.292513e+00
3.285745e+00 1.061783e+00 1.287031e+00
3.277796e+00 1.172591e+00 1.282362e+00
3.269791e+00 1.283742e+00 1.278707e+00
3.262105e+00 1.394923e+00 1.276387e+00
3.254122e+00 1.505262e+00 1.275679e+00
3.245468e+00 1.615508e+00 1.276767e+00
3.236844e+00 1.725843e+00 1.279844e+00
3.226631e+00 1.835422e+00 1.284697e+00
3.215699e+00 1.944368e+00 1.291155e+00
3.201949e+00 2.053855e+00 1.299039e+00
3.185780e+00 2.163248e+00 1.307837e+00
3.426910e+00 8.357483e-01 1.290191e+00
3.416985e+00 9.475661e-01 1.286020e+00
3.408372e+00 1.059504e+00 1.281954e+00
3.401538e+00 1.171228e+00 1.278554e+00
3.394601e+00 1.283413e+00 1.275924e+00
3.387852e+00 1.395744e+00 1.274348e+00
3.381065e+00 1.507415e+00 1.274133e+00
3.372983e+00 1.618508e+00 1.275291e+00
3.364815e+00 1.729532e+00 1.278130e+00
3.355114e+00 1.839849e+00 1.282741e+00
3.343933e+00 1.948893e+00 1.288983e+00
3.329639e+00 2.057837e+00 1.296743e+00
3.312586e+00 2.166636e+00 1.305531e+00
3.544642e+00 8.294428e-01 1.281036e+00
3.536658e+00 9.421403e-01 1.278403e+00
3.529843e+00 1.055213e+00 1.275729e+00
3.524101e+00 1.168166e+00 1.273592e+00
3.518489e+00 1.281849e+00 1.272056e+00
3.512849e+00 1.395589e+00 1.271209e+00
3.507268e+00 1.508950e+00 1.271394e+00
3.500531e+00 1.621764e+00 1.272728e+00
3.493298e+00 1.734045e+00 1.275295e+00
3.484424e+00 1.845373e+00 1.279379e+00
3.473521e+00 1.954870e+00 1.285164e+00
3.459138e+00 2.063537e+00 1.292512e+00
3.440943e+00 2.171626e+00 1.301012e+00
3.660358e+00 8.202705e-01 1.271418e+00
3.654684e+00 9.337901e-01 1.270183e+00
3.649906e+00 1.048159e+00 1.268772e+00
3.645520e+00 1.162641e+00 1.267743e+00
3.641220e+00 1.278048e+00 1.267225e+00
3.636989e+00 1.393935e+00 1.266997e+00
3.632579e+00 1.509371e+00 1.267351e+00
3.627386e+00 1.624276e+00 1.268624e+00
3.621854e+00 1.738845e+00 1.270864e+00
3.614471e+00 1.852215e+00 1.274219e+00
3.604753e+00 1.963188e+00 1.279290e+00
3.590793e+00 2.072144e+00 1.286123e+00
3.571510e+00 2.179771e+00 1.294168e+00
3.774326e+00 8.061428e-01 1.262260e+00
3.771449e+00 9.208380e-01 1.262254e+00
3.768475e+00 1.036962e+00 1.261818e+00
3.765722e+00 1.153924e+00 1.261495e+00
3.762858e+00 1.271794e+00 1.261633e+00
3.759680e+00 1.390092e+00 1.261823e+00
3.756787e+00 1.508512e+00 1.262268e+00
3.753278e+00 1.626313e+00 1.263320e+00
3.749717e+00 1.743905e+00 1.264931e+00
3.744615e+00 1.860326e+00 1.267215e+00
3.737545e+00 1.974268e+00 1.271087e+00
3.725382e+00 2.084502e+00 1.277069e+00
3.704845e+00 2.191250e+00 1.284640e+00
3.887093e+00 7.848898e-01 1.254459e+00
3.886932e+00 9.019966e-01 1.255236e+00
3.885482e+00 1.021066e+00 1.255422e+00
3.884013e+00 1.141262e+00 1.255456e+00
3.882659e+00 1.262485e+00 1.255754e+00
3.880784e+00 1.383869e+00 1.256055e+00
3.879320e+00 1.505482e+00 1.256355e+00
3.877711e+00 1.626829e+00 1.257029e+00
3.876051e+00 1.747901e+00 1.257881e+00
3.873526e+00 1.868282e+00 1.258782e+00
3.870103e+00 1.987350e+00 1.260621e+00
3.863636e+00 2.103646e+00 1.264348e+00
3.844364e+00 2.210732e+00 1.271270e+00
4.000000e+00 7.500000e-01 1.250000e+00
4.000000e+00 8.750000e-01 1.250000e+00
4.000000e+00 1.000000e+00 1.250000e+00
4.000000e+00 1.125000e+00 1.250000e+00
4.000000e+00 1.250000e+00 1.250000e+00
4.000000e+00 1.375000e+00 1.250000e+00
4.000000e+00 1.500000e+00 1.250000e+00
4.000000e+00 1.625000e+00 1.250000e+00
4.000000e+00 1.750000e+00 1.250000e+00
4.000000e+00 1.875000e+00 1.250000e+00
4.000000e+00 2.000000e+00 1.250000e+00
4.000000e+00 2.125000e+00 1.250000e+00
4.000000e+00 2.250000e+00 1.250000e+00
POLYGONS 384 1536
3 0 13 14
3 0 14 1
3 1 14 15
3 1 15 2
3 2 15 16
3 2 16 3
3 3 16 17
3 3 17 4
3 4 17 18
3 4 18 5
3 5 18 19
3 5 19 6
3 6 19 20
3 6 20 7
3 7 20 21
3 7 21 8
3 8 21 22
3 8 22 9
3 9 22 23
3 9 23 10
3 10 23 24
3 10 24 11
3 11 24 25
3 11 25 12
3 13 26 27
3 13 27 14
3 14 27 28
3 14 28 15
3 15 28 29
3 15 29 16
3 16 29 30
3 16 30 17
3 17 30 31
3 17 31 18
3 18 31 32
3 18 32 19
3 19 32 33
3 19 33 20
3 20 33 34
3 20 34 21
3 21 34 35
3 21 35 22
3 22 35 36
3 22 36 23
3 23 36 37
3 23 37 24
3 24 37 38
3 24 38 25
3 26 39 40
3 26 40 27
3 27 40 41
3 27 41 28
3 28 41 42
3 28 42 29
3 29 42 43
3 29 43 30
3 30 43 44
3 30 44 31
3 31 44 45
3 31 45 32
3 32 45 46
3 32 46 33
3 33 46 47
3 33 47 34
3 34 47 48
3 34 48 35
3 35 48 49
3 35 49 36
3 36 49 50
3 36 50 37
3 37 50 51
3 37 51 38
3 39 52 53
3 39 53 40
3 40 53 54
3 40 54 41
3 41 54 55
3 41 55 42
3 42 55 56
3 42 56 43
3 43 56 57
3 43 57 44
3 44 57 58
3 44 58 45
3 45 58 59
3 45 59 46
3 46 59 60
3 46 60 47
3 47 60 61
3 47 61 48
3 48 61 62
3 48 62 49
3 49 62 63
3 49 63 50
3 50 63 64
3 50 64 51
3 52 65 66
3 52 66 53
3 53 66 67
3 53 67 54
3 54 67 68
3 54 68 55
3 55 68 69
3 55 69 56
3 56 69 70
3 56 70 57
3 57 70 71
3 57 71 58
3 58 71 72
3 58 72 59
3 59 72 73
3 59 73 60
3 60 73 74
3 60 74 61
3 61 74 75
3 61 75 62
3 62 75 76
3 62 76 63
3 63 76 77
3 63 77 64
3 65 78 79
3 65 79 66
3 66 79 80
3 66 80 67
3 67 80 81
3 67 81 68
3 68 81 82
3 68 82 69
3 69 82 83
3 69 83 70
3 70 83 84
3 70 84 71
3 71 84 85
3 71 85 72
3 72 85 86
3 72 86 73
3 73 86 87
3 73 87 74
3 74 87 88
3 74 88 75
3 75 88 89
3 75 89 76
3 76 89 90
3 76 90 77
3 78 91 92
3 78 92 79
3 79 92 93
3 79 93 80
3 80 93 94
3 80 94 81
3 81 94 95
3 81 95 82
3 82 95 96
3 82 96 83
3 83 96 97
3 83 97 84
3 84 97 98
3 84 98 85
3 85 98 99
3 85 99 86
3 86 99 100
3 86 100 87
3 87 100 101
3 87 101 88
3 88 101 102
3 88 102 89
3 89 102 103
3 89 103 90
3 91 104 105
3 91 105 92
3 92 105 106
3 92 106 93
3 93 106 107
3 93 107 94
3 94 107 108
3 94 108 95
3 95 108 109
3 95 109 96
3 96 109 110
3 96 110 97
3 97 110 111
3 97 111 98
3 98 111 112
3 98 112 99
3 99 112 113
3 99 113 100
3 100 113 114
3 100 114 101
3 101 114 115
3 101 115 102
3 102 115 116
3 102 116 103
3 104 117 118
3 104 118 105
3 105 118 119
3 105 119 106
3 106 119 120
3 106 120 107
3 107 120 121
3 107 121 108
3 108 121 122
3 108 122 109
3 109 122 123
3 109 123 110
3 110 123 124
3 110 124 111
3 111 124 125
3 111 125 112
3 112 125 126
3 112 126 113
3 113 126 127
3 113 127 114
3 114 127 128
3 114 128 115
3 115 128 129
3 115 129 116
3 117 130 131
3 117 131 118
3 118 131 132
3 118 132 119
3 119 132 133
3 119 133 120
3 120 133 134
3 120 134 121
3 121 134 135
3 121 135 122
3 122 135 136
3 122 136 123
3 123 136 137
3 123 137 124
3 124 137 138
3 124 138 125
3 125 138 139
3 125 139 126
3 126 139 140
3 126 140 127
3 127 140 141
3 127 141 128
3 128 141 142
3 128 142 129
3 130 143 144
3 130 144 131
3 131 144 145
3 131 145 132
3 132 145 146
3 132 146 133
3 133 146 147
3 133 147 134
3 134 147 148
3 134 148 135
3 135 148 149
3 135 149 136
3 136 149 150
3 136 150 137
3 137 150 151
3 137 151 138
3 138 151 152
3 138 152 139
3 139 152 153
3 139 153 140
3 140 153 154
3 140 154 141
3 141 154 155
3 141 155 142
3 143 156 157
3 143 157 144
3 144 157 158
3 144 158 145
3 145 158 159
3 145 159 146
3 146 159 160
3 146 160 147
3 147 160 161
3 147 161 148
3 148 161 162
3 148 162 149
3 149 162 163
3 149 163 150
3 150 163 164
3 150 164 151
3 151 164 165
3 151 165 152
3 152 165 166
3 152 166 153
3 153 166 167
3 153 167 154
3 154 167 168
3 154 168 155
3 156 169 170
3 156 170 157
3 157 170 171
3 157 171 158
3 158 171 172
3 158 172 159
3 159 172 173
3 159 173 160
3 160 173 174
3 160 174 161
3 161 174 175
3 161 175 162
3 162 175 176
3 162 176 163
3 163 176 177
3 163 177 164
3 164 177 178
3 164 178 165
3 165 178 179
3 165 179 166
3 166 179 180
3 166 180 167
3 167 180 181
3 167 181 168
3 169 182 183
3 169 183 170
3 170 183 184
3 170 184 171
3 171 184 185
3 171 185 172
3 172 185 186
3 172 186 173
3 173 186 187
3 173 187 174
3 174 187 188
3 174 188 175
3 175 188 189
3 175 189 176
3 176 189 190
3 176 190 177
3 177 190 191
3 177 191 178
3 178 191 192
3 178 192 179
3 179 192 193
3 179 193 180
3 180 193 194
3 180 194 181
3 182 195 196
3 182 196 183
3 183 196 197
3 183 197 184
3 184 197 198
3 184 198 185
3 185 198 199
3 185 199 186
3 186 199 200
3 186 200 187
3 187 200 201
3 187 201 188
3 188 201 202
3 188 202 189
3 189 202 203
3 189 203 190
3 190 203 204
3 190 204 191
3 191 204 205
3 191 205 192
3 192 205 206
3 192 206 193
3 193 206 207
3 193 207 194
3 195 208 209
3 195 209 196
3 196 209 210
3 196 210 197
3 197 210 211
3 197 211 198
3 198 211 212
3 198 212 199
3 199 212 213
3 199 213 200
3 200 213 214
3 200 214 201
3 201 214 215
3 201 215 202
3 202 215 216
3 202 216 203
3 203 216 217
3 203 217 204
3 204 217 218
3 204 218 205
3 205 218 219
3 205 219 206
3 206 219 220
3 206 220 207
POINT_DATA 221
VECTORS velocity float
0.000000e+00 0.000000e+00 0.000000e+00
0.000000e+00 0.000000e+00 0.000000e+00
0.000000e+00 0.000000e+00 0.000000e+00
0.000000e+00 0.000000e+00 0.000000e+00
0.000000e+00 0.000000e+00 0.000000e+00
0.000000e+00 0.000000e+00 0.000000e+00
0.000000e+00 0.000000e+00 0.000000e+00
0.000000e+00 0.000000e+00 0.000000e+00
0.000000e+00 0.000000e+00 0.000000e+00
0.000000e+00 0.000000e+00 0.000000e+00
0.000000e+00 0.000000e+00 0.000000e+00
0.000000e+00 0.000000e+00 0.000000e+00
0.000000e+00 0.000000e+00 0.000000e+00
1.640344e-02 -1.262119e-02 -9.225307e-02
-5.314440e-02 3.206235e-02 -7.152692e-02
-4.960330e-02 1.351669e-01 -5.921244e-02
4.383627e-02 7.894956e-02 -4.527659e-02
-9.174973e-03 9.556666e-04 -2.893913e-02
3.992010e-03 1.776931e-02 -2.550324e-02
2.800571e-02 3.433819e-02 -2.849350e-02
-3.793152e-02 2.572364e-03 -3.087524e-02
3.574758e-02 9.365088e-02 -3.337536e-02
2.179324e-02 9.168044e-02 -2.708525e-02
5.769224e-02 2.511385e-02 -2.380899e-02
3.420066e-02 6.618146e-02 -2.434300e-02
9.581912e-03 3.122305e-02 -2.023210e-02
5.823448e-02 8.251933e-02 -1.142653e-01
-9.559226e-02 7.479737e-02 -1.059926e-01
-1.420021e-01 1.102941e-01 -9.169631e-02
-3.097473e-02 7.771525e-04 -7.894108e-02
-2.007946e-02 4.610659e-02 -6.920336e-02
-2.699767e-03 9.858842e-02 -5.447154e-02
2.350584e-02 9.686948e-02 -5.785200e-02
-1.250514e-02 5.275135e-02 -6.109385e-02
5.714776e-02 1.321760e-01 -6.134468e-02
3.160196e-02 9.311606e-02 -4.570548e-02
7.401185e-02 -5.545918e-02 -4.018165e-02
5.263875e-03 8.883323e-02 -3.965217e-02
5.385183e-02 1.341775e-01 -3.670130e-02
1.307762e-02 -1.415457e-02 -1.059184e-01
-8.867996e-02 7.568270e-02 -1.198959e-01
-8.795609e-02 2.149795e-01 -1.258247e-01
-1.139657e-01 5.156761e-03 -1.017103e-01
-1.332804e-01 3.309078e-02 -9.727692e-02
-6.164769e-03 1.295179e-01 -9.498449e-02
3.522898e-02 8.445030e-02 -9.013716e-02
5.231218e-02 3.865604e-02 -8.215929e-02
6.472144e-02 1.300145e-01 -7.489057e-02
3.958032e-02 1.237213e-01 -6.183920e-02
1.361528e-01 -4.352443e-02 -4.947229e-02
9.220346e-03 8.465059e-02 -3.897064e-02
1.641744e-01 1.669004e-01 -4.290417e-02
-1.101138e-02 4.530851e-03 -1.174645e-01
-1.320975e-01 4.978806e-02 -1.184540e-01
-9.186275e-02 2.889355e-01 -1.307471e-01
-6.309321e-02 1.619938e-01 -1.230103e-01
-1.641160e-01 8.393221e-02 -1.055135e-01
-2.220736e-02 1.305724e-01 -1.098551e-01
1.505869e-02 6.228685e-02 -1.064902e-01
6.542901e-02 5.104209e-02 -9.847961e-02
7.051770e-02 1.805218e-01 -8.128142e-02
2.986339e-02 1.284889e-01 -7.229749e-02
1.797698e-01 -2.919800e-02 -5.951598e-02
9.716006e-02 9.995709e-02 -3.236913e-02
2.700148e-01 1.656862e-01 -3.091597e-02
-9.703931e-02 6.317900e-02 -1.279586e-01
-9.038455e-02 1.111948e-01 -1.273934e-01
-1.708764e-01 2.445469e-01 -1.219510e-01
-6.468409e-02 1.420979e-01 -1.156074e-01
-1.150070e-01 1.283680e-01 -1.142016e-01
-3.921285e-02 1.559558e-01 -1.125009e-01
9.107768e-03 1.104987e-01 -1.060154e-01
8.179000e-03 3.918710e-02 -9.546517e-02
1.441038e-02 1.165067e-01 -8.385777e-02
6.747268e-02 9.767578e-02 -6.793943e-02
1.658959e-01 -5.897603e-02 -5.834761e-02
1.317980e-01 9.347067e-02 -2.734554e-02
2.936146e-01 1.861472e-01 -1.536707e-02
-2.315466e-01 6.299017e-03 -1.181878e-01
-8.026411e-02 1.056688e-01 -1.245097e-01
-1.571385e-01 2.844720e-01 -1.312270e-01
-5.632433e-02 1.133509e-01 -1.123330e-01
-1.062531e-01 7.771158e-02 -1.029547e-01
-2.408068e-02 1.121213e-01 -1.047815e-01
-1.988919e-02 3.534672e-02 -9.982784e-02
1.082662e-02 4.296391e-02 -9.229139e-02
-1.525090e-03 4.895045e-02 -8.636757e-02
8.364027e-02 1.193132e-02 -6.916057e-02
1.426913e-01 -1.098652e-01 -6.091089e-02
1.459967e-01 9.643042e-02 -2.812678e-02
2.566379e-01 1.789789e-01 -1.224421e-02
-2.878804e-01 -4.224114e-02 -1.245228e-01
-1.324189e-01 2.743165e-02 -1.286874e-01
-1.674569e-01 2.312924e-01 -1.354240e-01
-3.163286e-02 9.449447e-02 -1.092740e-01
-9.924196e-02 4.911833e-02 -9.240213e-02
3.109312e-02 1.130295e-01 -9.528190e-02
1.699838e-02 1.480214e-02 -9.859053e-02
-2.763055e-02 -5.200524e-02 -9.290749e-02
4.560747e-02 2.937015e-03 -7.775263e-02
1.288735e-01 7.199269e-03 -6.808117e-02
1.495540e-01 -1.584383e-01 -7.053707e-02
1.300397e-01 1.307776e-02 -4.246777e-02
2.153202e-01 5.125020e-02 -2.637335e-02
-2.539463e-01 7.518424e-03 -1.457342e-01
-1.417011e-01 4.248029e-02 -1.428357e-01
-1.742805e-01 2.082154e-01 -1.415669e-01
-8.494090e-02 5.838118e-02 -1.041556e-01
-8.816899e-02 1.920009e-02 -8.423360e-02
1.344035e-03 3.006978e-02 -7.834482e-02
-9.500652e-04 -4.020786e-03 -8.216668e-02
-6.440185e-03 -4.034323e-02 -8.312464e-02
8.012115e-02 -2.935636e-02 -6.613260e-02
7.901273e-02 -6.782054e-02 -6.498228e-02
1.649440e-01 -2.234732e-01 -7.268911e-02
1.350052e-01 -5.373311e-02 -5.116112e-02
2.439235e-01 -1.745134e-02 -4.546527e-02
-2.257735e-01 -6.660064e-02 -1.362538e-01
-1.333863e-01 -2.402768e-02 -1.396905e-01
-1.552150e-01 1.447613e-01 -1.422249e-01
-1.333491e-01 -1.983090e-02 -1.083980e-01
-5.013645e-02 -1.371636e-02 -8.407896e-02
2.188617e-02 3.969279e-02 -7.361194e-02
-1.995098e-02 -2.369534e-02 -6.942068e-02
-3.142497e-02 -1.182732e-01 -7.202589e-02
9.211756e-02 -5.821087e-02 -6.443738e-02
2.376748e-02 -1.064451e-01 -5.783478e-02
1.626692e-01 -2.430292e-01 -6.412980e-02
1.265633e-01 -3.812295e-02 -4.280455e-02
2.832848e-01 3.503472e-02 -3.869472e-02
-2.618381e-01 -1.949081e-01 -1.072497e-01
-1.518388e-01 -1.125454e-01 -1.188551e-01
-1.441778e-01 9.565407e-02 -1.263768e-01
-8.635278e-02 -2.872602e-02 -1.094906e-01
-3.819218e-03 -6.282690e-02 -8.729899e-02
-1.566941e-02 -5.261282e-02 -6.839432e-02
1.776605e-02 -4.563555e-02 -5.832438e-02
2.245546e-02 -1.236943e-01 -5.403962e-02
9.992926e-02 -8.972019e-02 -5.340840e-02
4.629647e-02 -1.261860e-01 -5.280694e-02
1.537382e-01 -2.946069e-01 -5.448684e-02
8.023525e-02 -1.148199e-01 -3.644111e-02
2.314154e-01 -1.681790e-02 -3.160109e-02
-2.995779e-01 -2.031021e-01 -9.242869e-02
-1.396482e-01 -1.119956e-01 -1.019856e-01
-1.687611e-01 4.048820e-02 -1.052104e-01
-6.654737e-02 -1.143309e-01 -8.383526e-02
-1.671908e-02 -1.326486e-01 -7.761162e-02
-1.472167e-02 -5.468374e-02 -5.894963e-02
-9.555411e-03 -1.265037e-01 -4.010130e-02
3.704013e-02 -1.755032e-01 -3.806108e-02
1.085776e-01 -1.454985e-01 -3.756490e-02
5.698695e-02 -1.529257e-01 -4.854292e-02
1.680662e-01 -2.535580e-01 -5.410481e-02
9.118317e-02 -1.217472e-01 -3.071347e-02
1.003847e-01 -7.364199e-02 -2.068202e-02
-2.739541e-01 -1.804628e-01 -5.220669e-02
-1.018042e-01 -1.155080e-01 -6.191792e-02
-1.802438e-01 1.486000e-02 -6.554086e-02
-2.972137e-02 -1.449503e-01 -5.614018e-02
-7.256300e-02 -1.996771e-01 -5.474364e-02
-7.442373e-02 -7.163600e-02 -4.758408e-02
-1.806640e-02 -8.079803e-02 -3.201746e-02
1.879480e-02 -1.479029e-01 -2.454303e-02
1.581802e-01 -9.894266e-02 -2.212483e-02
5.524038e-02 -1.748969e-01 -3.138150e-02
9.084045e-02 -2.975627e-01 -4.844593e-02
1.310483e-01 -5.926586e-02 -3.448341e-02
8.726272e-03 -1.293179e-02 -2.655071e-02
-1.647333e-01 -1.816431e-01 -1.100364e-02
-1.152719e-02 -1.012168e-01 -2.222189e-02
-1.371911e-01 3.115495e-02 -2.638078e-02
-4.113604e-02 -1.368275e-01 -2.602080e-02
-6.574099e-02 -1.446628e-01 -3.425452e-02
-5.999452e-02 -5.620362e-02 -2.105680e-02
-4.271604e-02 -1.031051e-01 -1.758937e-02
-2.615101e-03 -1.471269e-01 -1.883547e-02
1.263719e-01 -4.769486e-02 -1.488173e-02
1.096592e-01 -1.875518e-02 -1.740031e-02
8.884023e-02 -2.255240e-01 -2.356813e-02
9.100309e-02 -8.303694e-02 -1.991405e-02
-1.760208e-02 7.300754e-03 -2.601470e-02
-5.101646e-02 -1.471630e-01 1.675248e-02
-1.987949e-03 -1.027504e-01 2.268257e-03
-7.777858e-02 4.013181e-02 -3.604228e-03
-3.042924e-02 -1.058974e-01 5.356558e-03
-5.530165e-02 -1.454450e-01 -8.568970e-03
1.051288e-02 -6.339014e-02 -2.362455e-03
-3.070918e-02 -1.072625e-01 3.798797e-03
-6.815293e-03 -1.109226e-01 8.994886e-05
9.520998e-03 -6.025282e-02 -8.133480e-03
2.780626e-02 -1.103032e-02 -1.400297e-02
1.423177e-01 -1.174917e-01 -1.816096e-02
9.714077e-02 -7.894775e-02 -1.305219e-02
-6.084997e-02 -8.667306e-02 -1.313404e-02
-9.189382e-03 -4.251053e-02 7.043642e-03
-3.016680e-02 -7.363750e-02 4.331928e-03
-6.248240e-02 -3.369641e-02 6.649509e-04
-2.148315e-02 -9.691036e-02 1.111636e-02
-3.200330e-02 -9.739330e-02 6.865143e-03
4.019514e-02 -6.435213e-03 -2.762719e-03
-3.065941e-02 -4.020970e-02 -6.226162e-03
-8.357953e-03 -2.436041e-02 -2.344796e-03
3.168157e-03 -8.581309e-03 -5.703052e-03
-4.787390e-02 -8.567585e-02 -9.831608e-03
4.931324e-02 -1.378983e-01 -9.262485e-03
5.425557e-02 -3.273107e-02 -7.977750e-03
-1.488697e-02 1.307090e-02 -1.150462e-02
0.000000e+00 0.000000e+00 0.000000e+00
0.000000e+00 0.000000e+00 0.000000e+00
0.000000e+00 0.000000e+00 0.000000e+00
0.000000e+00 0.000000e+00 0.000000e+00
0.000000e+00 0.000000e+00 0.000000e+00
0.000000e+00 0.000000e+00 0.000000e+00
0.000000e+00 0.000000e+00 0.000000e+00
0.000000e+00 0.000000e+00 0.000000e+00
0.000000e+00 0.000000e+00 0.000000e+00
0.000000e+00 0.000000e+00 0.000000e+00
0.000000e+00 0.000000e+00 0.000000e+00
0.000000e+00 0.000000e+00 0.000000e+00
0.000000e+00 0.000000e+00 0.000000e+00
