# vtk DataFile Version 3.0
tensile membrane
ASCII
DATASET POLYDATA
POINTS 221 float
2.000000e+00 7.500000e-01 1.250000e+00
2.000000e+00 8.750000e-01 1.250000e+00
2.000000e+00 1.000000e+00 1.250000e+00
2.000000e+00 1.125000e+00 1.250000e+00
2.000000e+00 1.250000e+00 1.250000e+00
2.000000e+00 1.375000e+00 1.250000e+00
2.000000e+00 1.500000e+00 1.250000e+00
2.000000e+00 1.625000e+00 1.250000e+00
2.000000e+00 1.750000e+00 1.250000e+00
2.000000e+00 1.875000e+00 1.250000e+00
2.000000e+00 2.000000e+00 1.250000e+00
2.000000e+00 2.125000e+00 1.250000e+00
2.000000e+00 2.250000e+00 1.250000e+00
2.125000e+00 7.500000e-01 1.250000e+00
2.125035e+00 8.750911e-01 1.262936e+00
2.125229e+00 1.000172e+00 1.268342e+00
2.125406e+00 1.125242e+00 1.271007e+00
2.125539e+00 1.250301e+00 1.272218e+00
2.125631e+00 1.375344e+00 1.272315e+00
2.125646e+00 1.500349e+00 1.271663e+00
2.125559e+00 1.625307e+00 1.270402e+00
2.125377e+00 1.750252e+00 1.268376e+00
2.125138e+00 1.875216e+00 1.265402e+00
2.124926e+00 2.000189e+00 1.261512e+00
2.124851e+00 2.125133e+00 1.256567e+00
2.125000e+00 2.250000e+00 1.250000e+00
2.250000e+00 7.500000e-01 1.250000e+00
2.250051e+00 8.753620e-01 1.269048e+00
2.250310e+00 1.000575e+00 1.279815e+00
2.250606e+00 1.125693e+00 1.285659e+00
2.250807e+00 1.250702e+00 1.288606e+00
2.250941e+00 1.375648e+00 1.289289e+00
2.251005e+00 1.500546e+00 1.288387e+00
2.250895e+00 1.625394e+00 1.286261e+00
2.250618e+00 1.750252e+00 1.282735e+00
2.250232e+00 1.875144e+00 1.277621e+00
2.249867e+00 2.000081e+00 1.270725e+00
2.249754e+00 2.125045e+00 1.261785e+00
2.250000e+00 2.250000e+00 1.250000e+00
2.375000e+00 7.500000e-01 1.250000e+00
2.375092e+00 8.757055e-01 1.272093e+00
2.375321e+00 1.001088e+00 1.286250e+00
2.375636e+00 1.126259e+00 1.294609e+00
2.375904e+00 1.251226e+00 1.299372e+00
2.376052e+00 1.375984e+00 1.300871e+00
2.376116e+00 1.500646e+00 1.299995e+00
2.375981e+00 1.625295e+00 1.297474e+00
2.375664e+00 1.750011e+00 1.292909e+00
2.375228e+00 1.874820e+00 1.286187e+00
2.374805e+00 1.999733e+00 1.277268e+00
2.374673e+00 2.124803e+00 1.265356e+00
2.375000e+00 2.250000e+00 1.250000e+00
2.500000e+00 7.500000e-01 1.250000e+00
2.500151e+00 8.760634e-01 1.273468e+00
2.500366e+00 1.001662e+00 1.289825e+00
2.500597e+00 1.126815e+00 1.299776e+00
2.500848e+00 1.251667e+00 1.305467e+00
2.501033e+00 1.376253e+00 1.308017e+00
2.501065e+00 1.500674e+00 1.307526e+00
2.500866e+00 1.625097e+00 1.304517e+00
2.500549e+00 1.749644e+00 1.299509e+00
2.500141e+00 1.874383e+00 1.291665e+00
2.499747e+00 1.999321e+00 1.281322e+00
2.499634e+00 2.124515e+00 1.267857e+00
2.500000e+00 2.250000e+00 1.250000e+00
2.625000e+00 7.500000e-01 1.250000e+00
2.625164e+00 8.762984e-01 1.273544e+00
2.625379e+00 1.002111e+00 1.291093e+00
2.625565e+00 1.127323e+00 1.302374e+00
2.625735e+00 1.252061e+00 1.308411e+00
2.625887e+00 1.376497e+00 1.311020e+00
2.625894e+00 1.500739e+00 1.311144e+00
2.625698e+00 1.624972e+00 1.308282e+00
2.625399e+00 1.749372e+00 1.302834e+00
2.625066e+00 1.874029e+00 1.294679e+00
2.624729e+00 1.998988e+00 1.283427e+00
2.624641e+00 2.124305e+00 1.268801e+00
2.625000e+00 2.250000e+00 1.250000e+00
2.750000e+00 7.500000e-01 1.250000e+00
2.750179e+00 8.764438e-01 1.272760e+00
2.750362e+00 1.002390e+00 1.290582e+00
2.750504e+00 1.127670e+00 1.302775e+00
2.750580e+00 1.252346e+00 1.309364e+00
2.750649e+00 1.376673e+00 1.311580e+00
2.750620e+00 1.500813e+00 1.311468e+00
2.750451e+00 1.624915e+00 1.308977e+00
2.750205e+00 1.749224e+00 1.303310e+00
2.749970e+00 1.873864e+00 1.294715e+00
2.749745e+00 1.998816e+00 1.283477e+00
2.749687e+00 2.124179e+00 1.268721e+00
2.750000e+00 2.250000e+00 1.250000e+00
2.875000e+00 7.500000e-01 1.250000e+00
2.875189e+00 8.764258e-01 1.270811e+00
2.875307e+00 1.002423e+00 1.288281e+00
2.875355e+00 1.127774e+00 1.301085e+00
2.875337e+00 1.252487e+00 1.308374e+00
2.875288e+00 1.376760e+00 1.310345e+00
2.875215e+00 1.500860e+00 1.309349e+00
2.875099e+00 1.624921e+00 1.306941e+00
2.874962e+00 1.749158e+00 1.301899e+00
2.874848e+00 1.873796e+00 1.293211e+00
2.874764e+00 1.998782e+00 1.282104e+00
2.874758e+00 2.124126e+00 1.268219e+00
2.875000e+00 2.250000e+00 1.250000e+00
3.000000e+00 7.500000e-01 1.250000e+00
3.000188e+00 8.762469e-01 1.268189e+00
3.000262e+00 1.002216e+00 1.284470e+00
3.000201e+00 1.127637e+00 1.297393e+00
3.000059e+00 1.252457e+00 1.305670e+00
2.999906e+00 1.376789e+00 1.308243e+00
2.999817e+00 1.500909e+00 1.306600e+00
2.999768e+00 1.625005e+00 1.303236e+00
2.999728e+00 1.749215e+00 1.298661e+00
2.999713e+00 1.873790e+00 1.290950e+00
2.999745e+00 1.998814e+00 1.280073e+00
2.999825e+00 2.124183e+00 1.266854e+00
3.000000e+00 2.250000e+00 1.250000e+00
3.125000e+00 7.500000e-01 1.250000e+00
3.125199e+00 8.760214e-01 1.265273e+00
3.125224e+00 1.001887e+00 1.279778e+00
3.125076e+00 1.127342e+00 1.292100e+00
3.124809e+00 1.252268e+00 1.300943e+00
3.124554e+00 1.376705e+00 1.304667e+00
3.124476e+00 1.500909e+00 1.303463e+00
3.124512e+00 1.625116e+00 1.299250e+00
3.124564e+00 1.749435e+00 1.294126e+00
3.124610e+00 1.873974e+00 1.287430e+00
3.124713e+00 1.998924e+00 1.277743e+00
3.124876e+00 2.124307e+00 1.265139e+00
3.125000e+00 2.250000e+00 1.250000e+00
3.250000e+00 7.500000e-01 1.250000e+00
3.250198e+00 8.757555e-01 1.262356e+00
3.250178e+00 1.001471e+00 1.274769e+00
3.249958e+00 1.126917e+00 1.285964e+00
3.249610e+00 1.251960e+00 1.294835e+00
3.249286e+00 1.376544e+00 1.299523e+00
3.249190e+00 1.500873e+00 1.299437e+00
3.249265e+00 1.625199e+00 1.295584e+00
3.249419e+00 1.749689e+00 1.289882e+00
3.249580e+00 1.874325e+00 1.283459e+00
3.249747e+00 1.999163e+00 1.275423e+00
3.249928e+00 2.124412e+00 1.264181e+00
3.250000e+00 2.250000e+00 1.250000e+00
3.375000e+00 7.500000e-01 1.250000e+00
3.375231e+00 8.755515e-01 1.259665e+00
3.375165e+00 1.001052e+00 1.269736e+00
3.374891e+00 1.126429e+00 1.279452e+00
3.374499e+00 1.251549e+00 1.287857e+00
3.374150e+00 1.376298e+00 1.293248e+00
3.374000e+00 1.500795e+00 1.294552e+00
3.374079e+00 1.625268e+00 1.292004e+00
3.374298e+00 1.749850e+00 1.286625e+00
3.374584e+00 1.874586e+00 1.279861e+00
3.374847e+00 1.999457e+00 1.272284e+00
3.374999e+00 2.124559e+00 1.262802e+00
3.375000e+00 2.250000e+00 1.250000e+00
3.500000e+00 7.500000e-01 1.250000e+00
3.500287e+00 8.753839e-01 1.257131e+00
3.500213e+00 1.000705e+00 1.264891e+00
3.499893e+00 1.125968e+00 1.272850e+00
3.499486e+00 1.251089e+00 1.280212e+00
3.499159e+00 1.375976e+00 1.285804e+00
3.498974e+00 1.500652e+00 1.288394e+00
3.499013e+00 1.625286e+00 1.287378e+00
3.499261e+00 1.749983e+00 1.282968e+00
3.499607e+00 1.874796e+00 1.276389e+00
3.499931e+00 1.999754e+00 1.268659e+00
3.500075e+00 2.124797e+00 1.260333e+00
3.500000e+00 2.250000e+00 1.250000e+00
3.625000e+00 7.500000e-01 1.250000e+00
3.625263e+00 8.751853e-01 1.254762e+00
3.625202e+00 1.000388e+00 1.260333e+00
3.624905e+00 1.125556e+00 1.266290e+00
3.624531e+00 1.250639e+00 1.272226e+00
3.624261e+00 1.375619e+00 1.277199e+00
3.624093e+00 1.500473e+00 1.280430e+00
3.624068e+00 1.625245e+00 1.280778e+00
3.624271e+00 1.750059e+00 1.277884e+00
3.624628e+00 1.874968e+00 1.272451e+00
3.624960e+00 1.999968e+00 1.265514e+00
3.625115e+00 2.124981e+00 1.258186e+00
3.625000e+00 2.250000e+00 1.250000e+00
3.750000e+00 7.500000e-01 1.250000e+00
3.750158e+00 8.750428e-01 1.252790e+00
3.750114e+00 1.000152e+00 1.256226e+00
3.749905e+00 1.125247e+00 1.260155e+00
3.749638e+00 1.250291e+00 1.264265e+00
3.749431e+00 1.375302e+00 1.268113e+00
3.749287e+00 1.500271e+00 1.271132e+00
3.749222e+00 1.625182e+00 1.272361e+00
3.749358e+00 1.750114e+00 1.271090e+00
3.749661e+00 1.875082e+00 1.267637e+00
3.749940e+00 2.000058e+00 1.262543e+00
3.750094e+00 2.125039e+00 1.256741e+00
3.750000e+00 2.250000e+00 1.250000e+00
3.875000e+00 7.500000e-01 1.250000e+00
3.875079e+00 8.749901e-01 1.251122e+00
3.875075e+00 1.000045e+00 1.252703e+00
3.874965e+00 1.125073e+00 1.254618e+00
3.874815e+00 1.250070e+00 1.256715e+00
3.874714e+00 1.375087e+00 1.258818e+00
3.874627e+00 1.500121e+00 1.260808e+00
3.874552e+00 1.625125e+00 1.262048e+00
3.874600e+00 1.750127e+00 1.261908e+00
3.874780e+00 1.875130e+00 1.260387e+00
3.874942e+00 2.000095e+00 1.257871e+00
3.875047e+00 2.125055e+00 1.254654e+00
3.875000e+00 2.250000e+00 1.250000e+00
4.000000e+00 7.500000e-01 1.250000e+00
4.000000e+00 8.750000e-01 1.250000e+00
4.000000e+00 1.000000e+00 1.250000e+00
4.000000e+00 1.125000e+00 1.250000e+00
4.000000e+00 1.250000e+00 1.250000e+00
4.000000e+00 1.375000e+00 1.250000e+00
4.000000e+00 1.500000e+00 1.250000e+00
4.000000e+00 1.625000e+00 1.250000e+00
4.000000e+00 1.750000e+00 1.250000e+00
4.000000e+00 1.875000e+00 1.250000e+00
4.000000e+00 2.000000e+00 1.250000e+00
4.000000e+00 2.125000e+00 1.250000e+00
4.000000e+00 2.250000e+00 1.250000e+00
POLYGONS 384 1536
3 0 13 14
3 0 14 1
3 1 14 15
3 1 15 2
3 2 15 16
3 2 16 3
3 3 16 17
3 3 17 4
3 4 17 18
3 4 18 5
3 5 18 19
3 5 19 6
3 6 19 20
3 6 20 7
3 7 20 21
3 7 21 8
3 8 21 22
3 8 22 9
3 9 22 23
3 9 23 10
3 10 23 24
3 10 24 11
3 11 24 25
3 11 25 12
3 13 26 27
3 13 27 14
3 14 27 28
3 14 28 15
3 15 28 29
3 15 29 16
3 16 29 30
3 16 30 17
3 17 30 31
3 17 31 18
3 18 31 32
3 18 32 19
3 19 32 33
3 19 33 20
3 20 33 34
3 20 34 21
3 21 34 35
3 21 35 22
3 22 35 36
3 22 36 23
3 23 36 37
3 23 37 24
3 24 37 38
3 24 38 25
3 26 39 40
3 26 40 27
3 27 40 41
3 27 41 28
3 28 41 42
3 28 42 29
3 29 42 43
3 29 43 30
3 30 43 44
3 30 44 31
3 31 44 45
3 31 45 32
3 32 45 46
3 32 46 33
3 33 46 47
3 33 47 34
3 34 47 48
3 34 48 35
3 35 48 49
3 35 49 36
3 36 49 50
3 36 50 37
3 37 50 51
3 37 51 38
3 39 52 53
3 39 53 40
3 40 53 54
3 40 54 41
3 41 54 55
3 41 55 42
3 42 55 56
3 42 56 43
3 43 56 57
3 43 57 44
3 44 57 58
3 44 58 45
3 45 58 59
3 45 59 46
3 46 59 60
3 46 60 47
3 47 60 61
3 47 61 48
3 48 61 62
3 48 62 49
3 49 62 63
3 49 63 50
3 50 63 64
3 50 64 51
3 52 65 66
3 52 66 53
3 53 66 67
3 53 67 54
3 54 67 68
3 54 68 55
3 55 68 69
3 55 69 56
3 56 69 70
3 56 70 57
3 57 70 71
3 57 71 58
3 58 71 72
3 58 72 59
3 59 72 73
3 59 73 60
3 60 73 74
3 60 74 61
3 61 74 75
3 61 75 62
3 62 75 76
3 62 76 63
3 63 76 77
3 63 77 64
3 65 78 79
3 65 79 66
3 66 79 80
3 66 80 67
3 67 80 81
3 67 81 68
3 68 81 82
3 68 82 69
3 69 82 83
3 69 83 70
3 70 83 84
3 70 84 71
3 71 84 85
3 71 85 72
3 72 85 86
3 72 86 73
3 73 86 87
3 73 87 74
3 74 87 88
3 74 88 75
3 75 88 89
3 75 89 76
3 76 89 90
3 76 90 77
3 78 91 92
3 78 92 79
3 79 92 93
3 79 93 80
3 80 93 94
3 80 94 81
3 81 94 95
3 81 95 82
3 82 95 96
3 82 96 83
3 83 96 97
3 83 97 84
3 84 97 98
3 84 98 85
3 85 98 99
3 85 99 86
3 86 99 100
3 86 100 87
3 87 100 101
3 87 101 88
3 88 101 102
3 88 102 89
3 89 102 103
3 89 103 90
3 91 104 105
3 91 105 92
3 92 105 106
3 92 106 93
3 93 106 107
3 93 107 94
3 94 107 108
3 94 108 95
3 95 108 109
3 95 109 96
3 96 109 110
3 96 110 97
3 97 110 111
3 97 111 98
3 98 111 112
3 98 112 99
3 99 112 113
3 99 113 100
3 100 113 114
3 100 114 101
3 101 114 115
3 101 115 102
3 102 115 116
3 102 116 103
3 104 117 118
3 104 118 105
3 105 118 119
3 105 119 106
3 106 119 120
3 106 120 107
3 107 120 121
3 107 121 108
3 108 121 122
3 108 122 109
3 109 122 123
3 109 123 110
3 110 123 124
3 110 124 111
3 111 124 125
3 111 125 112
3 112 125 126
3 112 126 113
3 113 126 127
3 113 127 114
3 114 127 128
3 114 128 115
3 115 128 129
3 115 129 116
3 117 130 131
3 117 131 118
3 118 131 132
3 118 132 119
3 119 132 133
3 119 133 120
3 120 133 134
3 120 134 121
3 121 134 135
3 121 135 122
3 122 135 136
3 122 136 123
3 123 136 137
3 123 137 124
3 124 137 138
3 124 138 125
3 125 138 139
3 125 139 126
3 126 139 140
3 126 140 127
3 127 140 141
3 127 141 128
3 128 141 142
3 128 142 129
3 130 143 144
3 130 144 131
3 131 144 145
3 131 145 132
3 132 145 146
3 132 146 133
3 133 146 147
3 133 147 134
3 134 147 148
3 134 148 135
3 135 148 149
3 135 149 136
3 136 149 150
3 136 150 137
3 137 150 151
3 137 151 138
3 138 151 152
3 138 152 139
3 139 152 153
3 139 153 140
3 140 153 154
3 140 154 141
3 141 154 155
3 141 155 142
3 143 156 157
3 143 157 144
3 144 157 158
3 144 158 145
3 145 158 159
3 145 159 146
3 146 159 160
3 146 160 147
3 147 160 161
3 147 161 148
3 148 161 162
3 148 162 149
3 149 162 163
3 149 163 150
3 150 163 164
3 150 164 151
3 151 164 165
3 151 165 152
3 152 165 166
3 152 166 153
3 153 166 167
3 153 167 154
3 154 167 168
3 154 168 155
3 156 169 170
3 156 170 157
3 157 170 171
3 157 171 158
3 158 171 172
3 158 172 159
3 159 172 173
3 159 173 160
3 160 173 174
3 160 174 161
3 161 174 175
3 161 175 162
3 162 175 176
3 162 176 163
3 163 176 177
3 163 177 164
3 164 177 178
3 164 178 165
3 165 178 179
3 165 179 166
3 166 179 180
3 166 180 167
3 167 180 181
3 167 181 168
3 169 182 183
3 169 183 170
3 170 183 184
3 170 184 171
3 171 184 185
3 171 185 172
3 172 185 186
3 172 186 173
3 173 186 187
3 173 187 174
3 174 187 188
3 174 188 175
3 175 188 189
3 175 189 176
3 176 189 190
3 176 190 177
3 177 190 191
3 177 191 178
3 178 191 192
3 178 192 179
3 179 192 193
3 179 193 180
3 180 193 194
3 180 194 181
3 182 195 196
3 182 196 183
3 183 196 197
3 183 197 184
3 184 197 198
3 184 198 185
3 185 198 199
3 185 199 186
3 186 199 200
3 186 200 187
3 187 200 201
3 187 201 188
3 188 201 202
3 188 202 189
3 189 202 203
3 189 203 190
3 190 203 204
3 190 204 191
3 191 204 205
3 191 205 192
3 192 205 206
3 192 206 193
3 193 206 207
3 193 207 194
3 195 208 209
3 195 209 196
3 196 209 210
3 196 210 197
3 197 210 211
3 197 211 198
3 198 211 212
3 198 212 199
3 199 212 213
3 199 213 200
3 200 213 214
3 200 214 201
3 201 214 215
3 201 215 202
3 202 215 216
3 202 216 203
3 203 216 217
3 203 217 204
3 204 217 218
3 204 218 205
3 205 218 219
3 205 219 206
3 206 219 220
3 206 220 207
POINT_DATA 221
VECTORS velocity float
0.000000e+00 0.000000e+00 0.000000e+00
0.000000e+00 0.000000e+00 0.000000e+00
0.000000e+00 0.000000e+00 0.000000e+00
0.000000e+00 0.000000e+00 0.000000e+00
0.000000e+00 0.000000e+00 0.000000e+00
0.000000e+00 0.000000e+00 0.000000e+00
0.000000e+00 0.000000e+00 0.000000e+00
0.000000e+00 0.000000e+00 0.000000e+00
0.000000e+00 0.000000e+00 0.000000e+00
0.000000e+00 0.000000e+00 0.000000e+00
0.000000e+00 0.000000e+00 0.000000e+00
0.000000e+00 0.000000e+00 0.000000e+00
0.000000e+00 0.000000e+00 0.000000e+00
0.000000e+00 0.000000e+00 0.000000e+00
3.154429e-03 5.303324e-03 -1.465039e-02
1.205722e-02 4.034862e-03 -1.653515e-02
1.219297e-02 2.235088e-03 -1.053280e-02
4.839410e-03 1.041515e-04 -2.420083e-02
2.803905e-03 -1.455158e-03 -2.027429e-02
6.184186e-03 -2.181191e-03 -2.226882e-02
1.097172e-02 -2.563000e-03 -1.722095e-02
1.592956e-02 -4.867972e-03 -1.179266e-02
1.487230e-02 -9.360140e-03 -1.742410e-02
1.069814e-02 -3.898381e-03 -3.668660e-03
4.585545e-03 2.338953e-03 -6.325150e-03
0.000000e+00 0.000000e+00 0.000000e+00
0.000000e+00 0.000000e+00 0.000000e+00
5.127436e-03 3.915685e-04 -2.680328e-02
1.080739e-02 -1.446190e-03 -3.491475e-02
1.696701e-02 2.641151e-03 -2.497704e-02
1.657510e-02 2.410869e-05 -3.104047e-02
1.022432e-02 -8.687525e-03 -3.173822e-02
1.428687e-02 -1.093078e-02 -3.338025e-02
2.370911e-02 -1.068722e-02 -4.369523e-02
3.478931e-02 -9.388910e-03 -3.486634e-02
2.995231e-02 -8.451457e-03 -4.005066e-02
1.888905e-02 -4.003340e-03 -1.507462e-02
1.020085e-02 2.699091e-03 -1.997928e-03
0.000000e+00 0.000000e+00 0.000000e+00
0.000000e+00 0.000000e+00 0.000000e+00
4.506645e-03 -1.301616e-03 -3.903986e-02
6.934903e-03 1.783845e-03 -6.615996e-02
1.423733e-02 8.070112e-04 -5.989587e-02
2.728644e-02 -3.756991e-03 -4.667156e-02
1.990240e-02 -1.473458e-02 -6.867043e-02
2.193573e-02 -1.812902e-02 -4.540473e-02
2.870707e-02 -2.132131e-02 -3.122859e-02
3.617066e-02 -1.818391e-02 -3.124645e-02
3.350425e-02 -8.930792e-03 -3.020654e-02
1.932187e-02 -3.471806e-03 -1.558619e-02
1.011237e-02 3.818219e-03 -2.040347e-02
0.000000e+00 0.000000e+00 0.000000e+00
0.000000e+00 0.000000e+00 0.000000e+00
5.044378e-03 2.226148e-04 -2.673790e-02
9.541334e-03 -9.715531e-04 -9.212476e-02
1.641049e-02 -5.803159e-03 -1.275671e-01
3.281157e-02 -7.537783e-03 -6.931623e-02
3.048789e-02 -1.368624e-02 -5.286498e-02
2.943333e-02 -1.735853e-02 -6.001597e-02
3.300752e-02 -2.006588e-02 -3.725541e-02
2.863564e-02 -1.609114e-02 -3.592372e-02
2.729105e-02 -2.962313e-03 -4.053766e-02
1.553964e-02 5.080941e-04 -1.918777e-02
6.132803e-03 3.616359e-03 -1.979554e-02
0.000000e+00 0.000000e+00 0.000000e+00
0.000000e+00 0.000000e+00 0.000000e+00
1.245848e-02 8.342371e-03 -1.974442e-02
2.167717e-02 3.064176e-03 -7.830114e-02
2.307420e-02 -8.272240e-03 -1.661722e-01
3.222968e-02 -1.338285e-02 -1.655431e-01
3.606079e-02 -1.493758e-02 -8.358826e-02
3.182335e-02 -1.486324e-02 -6.302419e-02
2.999284e-02 -1.270875e-02 -5.582684e-02
2.388492e-02 -8.703475e-03 -2.386773e-02
2.421696e-02 4.108272e-03 -2.371376e-02
1.688155e-02 1.056457e-02 -1.976498e-02
2.889270e-03 2.920944e-03 1.630466e-02
0.000000e+00 0.000000e+00 0.000000e+00
0.000000e+00 0.000000e+00 0.000000e+00
1.532302e-02 7.446029e-03 5.238471e-03
2.998966e-02 4.349369e-03 -5.833224e-02
2.754227e-02 -5.582021e-03 -1.612191e-01
2.741525e-02 -1.396813e-02 -2.240579e-01
3.610535e-02 -1.073021e-02 -1.478397e-01
3.218576e-02 -5.889299e-03 -3.180720e-02
2.490202e-02 -3.394845e-03 -2.145262e-02
1.863319e-02 8.643435e-04 -3.959796e-02
1.705407e-02 6.576178e-03 -2.236206e-02
1.342016e-02 1.224748e-02 -2.422023e-02
4.624946e-03 1.162326e-02 -2.647127e-02
0.000000e+00 0.000000e+00 0.000000e+00
0.000000e+00 0.000000e+00 0.000000e+00
1.797063e-02 5.277689e-03 3.958943e-02
3.506056e-02 9.386246e-03 -3.166911e-03
3.755891e-02 5.190710e-03 -1.173183e-01
2.808172e-02 -8.081495e-03 -2.369994e-01
2.843086e-02 -9.623324e-03 -2.408126e-01
2.512105e-02 -1.897128e-03 -9.726167e-02
1.985593e-02 2.908442e-03 -6.252059e-03
1.506207e-02 1.276925e-02 -4.929637e-02
8.099552e-03 1.872353e-02 -7.457790e-02
3.543247e-03 8.709447e-03 -8.013231e-03
1.131265e-03 9.727076e-03 -1.075539e-02
0.000000e+00 0.000000e+00 0.000000e+00
0.000000e+00 0.000000e+00 0.000000e+00
1.839576e-02 2.245979e-03 3.932438e-02
3.499764e-02 9.859730e-03 3.641923e-02
4.080552e-02 4.924864e-03 -7.057887e-02
3.205993e-02 -7.270454e-03 -2.133554e-01
2.555389e-02 -1.101320e-02 -3.215796e-01
1.876978e-02 -5.483466e-03 -2.559436e-01
1.532294e-02 -9.674941e-04 -9.141771e-02
1.561916e-02 8.848613e-03 -2.057705e-02
6.060994e-03 1.738395e-02 -6.771250e-02
5.277945e-03 8.851933e-03 -1.895174e-02
4.019362e-04 -1.393284e-03 4.030151e-02
0.000000e+00 0.000000e+00 0.000000e+00
0.000000e+00 0.000000e+00 0.000000e+00
1.545020e-02 -1.796527e-03 4.008868e-02
2.721754e-02 -3.234875e-04 4.400687e-02
3.833963e-02 2.190387e-03 -1.142179e-02
3.603518e-02 -1.320184e-03 -1.304008e-01
2.808009e-02 -2.102529e-03 -2.771356e-01
1.884941e-02 1.087660e-04 -3.251868e-01
1.517666e-02 5.689046e-03 -2.201313e-01
1.301295e-02 1.300992e-02 -6.299738e-02
3.633492e-03 1.477785e-02 -3.277098e-02
1.225676e-02 1.793672e-02 -7.099431e-02
7.702900e-03 7.352249e-03 -2.491140e-02
0.000000e+00 0.000000e+00 0.000000e+00
0.000000e+00 0.000000e+00 0.000000e+00
1.825102e-02 9.547563e-04 3.165100e-02
2.946958e-02 6.676501e-03 4.828707e-02
3.788283e-02 1.111249e-02 9.968680e-03
3.643246e-02 1.505159e-02 -7.207196e-02
3.049479e-02 1.529678e-02 -2.184259e-01
2.410666e-02 1.452954e-02 -3.387954e-01
2.126827e-02 1.834264e-02 -3.404073e-01
1.435875e-02 2.335364e-02 -2.213641e-01
4.977064e-03 1.969295e-02 -8.500041e-02
1.356769e-02 2.058928e-02 -5.842430e-02
1.391711e-02 1.730960e-02 -5.992484e-02
0.000000e+00 0.000000e+00 0.000000e+00
0.000000e+00 0.000000e+00 0.000000e+00
2.458319e-02 1.170797e-03 2.665122e-02
3.525291e-02 8.522467e-03 3.964564e-02
4.056240e-02 1.928974e-02 3.088213e-02
3.541190e-02 2.730518e-02 -2.828095e-02
3.041837e-02 2.819464e-02 -1.601426e-01
2.800201e-02 2.577056e-02 -3.107452e-01
3.021750e-02 2.490386e-02 -3.929056e-01
2.393389e-02 2.359664e-02 -3.561366e-01
1.495198e-02 1.848198e-02 -2.111840e-01
9.498479e-03 7.892495e-03 -4.751324e-02
1.122869e-02 4.760367e-03 7.980235e-03
0.000000e+00 0.000000e+00 0.000000e+00
0.000000e+00 0.000000e+00 0.000000e+00
2.604627e-02 5.878884e-03 1.841151e-02
3.312985e-02 3.833982e-03 3.125647e-02
3.432816e-02 9.392525e-03 2.659355e-02
3.199991e-02 2.095914e-02 -6.073597e-03
3.098301e-02 2.633649e-02 -9.026328e-02
3.042783e-02 2.349977e-02 -2.369120e-01
3.402679e-02 2.198680e-02 -3.574071e-01
2.806823e-02 1.826603e-02 -3.970238e-01
1.945296e-02 1.588837e-02 -3.225306e-01
6.649905e-03 5.917949e-03 -1.502582e-01
5.661740e-03 -1.687696e-03 -1.407212e-02
0.000000e+00 0.000000e+00 0.000000e+00
0.000000e+00 0.000000e+00 0.000000e+00
2.076280e-02 9.530033e-03 7.338369e-03
3.247041e-02 1.125493e-02 8.809955e-03
2.653492e-02 1.218209e-02 -3.496243e-03
2.579234e-02 2.127777e-02 -1.749207e-02
2.745025e-02 2.146985e-02 -6.254306e-02
2.951218e-02 1.683141e-02 -1.812645e-01
2.675845e-02 1.487044e-02 -3.151874e-01
2.662152e-02 1.387100e-02 -4.180915e-01
2.207907e-02 1.198233e-02 -4.364741e-01
1.310559e-02 8.523099e-03 -3.390335e-01
5.389122e-03 3.422879e-04 -1.446892e-01
0.000000e+00 0.000000e+00 0.000000e+00
0.000000e+00 0.000000e+00 0.000000e+00
1.785220e-02 7.139788e-03 -6.209029e-03
2.771221e-02 1.497460e-02 -1.544248e-02
1.840829e-02 2.114817e-02 -3.217757e-02
2.064834e-02 2.604785e-02 -4.725078e-02
2.434328e-02 2.376162e-02 -7.733407e-02
2.363385e-02 2.212076e-02 -1.522079e-01
2.172692e-02 2.273563e-02 -2.783263e-01
2.839896e-02 2.005066e-02 -3.928685e-01
2.726409e-02 1.259588e-02 -4.543908e-01
1.897247e-02 8.223142e-03 -4.178483e-01
7.455353e-03 4.853786e-03 -2.624919e-01
0.000000e+00 0.000000e+00 0.000000e+00
0.000000e+00 0.000000e+00 0.000000e+00
1.022666e-02 4.232397e-03 -8.600310e-03
1.365787e-02 9.766263e-03 -1.163563e-02
9.397795e-03 1.733969e-02 -2.896436e-02
1.349868e-02 1.566230e-02 -4.203867e-02
2.018675e-02 1.571979e-02 -5.455272e-02
1.893472e-02 1.833814e-02 -9.214570e-02
1.786495e-02 2.075583e-02 -1.582651e-01
2.465394e-02 2.137725e-02 -2.545351e-01
2.242430e-02 1.621972e-02 -3.059458e-01
1.194293e-02 8.544687e-03 -2.975060e-01
3.362966e-03 6.097194e-03 -2.114982e-01
0.000000e+00 0.000000e+00 0.000000e+00
0.000000e+00 0.000000e+00 0.000000e+00
0.000000e+00 0.000000e+00 0.000000e+00
0.000000e+00 0.000000e+00 0.000000e+00
0.000000e+00 0.000000e+00 0.000000e+00
0.000000e+00 0.000000e+00 0.000000e+00
0.000000e+00 0.000000e+00 0.000000e+00
0.000000e+00 0.000000e+00 0.000000e+00
0.000000e+00 0.000000e+00 0.000000e+00
0.000000e+00 0.000000e+00 0.000000e+00
0.000000e+00 0.000000e+00 0.000000e+00
0.000000e+00 0.000000e+00 0.000000e+00
0.000000e+00 0.000000e+00 0.000000e+00
0.000000e+00 0.000000e+00 0.000000e+00
