# vtk DataFile Version 3.0
tensile membrane
ASCII
DATASET POLYDATA
POINTS 221 float
2.000000e+00 7.500000e-01 1.250000e+00
2.000000e+00 8.750000e-01 1.250000e+00
2.000000e+00 1.000000e+00 1.250000e+00
2.000000e+00 1.125000e+00 1.250000e+00
2.000000e+00 1.250000e+00 1.250000e+00
2.000000e+00 1.375000e+00 1.250000e+00
2.000000e+00 1.500000e+00 1.250000e+00
2.000000e+00 1.625000e+00 1.250000e+00
2.000000e+00 1.750000e+00 1.250000e+00
2.000000e+00 1.875000e+00 1.250000e+00
2.000000e+00 2.000000e+00 1.250000e+00
2.000000e+00 2.125000e+00 1.250000e+00
2.000000e+00 2.250000e+00 1.250000e+00
2.125000e+00 7.500000e-01 1.250000e+00
2.124741e+00 8.747126e-01 1.232268e+00
2.124580e+00 9.997117e-01 1.226000e+00
2.124497e+00 1.124808e+00 1.223488e+00
2.124418e+00 1.249912e+00 1.222869e+00
2.124356e+00 1.375005e+00 1.223087e+00
2.124339e+00 1.500091e+00 1.223902e+00
2.124357e+00 1.625185e+00 1.225245e+00
2.124403e+00 1.750297e+00 1.227087e+00
2.124480e+00 1.875361e+00 1.229896e+00
2.124603e+00 2.000358e+00 1.234165e+00
2.124774e+00 2.125251e+00 1.240486e+00
2.125000e+00 2.250000e+00 1.250000e+00
2.250000e+00 7.500000e-01 1.250000e+00
2.249670e+00 8.744060e-01 1.222386e+00
2.249340e+00 9.993065e-01 1.207923e+00
2.249138e+00 1.124496e+00 1.201265e+00
2.248978e+00 1.249759e+00 1.198718e+00
2.248863e+00 1.374980e+00 1.198612e+00
2.248835e+00 1.500171e+00 1.200137e+00
2.248867e+00 1.625370e+00 1.202848e+00
2.248965e+00 1.750563e+00 1.206890e+00
2.249129e+00 1.875679e+00 1.212604e+00
2.249361e+00 2.000671e+00 1.220933e+00
2.249658e+00 2.125472e+00 1.232901e+00
2.250000e+00 2.250000e+00 1.250000e+00
2.375000e+00 7.500000e-01 1.250000e+00
2.374730e+00 8.741649e-01 1.216646e+00
2.374313e+00 9.989201e-01 1.195518e+00
2.374000e+00 1.124118e+00 1.184068e+00
2.373789e+00 1.249507e+00 1.179038e+00
2.373645e+00 1.374877e+00 1.178092e+00
2.373605e+00 1.500199e+00 1.180047e+00
2.373645e+00 1.625505e+00 1.184184e+00
2.373765e+00 1.750778e+00 1.190254e+00
2.373982e+00 1.875942e+00 1.198976e+00
2.374273e+00 2.000927e+00 1.210826e+00
2.374621e+00 2.125643e+00 1.227337e+00
2.375000e+00 2.250000e+00 1.250000e+00
2.500000e+00 7.500000e-01 1.250000e+00
2.499834e+00 8.739686e-01 1.212682e+00
2.499434e+00 9.985874e-01 1.186905e+00
2.499069e+00 1.123738e+00 1.171316e+00
2.498813e+00 1.249188e+00 1.163381e+00
2.498640e+00 1.374694e+00 1.160926e+00
2.498560e+00 1.500175e+00 1.162425e+00
2.498592e+00 1.625615e+00 1.167672e+00
2.498701e+00 1.750974e+00 1.175667e+00
2.498912e+00 1.876191e+00 1.187228e+00
2.499247e+00 2.001165e+00 1.202839e+00
2.499615e+00 2.125800e+00 1.223153e+00
2.500000e+00 2.250000e+00 1.250000e+00
2.625000e+00 7.500000e-01 1.250000e+00
2.624971e+00 8.737876e-01 1.209667e+00
2.624664e+00 9.982524e-01 1.179709e+00
2.624284e+00 1.123325e+00 1.159992e+00
2.623969e+00 1.248817e+00 1.148963e+00
2.623763e+00 1.374483e+00 1.144932e+00
2.623643e+00 1.500156e+00 1.145968e+00
2.623655e+00 1.625766e+00 1.152065e+00
2.623759e+00 1.751222e+00 1.162338e+00
2.623924e+00 1.876461e+00 1.176516e+00
2.624249e+00 2.001399e+00 1.195594e+00
2.624621e+00 2.125934e+00 1.219720e+00
2.625000e+00 2.250000e+00 1.250000e+00
2.750000e+00 7.500000e-01 1.250000e+00
2.750124e+00 8.736257e-01 1.207270e+00
2.749940e+00 9.979496e-01 1.174336e+00
2.749624e+00 1.122965e+00 1.151045e+00
2.749292e+00 1.248476e+00 1.136555e+00
2.749043e+00 1.374266e+00 1.130051e+00
2.748875e+00 1.500135e+00 1.130405e+00
2.748824e+00 1.625934e+00 1.136758e+00
2.748887e+00 1.751510e+00 1.148976e+00
2.749005e+00 1.876757e+00 1.166219e+00
2.749279e+00 2.001636e+00 1.188749e+00
2.749640e+00 2.126066e+00 1.216635e+00
2.750000e+00 2.250000e+00 1.250000e+00
2.875000e+00 7.500000e-01 1.250000e+00
2.875298e+00 8.734838e-01 1.204979e+00
2.875275e+00 9.976586e-01 1.169386e+00
2.875062e+00 1.122594e+00 1.143717e+00
2.874785e+00 1.248110e+00 1.127146e+00
2.874533e+00 1.373969e+00 1.118620e+00
2.874324e+00 1.499988e+00 1.117653e+00
2.874208e+00 1.625964e+00 1.123991e+00
2.874172e+00 1.751699e+00 1.136999e+00
2.874212e+00 1.877029e+00 1.156282e+00
2.874373e+00 2.001863e+00 1.181789e+00
2.874674e+00 2.126187e+00 1.213282e+00
2.875000e+00 2.250000e+00 1.250000e+00
3.000000e+00 7.500000e-01 1.250000e+00
3.000423e+00 8.733909e-01 1.204381e+00
3.000622e+00 9.974637e-01 1.166965e+00
3.000594e+00 1.122300e+00 1.139004e+00
3.000432e+00 1.247788e+00 1.120540e+00
3.000211e+00 1.373687e+00 1.110600e+00
2.999981e+00 1.499792e+00 1.108553e+00
2.999798e+00 1.625887e+00 1.114410e+00
2.999653e+00 1.751733e+00 1.128001e+00
2.999579e+00 1.877138e+00 1.148793e+00
2.999586e+00 2.001987e+00 1.176227e+00
2.999747e+00 2.126256e+00 1.210256e+00
3.000000e+00 2.250000e+00 1.250000e+00
3.125000e+00 7.500000e-01 1.250000e+00
3.125522e+00 8.733769e-01 1.205151e+00
3.125933e+00 9.973970e-01 1.167421e+00
3.126128e+00 1.122153e+00 1.138481e+00
3.126126e+00 1.247572e+00 1.118578e+00
3.125984e+00 1.373455e+00 1.107222e+00
3.125764e+00 1.499579e+00 1.104086e+00
3.125520e+00 1.625735e+00 1.109043e+00
3.125270e+00 1.751673e+00 1.122087e+00
3.125046e+00 1.877145e+00 1.143386e+00
3.124856e+00 2.002005e+00 1.172280e+00
3.124839e+00 2.126264e+00 1.208179e+00
3.125000e+00 2.250000e+00 1.250000e+00
3.250000e+00 7.500000e-01 1.250000e+00
3.250625e+00 8.733832e-01 1.206934e+00
3.251232e+00 9.973608e-01 1.169790e+00
3.251666e+00 1.122050e+00 1.140501e+00
3.251857e+00 1.247407e+00 1.119812e+00
3.251828e+00 1.373257e+00 1.107702e+00
3.251638e+00 1.499366e+00 1.104025e+00
3.251336e+00 1.625513e+00 1.108370e+00
3.250983e+00 1.751501e+00 1.120570e+00
3.250595e+00 1.877062e+00 1.141056e+00
3.250195e+00 2.001999e+00 1.169856e+00
3.249957e+00 2.126274e+00 1.206652e+00
3.250000e+00 2.250000e+00 1.250000e+00
3.375000e+00 7.500000e-01 1.250000e+00
3.375710e+00 8.735130e-01 1.210606e+00
3.376473e+00 9.974787e-01 1.175078e+00
3.377151e+00 1.122099e+00 1.145835e+00
3.377565e+00 1.247372e+00 1.124364e+00
3.377685e+00 1.373163e+00 1.111491e+00
3.377550e+00 1.499220e+00 1.107078e+00
3.377193e+00 1.625310e+00 1.110936e+00
3.376721e+00 1.751251e+00 1.122640e+00
3.376162e+00 1.876825e+00 1.142488e+00
3.375562e+00 2.001847e+00 1.170264e+00
3.375109e+00 2.126220e+00 1.206287e+00
3.375000e+00 2.250000e+00 1.250000e+00
3.500000e+00 7.500000e-01 1.250000e+00
3.500751e+00 8.737681e-01 1.216750e+00
3.501606e+00 9.978407e-01 1.184927e+00
3.502453e+00 1.122399e+00 1.156912e+00
3.503069e+00 1.247537e+00 1.135142e+00
3.503343e+00 1.373179e+00 1.121243e+00
3.503310e+00 1.499115e+00 1.115268e+00
3.502949e+00 1.625102e+00 1.117661e+00
3.502367e+00 1.750958e+00 1.128114e+00
3.501634e+00 1.876492e+00 1.146762e+00
3.500860e+00 2.001554e+00 1.173275e+00
3.500245e+00 2.126057e+00 1.207630e+00
3.500000e+00 2.250000e+00 1.250000e+00
3.625000e+00 7.500000e-01 1.250000e+00
3.625695e+00 8.740728e-01 1.224783e+00
3.626518e+00 9.983400e-01 1.199387e+00
3.627404e+00 1.122925e+00 1.175450e+00
3.628137e+00 1.247923e+00 1.154941e+00
3.628512e+00 1.373331e+00 1.140509e+00
3.628589e+00 1.499044e+00 1.132890e+00
3.628328e+00 1.624865e+00 1.132564e+00
3.627728e+00 1.750612e+00 1.140216e+00
3.626904e+00 1.876102e+00 1.156053e+00
3.626042e+00 2.001210e+00 1.179503e+00
3.625332e+00 2.125845e+00 1.210656e+00
3.625000e+00 2.250000e+00 1.250000e+00
3.750000e+00 7.500000e-01 1.250000e+00
3.750543e+00 8.743671e-01 1.233464e+00
3.751177e+00 9.988654e-01 1.216345e+00
3.751888e+00 1.123570e+00 1.199453e+00
3.752558e+00 1.248540e+00 1.183697e+00
3.752959e+00 1.373724e+00 1.170998e+00
3.753096e+00 1.499118e+00 1.162993e+00
3.752961e+00 1.624676e+00 1.160613e+00
3.752518e+00 1.750231e+00 1.164133e+00
3.751806e+00 1.875631e+00 1.174659e+00
3.751025e+00 2.000760e+00 1.191950e+00
3.750359e+00 2.125544e+00 1.216455e+00
3.750000e+00 2.250000e+00 1.250000e+00
3.875000e+00 7.500000e-01 1.250000e+00
3.875315e+00 8.746594e-01 1.241985e+00
3.875661e+00 9.994133e-01 1.233459e+00
3.876037e+00 1.124270e+00 1.224982e+00
3.876411e+00 1.249264e+00 1.216794e+00
3.876692e+00 1.374351e+00 1.209536e+00
3.876820e+00 1.499502e+00 1.204166e+00
3.876775e+00 1.624729e+00 1.201576e+00
3.876568e+00 1.750001e+00 1.202037e+00
3.876186e+00 1.875248e+00 1.206296e+00
3.875722e+00 2.000342e+00 1.214632e+00
3.875303e+00 2.125262e+00 1.227663e+00
3.875000e+00 2.250000e+00 1.250000e+00
4.000000e+00 7.500000e-01 1.250000e+00
4.000000e+00 8.750000e-01 1.250000e+00
4.000000e+00 1.000000e+00 1.250000e+00
4.000000e+00 1.125000e+00 1.250000e+00
4.000000e+00 1.250000e+00 1.250000e+00
4.000000e+00 1.375000e+00 1.250000e+00
4.000000e+00 1.500000e+00 1.250000e+00
4.000000e+00 1.625000e+00 1.250000e+00
4.000000e+00 1.750000e+00 1.250000e+00
4.000000e+00 1.875000e+00 1.250000e+00
4.000000e+00 2.000000e+00 1.250000e+00
4.000000e+00 2.125000e+00 1.250000e+00
4.000000e+00 2.250000e+00 1.250000e+00
POLYGONS 384 1536
3 0 13 14
3 0 14 1
3 1 14 15
3 1 15 2
3 2 15 16
3 2 16 3
3 3 16 17
3 3 17 4
3 4 17 18
3 4 18 5
3 5 18 19
3 5 19 6
3 6 19 20
3 6 20 7
3 7 20 21
3 7 21 8
3 8 21 22
3 8 22 9
3 9 22 23
3 9 23 10
3 10 23 24
3 10 24 11
3 11 24 25
3 11 25 12
3 13 26 27
3 13 27 14
3 14 27 28
3 14 28 15
3 15 28 29
3 15 29 16
3 16 29 30
3 16 30 17
3 17 30 31
3 17 31 18
3 18 31 32
3 18 32 19
3 19 32 33
3 19 33 20
3 20 33 34
3 20 34 21
3 21 34 35
3 21 35 22
3 22 35 36
3 22 36 23
3 23 36 37
3 23 37 24
3 24 37 38
3 24 38 25
3 26 39 40
3 26 40 27
3 27 40 41
3 27 41 28
3 28 41 42
3 28 42 29
3 29 42 43
3 29 43 30
3 30 43 44
3 30 44 31
3 31 44 45
3 31 45 32
3 32 45 46
3 32 46 33
3 33 46 47
3 33 47 34
3 34 47 48
3 34 48 35
3 35 48 49
3 35 49 36
3 36 49 50
3 36 50 37
3 37 50 51
3 37 51 38
3 39 52 53
3 39 53 40
3 40 53 54
3 40 54 41
3 41 54 55
3 41 55 42
3 42 55 56
3 42 56 43
3 43 56 57
3 43 57 44
3 44 57 58
3 44 58 45
3 45 58 59
3 45 59 46
3 46 59 60
3 46 60 47
3 47 60 61
3 47 61 48
3 48 61 62
3 48 62 49
3 49 62 63
3 49 63 50
3 50 63 64
3 50 64 51
3 52 65 66
3 52 66 53
3 53 66 67
3 53 67 54
3 54 67 68
3 54 68 55
3 55 68 69
3 55 69 56
3 56 69 70
3 56 70 57
3 57 70 71
3 57 71 58
3 58 71 72
3 58 72 59
3 59 72 73
3 59 73 60
3 60 73 74
3 60 74 61
3 61 74 75
3 61 75 62
3 62 75 76
3 62 76 63
3 63 76 77
3 63 77 64
3 65 78 79
3 65 79 66
3 66 79 80
3 66 80 67
3 67 80 81
3 67 81 68
3 68 81 82
3 68 82 69
3 69 82 83
3 69 83 70
3 70 83 84
3 70 84 71
3 71 84 85
3 71 85 72
3 72 85 86
3 72 86 73
3 73 86 87
3 73 87 74
3 74 87 88
3 74 88 75
3 75 88 89
3 75 89 76
3 76 89 90
3 76 90 77
3 78 91 92
3 78 92 79
3 79 92 93
3 79 93 80
3 80 93 94
3 80 94 81
3 81 94 95
3 81 95 82
3 82 95 96
3 82 96 83
3 83 96 97
3 83 97 84
3 84 97 98
3 84 98 85
3 85 98 99
3 85 99 86
3 86 99 100
3 86 100 87
3 87 100 101
3 87 101 88
3 88 101 102
3 88 102 89
3 89 102 103
3 89 103 90
3 91 104 105
3 91 105 92
3 92 105 106
3 92 106 93
3 93 106 107
3 93 107 94
3 94 107 108
3 94 108 95
3 95 108 109
3 95 109 96
3 96 109 110
3 96 110 97
3 97 110 111
3 97 111 98
3 98 111 112
3 98 112 99
3 99 112 113
3 99 113 100
3 100 113 114
3 100 114 101
3 101 114 115
3 101 115 102
3 102 115 116
3 102 116 103
3 104 117 118
3 104 118 105
3 105 118 119
3 105 119 106
3 106 119 120
3 106 120 107
3 107 120 121
3 107 121 108
3 108 121 122
3 108 122 109
3 109 122 123
3 109 123 110
3 110 123 124
3 110 124 111
3 111 124 125
3 111 125 112
3 112 125 126
3 112 126 113
3 113 126 127
3 113 127 114
3 114 127 128
3 114 128 115
3 115 128 129
3 115 129 116
3 117 130 131
3 117 131 118
3 118 131 132
3 118 132 119
3 119 132 133
3 119 133 120
3 120 133 134
3 120 134 121
3 121 134 135
3 121 135 122
3 122 135 136
3 122 136 123
3 123 136 137
3 123 137 124
3 124 137 138
3 124 138 125
3 125 138 139
3 125 139 126
3 126 139 140
3 126 140 127
3 127 140 141
3 127 141 128
3 128 141 142
3 128 142 129
3 130 143 144
3 130 144 131
3 131 144 145
3 131 145 132
3 132 145 146
3 132 146 133
3 133 146 147
3 133 147 134
3 134 147 148
3 134 148 135
3 135 148 149
3 135 149 136
3 136 149 150
3 136 150 137
3 137 150 151
3 137 151 138
3 138 151 152
3 138 152 139
3 139 152 153
3 139 153 140
3 140 153 154
3 140 154 141
3 141 154 155
3 141 155 142
3 143 156 157
3 143 157 144
3 144 157 158
3 144 158 145
3 145 158 159
3 145 159 146
3 146 159 160
3 146 160 147
3 147 160 161
3 147 161 148
3 148 161 162
3 148 162 149
3 149 162 163
3 149 163 150
3 150 163 164
3 150 164 151
3 151 164 165
3 151 165 152
3 152 165 166
3 152 166 153
3 153 166 167
3 153 167 154
3 154 167 168
3 154 168 155
3 156 169 170
3 156 170 157
3 157 170 171
3 157 171 158
3 158 171 172
3 158 172 159
3 159 172 173
3 159 173 160
3 160 173 174
3 160 174 161
3 161 174 175
3 161 175 162
3 162 175 176
3 162 176 163
3 163 176 177
3 163 177 164
3 164 177 178
3 164 178 165
3 165 178 179
3 165 179 166
3 166 179 180
3 166 180 167
3 167 180 181
3 167 181 168
3 169 182 183
3 169 183 170
3 170 183 184
3 170 184 171
3 171 184 185
3 171 185 172
3 172 185 186
3 172 186 173
3 173 186 187
3 173 187 174
3 174 187 188
3 174 188 175
3 175 188 189
3 175 189 176
3 176 189 190
3 176 190 177
3 177 190 191
3 177 191 178
3 178 191 192
3 178 192 179
3 179 192 193
3 179 193 180
3 180 193 194
3 180 194 181
3 182 195 196
3 182 196 183
3 183 196 197
3 183 197 184
3 184 197 198
3 184 198 185
3 185 198 199
3 185 199 186
3 186 199 200
3 186 200 187
3 187 200 201
3 187 201 188
3 188 201 202
3 188 202 189
3 189 202 203
3 189 203 190
3 190 203 204
3 190 204 191
3 191 204 205
3 191 205 192
3 192 205 206
3 192 206 193
3 193 206 207
3 193 207 194
3 195 208 209
3 195 209 196
3 196 209 210
3 196 210 197
3 197 210 211
3 197 211 198
3 198 211 212
3 198 212 199
3 199 212 213
3 199 213 200
3 200 213 214
3 200 214 201
3 201 214 215
3 201 215 202
3 202 215 216
3 202 216 203
3 203 216 217
3 203 217 204
3 204 217 218
3 204 218 205
3 205 218 219
3 205 219 206
3 206 219 220
3 206 220 207
POINT_DATA 221
VECTORS velocity float
0.000000e+00 0.000000e+00 0.000000e+00
0.000000e+00 0.000000e+00 0.000000e+00
0.000000e+00 0.000000e+00 0.000000e+00
0.000000e+00 0.000000e+00 0.000000e+00
0.000000e+00 0.000000e+00 0.000000e+00
0.000000e+00 0.000000e+00 0.000000e+00
0.000000e+00 0.000000e+00 0.000000e+00
0.000000e+00 0.000000e+00 0.000000e+00
0.000000e+00 0.000000e+00 0.000000e+00
0.000000e+00 0.000000e+00 0.000000e+00
0.000000e+00 0.000000e+00 0.000000e+00
0.000000e+00 0.000000e+00 0.000000e+00
0.000000e+00 0.000000e+00 0.000000e+00
0.000000e+00 0.000000e+00 0.000000e+00
3.934280e-03 5.585938e-03 -1.449211e-02
2.948349e-03 5.848511e-03 -1.829460e-02
-1.015013e-03 4.143791e-03 -3.000728e-02
-2.606064e-03 4.280853e-03 -1.678850e-02
-3.135264e-03 2.895959e-03 -9.352991e-03
-2.544330e-03 -8.233888e-04 -1.183806e-02
1.000860e-03 -3.253376e-03 3.159441e-03
4.400595e-03 -4.546042e-03 -5.166264e-03
5.561860e-03 -2.383625e-03 -1.094034e-02
3.962792e-03 -1.499711e-03 -1.909077e-02
4.485943e-03 -1.373627e-03 -1.214999e-02
0.000000e+00 0.000000e+00 0.000000e+00
0.000000e+00 0.000000e+00 0.000000e+00
5.274426e-03 1.007447e-02 -8.938718e-03
7.234512e-03 1.538739e-02 -1.655216e-02
2.309391e-05 1.225681e-02 -1.730432e-02
-3.060134e-03 7.241456e-03 -3.913215e-02
-1.281322e-03 1.816817e-03 -2.990780e-02
2.182622e-05 -6.171709e-03 -3.006371e-02
3.400743e-03 -1.154835e-02 -7.646906e-03
7.223963e-03 -1.201317e-02 3.230729e-03
1.174693e-02 -7.440766e-03 -1.338418e-03
1.102646e-02 -5.284013e-03 -1.007487e-02
6.697855e-03 -5.050655e-03 -1.642812e-02
0.000000e+00 0.000000e+00 0.000000e+00
0.000000e+00 0.000000e+00 0.000000e+00
1.865225e-03 7.687572e-03 -2.705670e-02
3.499059e-03 1.374476e-02 -4.855520e-02
9.642760e-04 1.307440e-02 -1.772526e-02
3.048090e-03 6.489016e-03 -5.691996e-03
3.848850e-03 -1.527682e-03 -1.990096e-02
4.186888e-03 -8.641911e-03 -2.007121e-02
6.742201e-03 -1.218066e-02 -2.070015e-02
7.590679e-03 -1.177032e-02 -1.851262e-02
1.253564e-02 -7.414678e-03 -1.023197e-02
1.198571e-02 -5.118283e-03 9.517690e-04
6.727327e-03 -3.662517e-03 -1.061043e-03
0.000000e+00 0.000000e+00 0.000000e+00
0.000000e+00 0.000000e+00 0.000000e+00
-2.875238e-03 3.815469e-03 7.190033e-03
-3.507105e-03 4.983842e-03 6.816476e-04
-4.128085e-03 6.079089e-04 -1.245173e-02
2.624131e-03 -2.166846e-03 -1.343979e-02
4.120850e-03 -4.665280e-03 -3.733497e-02
1.981641e-03 -8.143910e-03 -5.515091e-02
4.924473e-03 -9.489523e-03 -2.209089e-02
7.338366e-03 -8.380765e-03 -1.389479e-02
8.773861e-03 -3.889718e-03 -1.318723e-02
9.620734e-03 -2.118850e-03 1.584350e-02
5.503135e-03 -2.143800e-03 2.527894e-03
0.000000e+00 0.000000e+00 0.000000e+00
0.000000e+00 0.000000e+00 0.000000e+00
-3.720586e-03 3.282246e-04 -2.884648e-02
-3.658778e-03 6.929308e-04 -2.684381e-02
-4.222757e-03 -3.588270e-03 -1.421091e-02
1.050184e-03 -7.050821e-03 -1.113125e-02
1.699366e-03 -1.119802e-02 -3.763182e-02
3.227960e-04 -1.081224e-02 -5.860201e-02
-3.272897e-04 -7.920926e-03 -4.574468e-02
5.363813e-03 -2.776555e-03 -7.815110e-03
5.776527e-03 1.919378e-04 -4.131415e-02
7.018237e-03 -1.067187e-03 3.855165e-04
5.451153e-03 -1.700298e-03 1.516499e-02
0.000000e+00 0.000000e+00 0.000000e+00
0.000000e+00 0.000000e+00 0.000000e+00
-2.769260e-03 2.730020e-04 -8.472799e-03
-2.659947e-03 -1.596725e-03 -4.982668e-02
-5.773296e-04 -3.781759e-03 -1.176716e-01
-1.608170e-04 -7.445984e-03 -1.477303e-01
-1.680928e-03 -9.408764e-03 -1.198448e-01
-1.057068e-03 -9.354495e-03 -6.913173e-02
-2.920630e-03 -6.549341e-03 -7.251243e-02
-2.328424e-03 -3.895426e-04 -2.716281e-02
8.064612e-05 -3.200131e-04 -1.363169e-02
1.238144e-03 -2.672379e-04 -1.790038e-02
2.244674e-03 -2.393458e-04 1.108863e-02
0.000000e+00 0.000000e+00 0.000000e+00
0.000000e+00 0.000000e+00 0.000000e+00
-2.685139e-03 1.933455e-03 -4.695461e-02
-4.429717e-03 -1.600872e-03 -6.046006e-02
-3.589217e-03 1.997122e-03 -8.713150e-02
-6.308756e-03 4.426587e-03 -1.339828e-01
-1.033296e-02 1.339393e-03 -1.587295e-01
-1.004537e-02 -9.017272e-04 -1.009180e-01
-1.275620e-02 -2.024220e-03 -1.074311e-01
-1.383998e-02 3.659378e-03 -1.179691e-01
-1.101973e-02 3.355921e-03 -8.876461e-02
-5.941501e-03 4.800831e-03 -5.897150e-02
-1.225161e-03 5.065018e-03 -6.045369e-03
0.000000e+00 0.000000e+00 0.000000e+00
0.000000e+00 0.000000e+00 0.000000e+00
1.918132e-03 2.605080e-03 -1.309823e-01
2.611083e-03 -1.049558e-03 -1.913205e-01
-3.930634e-03 1.578740e-04 -2.092743e-01
-1.258263e-02 4.161493e-03 -2.084143e-01
-1.560037e-02 5.041427e-03 -2.292447e-01
-1.531627e-02 5.624989e-03 -2.043781e-01
-1.752691e-02 8.505644e-03 -1.836624e-01
-1.932763e-02 1.508295e-02 -1.743416e-01
-1.728096e-02 1.718538e-02 -1.637889e-01
-1.281638e-02 1.673073e-02 -1.579071e-01
-5.853020e-03 1.160306e-02 -7.055525e-02
0.000000e+00 0.000000e+00 0.000000e+00
0.000000e+00 0.000000e+00 0.000000e+00
6.936953e-04 -5.656629e-03 -1.401230e-01
1.977266e-03 -4.730806e-03 -2.344235e-01
-4.963209e-03 5.675047e-05 -2.922611e-01
-1.326249e-02 6.490734e-03 -3.071441e-01
-1.447195e-02 7.905716e-03 -3.424692e-01
-1.162747e-02 8.284121e-03 -3.647379e-01
-1.019084e-02 1.534469e-02 -3.517976e-01
-1.345253e-02 2.328347e-02 -3.064424e-01
-1.679482e-02 2.467895e-02 -2.372128e-01
-1.503778e-02 2.177667e-02 -1.930800e-01
-1.074675e-02 1.235094e-02 -1.143034e-01
0.000000e+00 0.000000e+00 0.000000e+00
0.000000e+00 0.000000e+00 0.000000e+00
3.347912e-03 -6.214144e-03 -1.594281e-01
-2.064453e-03 -4.447512e-03 -2.474295e-01
-9.295233e-03 2.397808e-03 -2.731451e-01
-1.324146e-02 9.938300e-03 -2.783713e-01
-1.216226e-02 1.170882e-02 -3.162454e-01
-9.127674e-03 4.711623e-03 -3.607739e-01
-6.326130e-03 4.030002e-03 -4.196932e-01
-7.392540e-03 1.373859e-02 -4.228546e-01
-1.256420e-02 2.510279e-02 -3.748005e-01
-1.041154e-02 2.962021e-02 -2.863080e-01
-9.443498e-03 1.515321e-02 -1.463980e-01
0.000000e+00 0.000000e+00 0.000000e+00
0.000000e+00 0.000000e+00 0.000000e+00
1.645973e-03 -6.087446e-03 -2.182127e-01
-3.805973e-03 -6.455747e-03 -3.141790e-01
-6.768209e-03 -4.899972e-03 -3.355158e-01
-7.236365e-03 1.312162e-03 -2.824588e-01
-1.099657e-02 3.154436e-03 -2.509590e-01
-6.566743e-03 1.092403e-03 -2.415551e-01
-2.914223e-03 1.193155e-03 -3.039658e-01
-6.328565e-03 9.175711e-03 -3.741384e-01
-1.301023e-02 2.205389e-02 -4.114771e-01
-8.282069e-03 2.892667e-02 -3.789463e-01
-4.652908e-03 1.516904e-02 -2.158415e-01
0.000000e+00 0.000000e+00 0.000000e+00
0.000000e+00 0.000000e+00 0.000000e+00
-1.036718e-03 -1.077498e-02 -2.468850e-01
-4.124360e-03 -1.668464e-02 -4.081248e-01
-2.877338e-04 -1.600610e-02 -4.624075e-01
1.182053e-03 -7.188815e-03 -4.236937e-01
-5.046411e-03 -3.850824e-03 -3.721738e-01
-4.876313e-03 1.627679e-04 -3.168332e-01
-3.281024e-03 5.464751e-03 -3.021311e-01
-8.038739e-03 1.278369e-02 -3.281916e-01
-1.617139e-02 2.176392e-02 -3.703336e-01
-1.398874e-02 2.163261e-02 -3.782263e-01
-2.586026e-03 1.298408e-02 -2.520750e-01
0.000000e+00 0.000000e+00 0.000000e+00
0.000000e+00 0.000000e+00 0.000000e+00
4.782765e-03 -1.214461e-02 -2.085026e-01
6.389979e-03 -2.554436e-02 -4.135155e-01
1.357885e-02 -2.871060e-02 -5.733107e-01
1.511386e-02 -1.909685e-02 -6.272465e-01
2.458362e-03 -1.362741e-02 -5.872991e-01
3.141562e-03 -1.783846e-03 -5.625752e-01
8.356432e-03 9.279725e-03 -5.046495e-01
2.561693e-03 1.494799e-02 -4.732793e-01
-8.242709e-03 1.742943e-02 -4.346576e-01
-1.159009e-02 1.242671e-02 -3.788078e-01
-1.632772e-03 8.264457e-03 -2.563110e-01
0.000000e+00 0.000000e+00 0.000000e+00
0.000000e+00 0.000000e+00 0.000000e+00
3.678790e-03 -8.618350e-03 -1.217482e-01
9.830340e-03 -2.087141e-02 -2.876027e-01
1.909854e-02 -2.846934e-02 -4.891478e-01
2.310969e-02 -2.484596e-02 -6.492202e-01
1.384401e-02 -1.881000e-02 -6.821264e-01
1.197028e-02 -1.043593e-02 -6.681678e-01
1.644474e-02 -8.769189e-04 -6.251503e-01
1.140837e-02 6.500233e-03 -5.861560e-01
5.789858e-03 9.942286e-03 -5.236292e-01
-9.185086e-04 9.408475e-03 -4.123648e-01
-2.529352e-03 7.340027e-03 -2.616851e-01
0.000000e+00 0.000000e+00 0.000000e+00
0.000000e+00 0.000000e+00 0.000000e+00
1.051752e-04 -6.323509e-03 -4.582868e-02
2.560357e-03 -1.362891e-02 -1.254327e-01
1.176802e-02 -1.564730e-02 -2.327245e-01
1.442402e-02 -1.466250e-02 -3.540985e-01
1.071930e-02 -1.194767e-02 -4.324665e-01
8.604228e-03 -1.141040e-02 -4.952399e-01
1.001087e-02 -9.308478e-03 -5.172212e-01
6.416750e-03 -1.006211e-02 -4.944133e-01
4.058358e-03 -5.009852e-03 -4.545570e-01
1.663807e-03 5.259409e-03 -3.426582e-01
-2.420740e-03 5.873419e-03 -2.125541e-01
0.000000e+00 0.000000e+00 0.000000e+00
0.000000e+00 0.000000e+00 0.000000e+00
0.000000e+00 0.000000e+00 0.000000e+00
0.000000e+00 0.000000e+00 0.000000e+00
0.000000e+00 0.000000e+00 0.000000e+00
0.000000e+00 0.000000e+00 0.000000e+00
0.000000e+00 0.000000e+00 0.000000e+00
0.000000e+00 0.000000e+00 0.000000e+00
0.000000e+00 0.000000e+00 0.000000e+00
0.000000e+00 0.000000e+00 0.000000e+00
0.000000e+00 0.000000e+00 0.000000e+00
0.000000e+00 0.000000e+00 0.000000e+00
0.000000e+00 0.000000e+00 0.000000e+00
0.000000e+00 0.000000e+00 0.000000e+00
