# vtk DataFile Version 3.0
tensile membrane
ASCII
DATASET POLYDATA
POINTS 221 float
2.000000e+00 7.500000e-01 1.250000e+00
2.000000e+00 8.750000e-01 1.250000e+00
2.000000e+00 1.000000e+00 1.250000e+00
2.000000e+00 1.125000e+00 1.250000e+00
2.000000e+00 1.250000e+00 1.250000e+00
2.000000e+00 1.375000e+00 1.250000e+00
2.000000e+00 1.500000e+00 1.250000e+00
2.000000e+00 1.625000e+00 1.250000e+00
2.000000e+00 1.750000e+00 1.250000e+00
2.000000e+00 1.875000e+00 1.250000e+00
2.000000e+00 2.000000e+00 1.250000e+00
2.000000e+00 2.125000e+00 1.250000e+00
2.000000e+00 2.250000e+00 1.250000e+00
2.125000e+00 7.500000e-01 1.250000e+00
2.125000e+00 8.749718e-01 1.258389e+00
2.125135e+00 9.999551e-01 1.261727e+00
2.125296e+00 1.124980e+00 1.263440e+00
2.125424e+00 1.250016e+00 1.264273e+00
2.125468e+00 1.375032e+00 1.264307e+00
2.125454e+00 1.500048e+00 1.263887e+00
2.125370e+00 1.625072e+00 1.263028e+00
2.125244e+00 1.750098e+00 1.261724e+00
2.125092e+00 1.875099e+00 1.259845e+00
2.124978e+00 2.000087e+00 1.257506e+00
2.124921e+00 2.125057e+00 1.254517e+00
2.125000e+00 2.250000e+00 1.250000e+00
2.250000e+00 7.500000e-01 1.250000e+00
2.250017e+00 8.751337e-01 1.261837e+00
2.250197e+00 1.000170e+00 1.268452e+00
2.250437e+00 1.125199e+00 1.272241e+00
2.250656e+00 1.250212e+00 1.274258e+00
2.250746e+00 1.375165e+00 1.274682e+00
2.250722e+00 1.500095e+00 1.274081e+00
2.250582e+00 1.625045e+00 1.272684e+00
2.250371e+00 1.750016e+00 1.270435e+00
2.250129e+00 1.874994e+00 1.267103e+00
2.249959e+00 1.999980e+00 1.262926e+00
2.249874e+00 2.124973e+00 1.257616e+00
2.250000e+00 2.250000e+00 1.250000e+00
2.375000e+00 7.500000e-01 1.250000e+00
2.375036e+00 8.753328e-01 1.263389e+00
2.375220e+00 1.000485e+00 1.272086e+00
2.375454e+00 1.125519e+00 1.277574e+00
2.375694e+00 1.250478e+00 1.280735e+00
2.375842e+00 1.375354e+00 1.281843e+00
2.375837e+00 1.500167e+00 1.281362e+00
2.375662e+00 1.624982e+00 1.279679e+00
2.375387e+00 1.749838e+00 1.276783e+00
2.375105e+00 1.874763e+00 1.272412e+00
2.374936e+00 1.999766e+00 1.266836e+00
2.374864e+00 2.124837e+00 1.259696e+00
2.375000e+00 2.250000e+00 1.250000e+00
2.500000e+00 7.500000e-01 1.250000e+00
2.500051e+00 8.755393e-01 1.264021e+00
2.500218e+00 1.000832e+00 1.273907e+00
2.500425e+00 1.125899e+00 1.280635e+00
2.500624e+00 1.250765e+00 1.284762e+00
2.500784e+00 1.375516e+00 1.286612e+00
2.500814e+00 1.500206e+00 1.286472e+00
2.500645e+00 1.624875e+00 1.284717e+00
2.500353e+00 1.749592e+00 1.281368e+00
2.500071e+00 1.874442e+00 1.276355e+00
2.499908e+00 1.999472e+00 1.269636e+00
2.499864e+00 2.124654e+00 1.261193e+00
2.500000e+00 2.250000e+00 1.250000e+00
2.625000e+00 7.500000e-01 1.250000e+00
2.625058e+00 8.757046e-01 1.264137e+00
2.625186e+00 1.001116e+00 1.274691e+00
2.625356e+00 1.126211e+00 1.282178e+00
2.625518e+00 1.251016e+00 1.287130e+00
2.625638e+00 1.375625e+00 1.289538e+00
2.625671e+00 1.500159e+00 1.289809e+00
2.625538e+00 1.624680e+00 1.288211e+00
2.625296e+00 1.749288e+00 1.284680e+00
2.625036e+00 1.874092e+00 1.279186e+00
2.624879e+00 1.999144e+00 1.271772e+00
2.624850e+00 2.124435e+00 1.262324e+00
2.625000e+00 2.250000e+00 1.250000e+00
2.750000e+00 7.500000e-01 1.250000e+00
2.750048e+00 8.758193e-01 1.263944e+00
2.750121e+00 1.001297e+00 1.274690e+00
2.750248e+00 1.126412e+00 1.282698e+00
2.750356e+00 1.251179e+00 1.288257e+00
2.750422e+00 1.375679e+00 1.291131e+00
2.750429e+00 1.500065e+00 1.291765e+00
2.750331e+00 1.624458e+00 1.290432e+00
2.750173e+00 1.748992e+00 1.286921e+00
2.749979e+00 1.873770e+00 1.281194e+00
2.749863e+00 1.998856e+00 1.273361e+00
2.749863e+00 2.124269e+00 1.263189e+00
2.750000e+00 2.250000e+00 1.250000e+00
2.875000e+00 7.500000e-01 1.250000e+00
2.875027e+00 8.758603e-01 1.263465e+00
2.875055e+00 1.001367e+00 1.274072e+00
2.875126e+00 1.126495e+00 1.282210e+00
2.875165e+00 1.251258e+00 1.288125e+00
2.875159e+00 1.375722e+00 1.291540e+00
2.875137e+00 1.500034e+00 1.292629e+00
2.875074e+00 1.624339e+00 1.291493e+00
2.874992e+00 1.748794e+00 1.288132e+00
2.874895e+00 1.873542e+00 1.282306e+00
2.874842e+00 1.998643e+00 1.274327e+00
2.874879e+00 2.124153e+00 1.263711e+00
2.875000e+00 2.250000e+00 1.250000e+00
3.000000e+00 7.500000e-01 1.250000e+00
3.000032e+00 8.758333e-01 1.262650e+00
3.000026e+00 1.001334e+00 1.272944e+00
3.000009e+00 1.126437e+00 1.280954e+00
2.999956e+00 1.251196e+00 1.287010e+00
2.999871e+00 1.375661e+00 1.290689e+00
2.999825e+00 1.499964e+00 1.292165e+00
2.999804e+00 1.624242e+00 1.291418e+00
2.999800e+00 1.748678e+00 1.288304e+00
2.999792e+00 1.873409e+00 1.282664e+00
2.999816e+00 1.998540e+00 1.274595e+00
2.999897e+00 2.124091e+00 1.263903e+00
3.000000e+00 2.250000e+00 1.250000e+00
3.125000e+00 7.500000e-01 1.250000e+00
3.125058e+00 8.757570e-01 1.261741e+00
3.125015e+00 1.001203e+00 1.271252e+00
3.124902e+00 1.126316e+00 1.279024e+00
3.124748e+00 1.251082e+00 1.284860e+00
3.124592e+00 1.375566e+00 1.288702e+00
3.124526e+00 1.499898e+00 1.290489e+00
3.124543e+00 1.624201e+00 1.290181e+00
3.124605e+00 1.748659e+00 1.287472e+00
3.124696e+00 1.873408e+00 1.282197e+00
3.124797e+00 1.998545e+00 1.274284e+00
3.124912e+00 2.124082e+00 1.263779e+00
3.125000e+00 2.250000e+00 1.250000e+00
3.250000e+00 7.500000e-01 1.250000e+00
3.250095e+00 8.756296e-01 1.260439e+00
3.250017e+00 1.001032e+00 1.269154e+00
3.249819e+00 1.126135e+00 1.276272e+00
3.249578e+00 1.250931e+00 1.281897e+00
3.249368e+00 1.375464e+00 1.285769e+00
3.249274e+00 1.499858e+00 1.287821e+00
3.249329e+00 1.624254e+00 1.287857e+00
3.249446e+00 1.748774e+00 1.285696e+00
3.249621e+00 1.873555e+00 1.280911e+00
3.249783e+00 1.998656e+00 1.273559e+00
3.249921e+00 2.124139e+00 1.263412e+00
3.250000e+00 2.250000e+00 1.250000e+00
3.375000e+00 7.500000e-01 1.250000e+00
3.375100e+00 8.754865e-01 1.259099e+00
3.374992e+00 1.000792e+00 1.266620e+00
3.374753e+00 1.125873e+00 1.272963e+00
3.374466e+00 1.250706e+00 1.278151e+00
3.374213e+00 1.375312e+00 1.281798e+00
3.374080e+00 1.499806e+00 1.284093e+00
3.374129e+00 1.624307e+00 1.284444e+00
3.374279e+00 1.748924e+00 1.282891e+00
3.374536e+00 1.873782e+00 1.278870e+00
3.374772e+00 1.998884e+00 1.272305e+00
3.374932e+00 2.124280e+00 1.262814e+00
3.375000e+00 2.250000e+00 1.250000e+00
3.500000e+00 7.500000e-01 1.250000e+00
3.500084e+00 8.752957e-01 1.257445e+00
3.499977e+00 1.000507e+00 1.263756e+00
3.499718e+00 1.125552e+00 1.269161e+00
3.499422e+00 1.250432e+00 1.273632e+00
3.499163e+00 1.375152e+00 1.276978e+00
3.499019e+00 1.499780e+00 1.279203e+00
3.499045e+00 1.624420e+00 1.279965e+00
3.499207e+00 1.749147e+00 1.278980e+00
3.499479e+00 1.874040e+00 1.275880e+00
3.499775e+00 1.999146e+00 1.270303e+00
3.499966e+00 2.124456e+00 1.261867e+00
3.500000e+00 2.250000e+00 1.250000e+00
3.625000e+00 7.500000e-01 1.250000e+00
3.625071e+00 8.751313e-01 1.255732e+00
3.624985e+00 1.000227e+00 1.260500e+00
3.624770e+00 1.125251e+00 1.264694e+00
3.624493e+00 1.250176e+00 1.268351e+00
3.624266e+00 1.375037e+00 1.271214e+00
3.624136e+00 1.499830e+00 1.273219e+00
3.624127e+00 1.624607e+00 1.274165e+00
3.624269e+00 1.749437e+00 1.273779e+00
3.624510e+00 1.874365e+00 1.271662e+00
3.624792e+00 1.999433e+00 1.267380e+00
3.624986e+00 2.124637e+00 1.260487e+00
3.625000e+00 2.250000e+00 1.250000e+00
3.750000e+00 7.500000e-01 1.250000e+00
3.750054e+00 8.750069e-01 1.253758e+00
3.749995e+00 1.000021e+00 1.257068e+00
3.749852e+00 1.125032e+00 1.259976e+00
3.749647e+00 1.250015e+00 1.262543e+00
3.749456e+00 1.374969e+00 1.264667e+00
3.749357e+00 1.499894e+00 1.266232e+00
3.749343e+00 1.624793e+00 1.267134e+00
3.749429e+00 1.749705e+00 1.267168e+00
3.749579e+00 1.874666e+00 1.266001e+00
3.749805e+00 1.999711e+00 1.263289e+00
3.749980e+00 2.124810e+00 1.258370e+00
3.750000e+00 2.250000e+00 1.250000e+00
3.875000e+00 7.500000e-01 1.250000e+00
3.875028e+00 8.749482e-01 1.251907e+00
3.874990e+00 9.999137e-01 1.253514e+00
3.874922e+00 1.124920e+00 1.254957e+00
3.874809e+00 1.249939e+00 1.256343e+00
3.874704e+00 1.374944e+00 1.257488e+00
3.874650e+00 1.499930e+00 1.258363e+00
3.874652e+00 1.624915e+00 1.259020e+00
3.874695e+00 1.749907e+00 1.259228e+00
3.874755e+00 1.874903e+00 1.258777e+00
3.874867e+00 1.999915e+00 1.257652e+00
3.874978e+00 2.124947e+00 1.255327e+00
3.875000e+00 2.250000e+00 1.250000e+00
4.000000e+00 7.500000e-01 1.250000e+00
4.000000e+00 8.750000e-01 1.250000e+00
4.000000e+00 1.000000e+00 1.250000e+00
4.000000e+00 1.125000e+00 1.250000e+00
4.000000e+00 1.250000e+00 1.250000e+00
4.000000e+00 1.375000e+00 1.250000e+00
4.000000e+00 1.500000e+00 1.250000e+00
4.000000e+00 1.625000e+00 1.250000e+00
4.000000e+00 1.750000e+00 1.250000e+00
4.000000e+00 1.875000e+00 1.250000e+00
4.000000e+00 2.000000e+00 1.250000e+00
4.000000e+00 2.125000e+00 1.250000e+00
4.000000e+00 2.250000e+00 1.250000e+00
POLYGONS 384 1536
3 0 13 14
3 0 14 1
3 1 14 15
3 1 15 2
3 2 15 16
3 2 16 3
3 3 16 17
3 3 17 4
3 4 17 18
3 4 18 5
3 5 18 19
3 5 19 6
3 6 19 20
3 6 20 7
3 7 20 21
3 7 21 8
3 8 21 22
3 8 22 9
3 9 22 23
3 9 23 10
3 10 23 24
3 10 24 11
3 11 24 25
3 11 25 12
3 13 26 27
3 13 27 14
3 14 27 28
3 14 28 15
3 15 28 29
3 15 29 16
3 16 29 30
3 16 30 17
3 17 30 31
3 17 31 18
3 18 31 32
3 18 32 19
3 19 32 33
3 19 33 20
3 20 33 34
3 20 34 21
3 21 34 35
3 21 35 22
3 22 35 36
3 22 36 23
3 23 36 37
3 23 37 24
3 24 37 38
3 24 38 25
3 26 39 40
3 26 40 27
3 27 40 41
3 27 41 28
3 28 41 42
3 28 42 29
3 29 42 43
3 29 43 30
3 30 43 44
3 30 44 31
3 31 44 45
3 31 45 32
3 32 45 46
3 32 46 33
3 33 46 47
3 33 47 34
3 34 47 48
3 34 48 35
3 35 48 49
3 35 49 36
3 36 49 50
3 36 50 37
3 37 50 51
3 37 51 38
3 39 52 53
3 39 53 40
3 40 53 54
3 40 54 41
3 41 54 55
3 41 55 42
3 42 55 56
3 42 56 43
3 43 56 57
3 43 57 44
3 44 57 58
3 44 58 45
3 45 58 59
3 45 59 46
3 46 59 60
3 46 60 47
3 47 60 61
3 47 61 48
3 48 61 62
3 48 62 49
3 49 62 63
3 49 63 50
3 50 63 64
3 50 64 51
3 52 65 66
3 52 66 53
3 53 66 67
3 53 67 54
3 54 67 68
3 54 68 55
3 55 68 69
3 55 69 56
3 56 69 70
3 56 70 57
3 57 70 71
3 57 71 58
3 58 71 72
3 58 72 59
3 59 72 73
3 59 73 60
3 60 73 74
3 60 74 61
3 61 74 75
3 61 75 62
3 62 75 76
3 62 76 63
3 63 76 77
3 63 77 64
3 65 78 79
3 65 79 66
3 66 79 80
3 66 80 67
3 67 80 81
3 67 81 68
3 68 81 82
3 68 82 69
3 69 82 83
3 69 83 70
3 70 83 84
3 70 84 71
3 71 84 85
3 71 85 72
3 72 85 86
3 72 86 73
3 73 86 87
3 73 87 74
3 74 87 88
3 74 88 75
3 75 88 89
3 75 89 76
3 76 89 90
3 76 90 77
3 78 91 92
3 78 92 79
3 79 92 93
3 79 93 80
3 80 93 94
3 80 94 81
3 81 94 95
3 81 95 82
3 82 95 96
3 82 96 83
3 83 96 97
3 83 97 84
3 84 97 98
3 84 98 85
3 85 98 99
3 85 99 86
3 86 99 100
3 86 100 87
3 87 100 101
3 87 101 88
3 88 101 102
3 88 102 89
3 89 102 103
3 89 103 90
3 91 104 105
3 91 105 92
3 92 105 106
3 92 106 93
3 93 106 107
3 93 107 94
3 94 107 108
3 94 108 95
3 95 108 109
3 95 109 96
3 96 109 110
3 96 110 97
3 97 110 111
3 97 111 98
3 98 111 112
3 98 112 99
3 99 112 113
3 99 113 100
3 100 113 114
3 100 114 101
3 101 114 115
3 101 115 102
3 102 115 116
3 102 116 103
3 104 117 118
3 104 118 105
3 105 118 119
3 105 119 106
3 106 119 120
3 106 120 107
3 107 120 121
3 107 121 108
3 108 121 122
3 108 122 109
3 109 122 123
3 109 123 110
3 110 123 124
3 110 124 111
3 111 124 125
3 111 125 112
3 112 125 126
3 112 126 113
3 113 126 127
3 113 127 114
3 114 127 128
3 114 128 115
3 115 128 129
3 115 129 116
3 117 130 131
3 117 131 118
3 118 131 132
3 118 132 119
3 119 132 133
3 119 133 120
3 120 133 134
3 120 134 121
3 121 134 135
3 121 135 122
3 122 135 136
3 122 136 123
3 123 136 137
3 123 137 124
3 124 137 138
3 124 138 125
3 125 138 139
3 125 139 126
3 126 139 140
3 126 140 127
3 127 140 141
3 127 141 128
3 128 141 142
3 128 142 129
3 130 143 144
3 130 144 131
3 131 144 145
3 131 145 132
3 132 145 146
3 132 146 133
3 133 146 147
3 133 147 134
3 134 147 148
3 134 148 135
3 135 148 149
3 135 149 136
3 136 149 150
3 136 150 137
3 137 150 151
3 137 151 138
3 138 151 152
3 138 152 139
3 139 152 153
3 139 153 140
3 140 153 154
3 140 154 141
3 141 154 155
3 141 155 142
3 143 156 157
3 143 157 144
3 144 157 158
3 144 158 145
3 145 158 159
3 145 159 146
3 146 159 160
3 146 160 147
3 147 160 161
3 147 161 148
3 148 161 162
3 148 162 149
3 149 162 163
3 149 163 150
3 150 163 164
3 150 164 151
3 151 164 165
3 151 165 152
3 152 165 166
3 152 166 153
3 153 166 167
3 153 167 154
3 154 167 168
3 154 168 155
3 156 169 170
3 156 170 157
3 157 170 171
3 157 171 158
3 158 171 172
3 158 172 159
3 159 172 173
3 159 173 160
3 160 173 174
3 160 174 161
3 161 174 175
3 161 175 162
3 162 175 176
3 162 176 163
3 163 176 177
3 163 177 164
3 164 177 178
3 164 178 165
3 165 178 179
3 165 179 166
3 166 179 180
3 166 180 167
3 167 180 181
3 167 181 168
3 169 182 183
3 169 183 170
3 170 183 184
3 170 184 171
3 171 184 185
3 171 185 172
3 172 185 186
3 172 186 173
3 173 186 187
3 173 187 174
3 174 187 188
3 174 188 175
3 175 188 189
3 175 189 176
3 176 189 190
3 176 190 177
3 177 190 191
3 177 191 178
3 178 191 192
3 178 192 179
3 179 192 193
3 179 193 180
3 180 193 194
3 180 194 181
3 182 195 196
3 182 196 183
3 183 196 197
3 183 197 184
3 184 197 198
3 184 198 185
3 185 198 199
3 185 199 186
3 186 199 200
3 186 200 187
3 187 200 201
3 187 201 188
3 188 201 202
3 188 202 189
3 189 202 203
3 189 203 190
3 190 203 204
3 190 204 191
3 191 204 205
3 191 205 192
3 192 205 206
3 192 206 193
3 193 206 207
3 193 207 194
3 195 208 209
3 195 209 196
3 196 209 210
3 196 210 197
3 197 210 211
3 197 211 198
3 198 211 212
3 198 212 199
3 199 212 213
3 199 213 200
3 200 213 214
3 200 214 201
3 201 214 215
3 201 215 202
3 202 215 216
3 202 216 203
3 203 216 217
3 203 217 204
3 204 217 218
3 204 218 205
3 205 218 219
3 205 219 206
3 206 219 220
3 206 220 207
POINT_DATA 221
VECTORS velocity float
0.000000e+00 0.000000e+00 0.000000e+00
0.000000e+00 0.000000e+00 0.000000e+00
0.000000e+00 0.000000e+00 0.000000e+00
0.000000e+00 0.000000e+00 0.000000e+00
0.000000e+00 0.000000e+00 0.000000e+00
0.000000e+00 0.000000e+00 0.000000e+00
0.000000e+00 0.000000e+00 0.000000e+00
0.000000e+00 0.000000e+00 0.000000e+00
0.000000e+00 0.000000e+00 0.000000e+00
0.000000e+00 0.000000e+00 0.000000e+00
0.000000e+00 0.000000e+00 0.000000e+00
0.000000e+00 0.000000e+00 0.000000e+00
0.000000e+00 0.000000e+00 0.000000e+00
0.000000e+00 0.000000e+00 0.000000e+00
-3.000618e-03 -4.618740e-04 -1.761862e-02
-4.993467e-04 5.028957e-03 -2.765996e-02
-2.827885e-03 9.775674e-03 -4.554818e-02
1.033254e-03 9.766951e-03 -4.489742e-02
2.346228e-05 6.650673e-03 -4.935923e-02
-1.274778e-03 3.739877e-03 -5.435445e-02
3.051988e-04 -3.980680e-03 -3.875429e-02
1.040654e-03 -6.345527e-03 -3.012070e-02
5.624808e-03 -4.869400e-03 -2.648168e-02
5.043656e-03 -3.066847e-03 -1.314145e-02
1.782513e-03 1.929731e-04 -8.878093e-03
0.000000e+00 0.000000e+00 0.000000e+00
0.000000e+00 0.000000e+00 0.000000e+00
-3.322798e-03 2.543752e-03 -3.817947e-02
-7.392193e-03 4.317043e-03 -5.418016e-02
-8.543004e-03 7.846258e-03 -6.949576e-02
4.707415e-04 1.163841e-02 -8.013622e-02
1.167700e-03 1.074738e-02 -8.242724e-02
-3.902042e-03 4.268286e-03 -8.845407e-02
-1.035884e-03 -2.664076e-04 -7.329173e-02
-1.657816e-03 -3.120082e-03 -6.747028e-02
4.879033e-03 -1.476944e-03 -5.099864e-02
6.187267e-03 7.937157e-04 -3.596879e-02
3.053185e-03 -3.454057e-04 -1.757843e-02
0.000000e+00 0.000000e+00 0.000000e+00
0.000000e+00 0.000000e+00 0.000000e+00
-5.859926e-05 6.521142e-03 -3.866814e-02
-3.174101e-03 6.528896e-03 -6.922684e-02
-6.001731e-03 2.267599e-03 -8.668307e-02
2.060323e-03 3.866909e-03 -1.070903e-01
5.398531e-03 6.822412e-03 -1.075909e-01
-3.094468e-04 2.864862e-03 -1.049986e-01
5.179254e-04 9.083400e-04 -9.835092e-02
3.303956e-03 -2.317387e-04 -9.006696e-02
7.271806e-03 -1.759361e-03 -7.744679e-02
5.982400e-03 -7.213978e-04 -5.613200e-02
2.711559e-03 9.167190e-06 -3.440946e-02
0.000000e+00 0.000000e+00 0.000000e+00
0.000000e+00 0.000000e+00 0.000000e+00
2.065549e-03 8.943771e-03 -3.602548e-02
2.896546e-03 9.800850e-03 -7.295105e-02
6.877362e-03 7.017974e-03 -9.571833e-02
7.600713e-03 2.015924e-03 -1.156302e-01
5.969172e-03 1.541960e-03 -1.207663e-01
2.443026e-03 1.496167e-03 -1.277867e-01
2.419143e-03 1.234723e-03 -1.197428e-01
6.586619e-03 6.844793e-04 -1.163936e-01
1.139574e-02 -2.675780e-03 -9.654047e-02
8.480082e-03 -3.696022e-03 -7.397239e-02
1.863535e-03 -2.430182e-03 -4.011785e-02
0.000000e+00 0.000000e+00 0.000000e+00
0.000000e+00 0.000000e+00 0.000000e+00
-9.379220e-04 3.550853e-03 -3.550869e-02
3.986991e-03 6.380158e-03 -7.094060e-02
1.390275e-02 9.949612e-03 -8.405964e-02
1.318709e-02 1.038787e-02 -1.092873e-01
5.883544e-03 8.404138e-03 -1.238552e-01
5.956928e-03 6.859680e-03 -1.456617e-01
6.570379e-03 3.696340e-03 -1.326762e-01
9.194840e-03 3.547053e-04 -1.314720e-01
1.385105e-02 5.017587e-04 -1.115915e-01
8.418204e-03 -1.601036e-03 -7.860387e-02
1.702364e-03 -2.289548e-04 -4.315615e-02
0.000000e+00 0.000000e+00 0.000000e+00
0.000000e+00 0.000000e+00 0.000000e+00
-7.742949e-04 -1.734820e-03 -3.001488e-02
4.996116e-03 -3.167361e-03 -6.218564e-02
1.259307e-02 9.073009e-04 -8.518853e-02
1.310121e-02 5.880531e-03 -1.050240e-01
8.769880e-03 6.709527e-03 -1.215171e-01
1.253830e-02 4.406589e-03 -1.401674e-01
1.218757e-02 2.343891e-03 -1.455476e-01
1.215770e-02 8.528395e-04 -1.370043e-01
1.382019e-02 4.227834e-03 -1.147405e-01
6.902164e-03 3.770590e-03 -8.214131e-02
-3.621312e-03 -4.178246e-04 -4.518166e-02
0.000000e+00 0.000000e+00 0.000000e+00
0.000000e+00 0.000000e+00 0.000000e+00
1.052620e-03 -2.663257e-03 -3.250318e-02
8.304858e-03 -5.885925e-03 -5.944248e-02
1.111055e-02 -5.287663e-03 -7.251452e-02
1.216552e-02 -1.035791e-03 -1.036833e-01
1.171794e-02 1.815048e-03 -1.157457e-01
1.519219e-02 -7.095784e-04 -1.262842e-01
1.025593e-02 -2.486142e-03 -1.427314e-01
8.580107e-03 1.526270e-03 -1.365540e-01
9.242154e-03 4.296177e-03 -1.037878e-01
6.981297e-03 9.118099e-03 -8.158884e-02
-2.393132e-03 5.154937e-03 -3.958754e-02
0.000000e+00 0.000000e+00 0.000000e+00
0.000000e+00 0.000000e+00 0.000000e+00
3.086081e-03 -6.443538e-03 -3.654075e-02
8.428200e-03 -9.272293e-03 -4.850109e-02
9.694042e-03 -9.763971e-03 -7.055389e-02
9.584689e-03 -6.859305e-03 -8.515207e-02
1.267509e-02 -3.010445e-03 -1.074325e-01
1.660477e-02 -1.129740e-03 -1.178419e-01
1.062816e-02 -1.336239e-05 -1.295674e-01
7.699872e-03 2.694569e-03 -1.241565e-01
9.446256e-03 4.567613e-03 -9.553817e-02
9.923668e-03 9.274763e-03 -7.861769e-02
4.946637e-03 8.590832e-03 -3.985082e-02
0.000000e+00 0.000000e+00 0.000000e+00
0.000000e+00 0.000000e+00 0.000000e+00
3.951289e-03 -7.612017e-03 -2.717401e-02
7.483695e-03 -1.016722e-02 -5.225416e-02
1.116755e-02 -7.195867e-03 -7.594806e-02
1.362712e-02 -2.776913e-03 -8.176770e-02
1.530126e-02 -1.484758e-03 -9.580878e-02
1.816096e-02 7.066970e-03 -1.103146e-01
1.498771e-02 1.252635e-02 -1.129905e-01
1.223044e-02 1.264424e-02 -1.130120e-01
1.256797e-02 1.353541e-02 -9.819568e-02
1.364451e-02 1.262979e-02 -7.490252e-02
7.564089e-03 6.039949e-03 -3.938651e-02
0.000000e+00 0.000000e+00 0.000000e+00
0.000000e+00 0.000000e+00 0.000000e+00
2.896645e-03 -5.923170e-03 -2.938890e-02
6.373407e-03 -6.240197e-03 -4.627194e-02
1.449133e-02 -1.874931e-03 -6.613172e-02
1.995447e-02 2.571573e-03 -8.096084e-02
2.122475e-02 4.067620e-03 -8.296113e-02
1.935107e-02 1.284254e-02 -9.127705e-02
2.131186e-02 1.989103e-02 -9.679601e-02
2.004627e-02 1.804459e-02 -9.672210e-02
1.977174e-02 1.869330e-02 -9.224024e-02
2.190165e-02 1.651045e-02 -6.947453e-02
1.310179e-02 9.042993e-03 -4.740519e-02
0.000000e+00 0.000000e+00 0.000000e+00
0.000000e+00 0.000000e+00 0.000000e+00
-7.733334e-04 -8.715198e-03 -2.772375e-02
3.908564e-03 -7.500769e-03 -4.636872e-02
1.543220e-02 -1.110190e-03 -6.215674e-02
1.824452e-02 2.858954e-03 -6.767656e-02
2.191874e-02 6.415785e-03 -7.214591e-02
1.988619e-02 9.693674e-03 -7.798617e-02
2.400838e-02 1.426585e-02 -7.591435e-02
2.306643e-02 1.131294e-02 -8.064298e-02
1.957499e-02 1.090410e-02 -8.158868e-02
2.171445e-02 1.071978e-02 -6.503652e-02
1.498817e-02 8.498332e-03 -3.523458e-02
0.000000e+00 0.000000e+00 0.000000e+00
0.000000e+00 0.000000e+00 0.000000e+00
-6.101008e-04 -4.219304e-03 -1.805717e-02
-4.997768e-04 -4.416670e-03 -3.001278e-02
8.224756e-03 1.221419e-03 -5.666473e-02
1.134401e-02 9.032959e-03 -4.922360e-02
1.659442e-02 1.272016e-02 -6.199976e-02
1.890286e-02 1.291650e-02 -6.411926e-02
1.896600e-02 1.056163e-02 -5.566945e-02
1.827791e-02 6.334584e-03 -5.795652e-02
1.440557e-02 1.740051e-03 -4.697408e-02
1.368490e-02 2.107803e-03 -4.547811e-02
8.852698e-03 6.144940e-03 -3.155463e-02
0.000000e+00 0.000000e+00 0.000000e+00
0.000000e+00 0.000000e+00 0.000000e+00
-9.985891e-04 -2.880268e-03 -2.078898e-02
-1.467997e-03 -2.778972e-03 -3.008964e-02
1.241324e-03 1.561059e-03 -3.988318e-02
6.025177e-03 8.101110e-03 -4.222046e-02
9.768749e-03 1.082334e-02 -3.702419e-02
1.225794e-02 1.150778e-02 -3.675739e-02
1.357995e-02 1.084529e-02 -3.290226e-02
1.461170e-02 8.828654e-03 -3.014721e-02
1.249944e-02 1.822047e-03 -3.423009e-02
6.306295e-03 -2.654121e-03 -1.863368e-02
4.573051e-04 -4.380823e-04 -1.689860e-02
0.000000e+00 0.000000e+00 0.000000e+00
0.000000e+00 0.000000e+00 0.000000e+00
2.678016e-03 -3.585509e-03 -4.802790e-03
1.440993e-03 -1.769657e-03 -1.028949e-02
-2.869233e-04 1.522211e-03 -2.276191e-02
-1.488458e-03 1.162291e-03 -2.588230e-02
1.192386e-03 3.110454e-03 -2.439165e-02
2.647789e-03 3.718805e-03 -1.910022e-02
8.141484e-03 5.702765e-03 -2.224164e-02
1.135497e-02 8.258443e-03 -1.056313e-02
1.060399e-02 7.255643e-03 -3.440911e-03
2.999039e-03 1.813958e-03 -3.369025e-03
-2.194602e-03 -1.936392e-03 -2.982848e-03
0.000000e+00 0.000000e+00 0.000000e+00
0.000000e+00 0.000000e+00 0.000000e+00
3.643963e-03 -5.408621e-04 -1.569205e-03
-1.573143e-03 5.540861e-04 -1.572305e-02
-1.613814e-03 3.344110e-03 -2.200841e-02
-1.272102e-03 3.165921e-03 -8.654520e-03
-2.995903e-04 4.758790e-04 -1.714075e-02
-1.672774e-03 -3.029475e-03 -1.391710e-02
1.559988e-03 -8.058476e-04 -3.917424e-03
4.718513e-03 4.649908e-03 -4.484130e-03
8.327364e-03 9.985653e-03 -9.777286e-04
6.632668e-03 8.356734e-03 3.774188e-03
1.071922e-03 2.551300e-03 -1.798650e-04
0.000000e+00 0.000000e+00 0.000000e+00
0.000000e+00 0.000000e+00 0.000000e+00
0.000000e+00 0.000000e+00 0.000000e+00
0.000000e+00 0.000000e+00 0.000000e+00
0.000000e+00 0.000000e+00 0.000000e+00
0.000000e+00 0.000000e+00 0.000000e+00
0.000000e+00 0.000000e+00 0.000000e+00
0.000000e+00 0.000000e+00 0.000000e+00
0.000000e+00 0.000000e+00 0.000000e+00
0.000000e+00 0.000000e+00 0.000000e+00
0.000000e+00 0.000000e+00 0.000000e+00
0.000000e+00 0.000000e+00 0.000000e+00
0.000000e+00 0.000000e+00 0.000000e+00
0.000000e+00 0.000000e+00 0.000000e+00
