# vtk DataFile Version 3.0
tensile membrane
ASCII
DATASET POLYDATA
POINTS 221 float
2.000000e+00 7.500000e-01 1.250000e+00
2.000000e+00 8.750000e-01 1.250000e+00
2.000000e+00 1.000000e+00 1.250000e+00
2.000000e+00 1.125000e+00 1.250000e+00
2.000000e+00 1.250000e+00 1.250000e+00
2.000000e+00 1.375000e+00 1.250000e+00
2.000000e+00 1.500000e+00 1.250000e+00
2.000000e+00 1.625000e+00 1.250000e+00
2.000000e+00 1.750000e+00 1.250000e+00
2.000000e+00 1.875000e+00 1.250000e+00
2.000000e+00 2.000000e+00 1.250000e+00
2.000000e+00 2.125000e+00 1.250000e+00
2.000000e+00 2.250000e+00 1.250000e+00
2.152446e+00 7.873360e-01 1.267154e+00
2.134312e+00 8.950958e-01 1.261789e+00
2.127537e+00 1.011506e+00 1.260136e+00
2.124964e+00 1.131331e+00 1.260071e+00
2.123500e+00 1.251895e+00 1.260949e+00
2.121892e+00 1.372937e+00 1.261921e+00
2.120708e+00 1.494485e+00 1.261970e+00
2.119814e+00 1.616362e+00 1.261265e+00
2.118515e+00 1.737672e+00 1.260659e+00
2.117568e+00 1.858248e+00 1.260435e+00
2.116371e+00 1.978105e+00 1.259883e+00
2.115147e+00 2.096843e+00 1.258909e+00
2.115744e+00 2.213519e+00 1.257110e+00
2.289135e+00 8.049052e-01 1.278626e+00
2.269936e+00 9.126999e-01 1.272472e+00
2.257897e+00 1.023991e+00 1.268787e+00
2.252092e+00 1.139077e+00 1.267361e+00
2.248677e+00 1.255401e+00 1.267922e+00
2.245781e+00 1.372812e+00 1.269280e+00
2.243421e+00 1.490921e+00 1.270101e+00
2.241357e+00 1.609468e+00 1.269744e+00
2.239140e+00 1.727633e+00 1.268852e+00
2.237309e+00 1.844868e+00 1.268460e+00
2.235057e+00 1.961694e+00 1.268397e+00
2.232172e+00 2.077061e+00 1.268114e+00
2.230718e+00 2.191506e+00 1.267411e+00
2.420835e+00 8.165085e-01 1.285899e+00
2.402339e+00 9.245865e-01 1.279397e+00
2.388734e+00 1.034098e+00 1.274810e+00
2.380674e+00 1.146626e+00 1.272059e+00
2.375472e+00 1.260213e+00 1.271368e+00
2.371302e+00 1.374658e+00 1.272063e+00
2.367783e+00 1.490005e+00 1.273437e+00
2.364812e+00 1.605532e+00 1.274693e+00
2.361363e+00 1.720436e+00 1.274853e+00
2.358683e+00 1.835322e+00 1.274505e+00
2.355327e+00 1.950227e+00 1.274698e+00
2.350595e+00 2.062979e+00 1.275611e+00
2.345775e+00 2.175527e+00 1.276860e+00
2.550190e+00 8.250156e-01 1.290181e+00
2.532566e+00 9.333351e-01 1.283183e+00
2.519107e+00 1.042362e+00 1.277777e+00
2.509636e+00 1.153459e+00 1.273959e+00
2.502999e+00 1.264867e+00 1.272115e+00
2.497892e+00 1.377029e+00 1.272108e+00
2.492949e+00 1.490031e+00 1.273412e+00
2.489445e+00 1.603671e+00 1.275391e+00
2.485171e+00 1.716384e+00 1.276800e+00
2.481200e+00 1.829030e+00 1.277341e+00
2.476583e+00 1.942547e+00 1.278210e+00
2.470561e+00 2.054145e+00 1.280316e+00
2.462225e+00 2.165223e+00 1.283838e+00
2.678270e+00 8.314923e-01 1.291017e+00
2.661254e+00 9.396933e-01 1.284107e+00
2.647920e+00 1.048155e+00 1.278303e+00
2.637986e+00 1.158960e+00 1.273830e+00
2.630588e+00 1.269365e+00 1.271107e+00
2.624937e+00 1.380362e+00 1.270217e+00
2.619294e+00 1.491996e+00 1.270989e+00
2.614786e+00 1.603624e+00 1.272832e+00
2.609912e+00 1.714705e+00 1.274746e+00
2.605131e+00 1.826080e+00 1.276309e+00
2.598851e+00 1.938241e+00 1.278386e+00
2.591255e+00 2.049053e+00 1.281965e+00
2.580677e+00 2.159615e+00 1.287602e+00
2.805130e+00 8.364481e-01 1.288857e+00
2.788953e+00 9.446858e-01 1.282078e+00
2.775644e+00 1.052628e+00 1.276368e+00
2.765417e+00 1.163156e+00 1.271667e+00
2.757981e+00 1.273229e+00 1.268473e+00
2.752059e+00 1.383391e+00 1.266866e+00
2.746359e+00 1.494268e+00 1.266871e+00
2.741142e+00 1.604832e+00 1.268288e+00
2.735447e+00 1.714691e+00 1.270405e+00
2.729542e+00 1.825267e+00 1.272959e+00
2.722360e+00 1.937315e+00 1.276386e+00
2.713046e+00 2.047129e+00 1.281395e+00
2.701075e+00 2.157112e+00 1.288660e+00
2.930529e+00 8.392828e-01 1.285072e+00
2.915430e+00 9.481626e-01 1.278289e+00
2.902714e+00 1.056557e+00 1.272629e+00
2.892890e+00 1.167276e+00 1.267906e+00
2.885381e+00 1.276544e+00 1.264553e+00
2.879219e+00 1.385892e+00 1.262707e+00
2.873569e+00 1.496719e+00 1.262370e+00
2.867716e+00 1.607227e+00 1.263489e+00
2.861579e+00 1.716877e+00 1.265707e+00
2.854837e+00 1.826812e+00 1.268972e+00
2.846650e+00 1.938030e+00 1.273665e+00
2.836216e+00 2.046885e+00 1.279851e+00
2.823010e+00 2.156059e+00 1.288159e+00
3.055030e+00 8.416889e-01 1.280538e+00
3.040735e+00 9.508772e-01 1.273733e+00
3.028928e+00 1.059465e+00 1.267981e+00
3.019901e+00 1.170415e+00 1.263205e+00
3.012803e+00 1.279840e+00 1.259943e+00
3.006202e+00 1.388852e+00 1.258209e+00
3.000361e+00 1.499725e+00 1.257940e+00
2.994531e+00 1.610598e+00 1.259112e+00
2.988005e+00 1.719625e+00 1.261658e+00
2.980966e+00 1.829089e+00 1.265413e+00
2.972065e+00 1.940074e+00 1.270844e+00
2.960490e+00 2.048644e+00 1.277814e+00
2.946484e+00 2.157695e+00 1.286729e+00
3.178509e+00 8.433491e-01 1.276015e+00
3.165033e+00 9.526256e-01 1.269288e+00
3.154413e+00 1.061487e+00 1.263585e+00
3.146118e+00 1.172649e+00 1.258760e+00
3.139316e+00 1.282564e+00 1.255442e+00
3.133107e+00 1.392239e+00 1.253802e+00
3.127213e+00 1.502779e+00 1.253761e+00
3.121556e+00 1.613655e+00 1.255157e+00
3.115440e+00 1.723047e+00 1.258074e+00
3.107983e+00 1.832357e+00 1.262410e+00
3.098253e+00 1.943056e+00 1.268307e+00
3.085731e+00 2.051395e+00 1.275589e+00
3.070899e+00 2.160149e+00 1.284603e+00
3.300365e+00 8.423534e-01 1.271764e+00
3.288197e+00 9.524246e-01 1.265395e+00
3.278767e+00 1.062234e+00 1.259900e+00
3.271543e+00 1.174226e+00 1.255226e+00
3.265583e+00 1.284789e+00 1.251973e+00
3.259854e+00 1.394722e+00 1.250313e+00
3.254591e+00 1.505356e+00 1.250211e+00
3.248855e+00 1.616291e+00 1.251744e+00
3.242925e+00 1.726481e+00 1.254889e+00
3.235502e+00 1.836567e+00 1.259554e+00
3.225339e+00 1.947069e+00 1.265734e+00
3.212113e+00 2.054941e+00 1.273238e+00
3.196137e+00 2.163109e+00 1.282068e+00
3.420621e+00 8.399530e-01 1.267540e+00
3.409929e+00 9.505722e-01 1.261941e+00
3.402304e+00 1.061379e+00 1.256988e+00
3.396066e+00 1.173488e+00 1.252760e+00
3.391281e+00 1.284845e+00 1.249670e+00
3.386411e+00 1.396017e+00 1.248075e+00
3.381862e+00 1.507739e+00 1.247762e+00
3.376160e+00 1.619424e+00 1.248944e+00
3.370436e+00 1.730434e+00 1.251991e+00
3.362980e+00 1.840831e+00 1.256560e+00
3.353055e+00 1.951645e+00 1.262627e+00
3.339716e+00 2.060097e+00 1.270113e+00
3.322777e+00 2.168250e+00 1.278807e+00
3.538852e+00 8.345232e-01 1.263334e+00
3.530486e+00 9.456121e-01 1.258811e+00
3.524521e+00 1.057196e+00 1.254673e+00
3.520048e+00 1.170672e+00 1.251077e+00
3.516179e+00 1.283295e+00 1.248400e+00
3.511949e+00 1.396051e+00 1.246802e+00
3.508384e+00 1.509766e+00 1.246439e+00
3.503360e+00 1.622828e+00 1.247274e+00
3.498109e+00 1.735004e+00 1.249819e+00
3.491364e+00 1.846422e+00 1.253918e+00
3.481821e+00 1.957532e+00 1.259384e+00
3.468283e+00 2.066567e+00 1.266351e+00
3.450651e+00 2.174893e+00 1.274359e+00
3.655024e+00 8.243935e-01 1.258999e+00
3.650266e+00 9.369422e-01 1.255793e+00
3.645639e+00 1.049667e+00 1.252664e+00
3.642466e+00 1.164537e+00 1.249951e+00
3.639979e+00 1.279409e+00 1.247938e+00
3.636653e+00 1.394335e+00 1.246556e+00
3.633647e+00 1.509892e+00 1.245999e+00
3.630032e+00 1.625268e+00 1.246467e+00
3.625667e+00 1.739708e+00 1.248362e+00
3.620291e+00 1.853288e+00 1.251750e+00
3.612104e+00 1.965827e+00 1.256350e+00
3.598372e+00 2.075339e+00 1.262324e+00
3.579824e+00 2.183461e+00 1.269333e+00
3.769749e+00 8.084976e-01 1.254726e+00
3.768385e+00 9.229476e-01 1.252966e+00
3.765650e+00 1.038324e+00 1.251021e+00
3.763579e+00 1.155145e+00 1.249301e+00
3.761930e+00 1.272373e+00 1.248030e+00
3.759865e+00 1.390533e+00 1.247110e+00
3.757889e+00 1.509091e+00 1.246520e+00
3.755455e+00 1.627174e+00 1.246565e+00
3.752354e+00 1.744554e+00 1.247669e+00
3.748720e+00 1.860844e+00 1.249888e+00
3.742761e+00 1.975926e+00 1.253201e+00
3.730604e+00 2.087229e+00 1.257954e+00
3.711302e+00 2.195074e+00 1.263671e+00
3.884444e+00 7.865089e-01 1.251301e+00
3.885105e+00 9.031915e-01 1.250749e+00
3.883995e+00 1.021935e+00 1.249953e+00
3.882948e+00 1.141805e+00 1.249187e+00
3.882127e+00 1.262396e+00 1.248655e+00
3.880894e+00 1.383676e+00 1.248247e+00
3.880092e+00 1.505544e+00 1.247927e+00
3.878909e+00 1.627076e+00 1.247775e+00
3.877167e+00 1.748091e+00 1.248178e+00
3.875548e+00 1.868625e+00 1.249129e+00
3.872834e+00 1.988422e+00 1.250618e+00
3.865978e+00 2.104853e+00 1.253131e+00
3.847766e+00 2.212674e+00 1.257172e+00
4.000000e+00 7.500000e-01 1.250000e+00
4.000000e+00 8.750000e-01 1.250000e+00
4.000000e+00 1.000000e+00 1.250000e+00
4.000000e+00 1.125000e+00 1.250000e+00
4.000000e+00 1.250000e+00 1.250000e+00
4.000000e+00 1.375000e+00 1.250000e+00
4.000000e+00 1.500000e+00 1.250000e+00
4.000000e+00 1.625000e+00 1.250000e+00
4.000000e+00 1.750000e+00 1.250000e+00
4.000000e+00 1.875000e+00 1.250000e+00
4.000000e+00 2.000000e+00 1.250000e+00
4.000000e+00 2.125000e+00 1.250000e+00
4.000000e+00 2.250000e+00 1.250000e+00
POLYGONS 384 1536
3 0 13 14
3 0 14 1
3 1 14 15
3 1 15 2
3 2 15 16
3 2 16 3
3 3 16 17
3 3 17 4
3 4 17 18
3 4 18 5
3 5 18 19
3 5 19 6
3 6 19 20
3 6 20 7
3 7 20 21
3 7 21 8
3 8 21 22
3 8 22 9
3 9 22 23
3 9 23 10
3 10 23 24
3 10 24 11
3 11 24 25
3 11 25 12
3 13 26 27
3 13 27 14
3 14 27 28
3 14 28 15
3 15 28 29
3 15 29 16
3 16 29 30
3 16 30 17
3 17 30 31
3 17 31 18
3 18 31 32
3 18 32 19
3 19 32 33
3 19 33 20
3 20 33 34
3 20 34 21
3 21 34 35
3 21 35 22
3 22 35 36
3 22 36 23
3 23 36 37
3 23 37 24
3 24 37 38
3 24 38 25
3 26 39 40
3 26 40 27
3 27 40 41
3 27 41 28
3 28 41 42
3 28 42 29
3 29 42 43
3 29 43 30
3 30 43 44
3 30 44 31
3 31 44 45
3 31 45 32
3 32 45 46
3 32 46 33
3 33 46 47
3 33 47 34
3 34 47 48
3 34 48 35
3 35 48 49
3 35 49 36
3 36 49 50
3 36 50 37
3 37 50 51
3 37 51 38
3 39 52 53
3 39 53 40
3 40 53 54
3 40 54 41
3 41 54 55
3 41 55 42
3 42 55 56
3 42 56 43
3 43 56 57
3 43 57 44
3 44 57 58
3 44 58 45
3 45 58 59
3 45 59 46
3 46 59 60
3 46 60 47
3 47 60 61
3 47 61 48
3 48 61 62
3 48 62 49
3 49 62 63
3 49 63 50
3 50 63 64
3 50 64 51
3 52 65 66
3 52 66 53
3 53 66 67
3 53 67 54
3 54 67 68
3 54 68 55
3 55 68 69
3 55 69 56
3 56 69 70
3 56 70 57
3 57 70 71
3 57 71 58
3 58 71 72
3 58 72 59
3 59 72 73
3 59 73 60
3 60 73 74
3 60 74 61
3 61 74 75
3 61 75 62
3 62 75 76
3 62 76 63
3 63 76 77
3 63 77 64
3 65 78 79
3 65 79 66
3 66 79 80
3 66 80 67
3 67 80 81
3 67 81 68
3 68 81 82
3 68 82 69
3 69 82 83
3 69 83 70
3 70 83 84
3 70 84 71
3 71 84 85
3 71 85 72
3 72 85 86
3 72 86 73
3 73 86 87
3 73 87 74
3 74 87 88
3 74 88 75
3 75 88 89
3 75 89 76
3 76 89 90
3 76 90 77
3 78 91 92
3 78 92 79
3 79 92 93
3 79 93 80
3 80 93 94
3 80 94 81
3 81 94 95
3 81 95 82
3 82 95 96
3 82 96 83
3 83 96 97
3 83 97 84
3 84 97 98
3 84 98 85
3 85 98 99
3 85 99 86
3 86 99 100
3 86 100 87
3 87 100 101
3 87 101 88
3 88 101 102
3 88 102 89
3 89 102 103
3 89 103 90
3 91 104 105
3 91 105 92
3 92 105 106
3 92 106 93
3 93 106 107
3 93 107 94
3 94 107 108
3 94 108 95
3 95 108 109
3 95 109 96
3 96 109 110
3 96 110 97
3 97 110 111
3 97 111 98
3 98 111 112
3 98 112 99
3 99 112 113
3 99 113 100
3 100 113 114
3 100 114 101
3 101 114 115
3 101 115 102
3 102 115 116
3 102 116 103
3 104 117 118
3 104 118 105
3 105 118 119
3 105 119 106
3 106 119 120
3 106 120 107
3 107 120 121
3 107 121 108
3 108 121 122
3 108 122 109
3 109 122 123
3 109 123 110
3 110 123 124
3 110 124 111
3 111 124 125
3 111 125 112
3 112 125 126
3 112 126 113
3 113 126 127
3 113 127 114
3 114 127 128
3 114 128 115
3 115 128 129
3 115 129 116
3 117 130 131
3 117 131 118
3 118 131 132
3 118 132 119
3 119 132 133
3 119 133 120
3 120 133 134
3 120 134 121
3 121 134 135
3 121 135 122
3 122 135 136
3 122 136 123
3 123 136 137
3 123 137 124
3 124 137 138
3 124 138 125
3 125 138 139
3 125 139 126
3 126 139 140
3 126 140 127
3 127 140 141
3 127 141 128
3 128 141 142
3 128 142 129
3 130 143 144
3 130 144 131
3 131 144 145
3 131 145 132
3 132 145 146
3 132 146 133
3 133 146 147
3 133 147 134
3 134 147 148
3 134 148 135
3 135 148 149
3 135 149 136
3 136 149 150
3 136 150 137
3 137 150 151
3 137 151 138
3 138 151 152
3 138 152 139
3 139 152 153
3 139 153 140
3 140 153 154
3 140 154 141
3 141 154 155
3 141 155 142
3 143 156 157
3 143 157 144
3 144 157 158
3 144 158 145
3 145 158 159
3 145 159 146
3 146 159 160
3 146 160 147
3 147 160 161
3 147 161 148
3 148 161 162
3 148 162 149
3 149 162 163
3 149 163 150
3 150 163 164
3 150 164 151
3 151 164 165
3 151 165 152
3 152 165 166
3 152 166 153
3 153 166 167
3 153 167 154
3 154 167 168
3 154 168 155
3 156 169 170
3 156 170 157
3 157 170 171
3 157 171 158
3 158 171 172
3 158 172 159
3 159 172 173
3 159 173 160
3 160 173 174
3 160 174 161
3 161 174 175
3 161 175 162
3 162 175 176
3 162 176 163
3 163 176 177
3 163 177 164
3 164 177 178
3 164 178 165
3 165 178 179
3 165 179 166
3 166 179 180
3 166 180 167
3 167 180 181
3 167 181 168
3 169 182 183
3 169 183 170
3 170 183 184
3 170 184 171
3 171 184 185
3 171 185 172
3 172 185 186
3 172 186 173
3 173 186 187
3 173 187 174
3 174 187 188
3 174 188 175
3 175 188 189
3 175 189 176
3 176 189 190
3 176 190 177
3 177 190 191
3 177 191 178
3 178 191 192
3 178 192 179
3 179 192 193
3 179 193 180
3 180 193 194
3 180 194 181
3 182 195 196
3 182 196 183
3 183 196 197
3 183 197 184
3 184 197 198
3 184 198 185
3 185 198 199
3 185 199 186
3 186 199 200
3 186 200 187
3 187 200 201
3 187 201 188
3 188 201 202
3 188 202 189
3 189 202 203
3 189 203 190
3 190 203 204
3 190 204 191
3 191 204 205
3 191 205 192
3 192 205 206
3 192 206 193
3 193 206 207
3 193 207 194
3 195 208 209
3 195 209 196
3 196 209 210
3 196 210 197
3 197 210 211
3 197 211 198
3 198 211 212
3 198 212 199
3 199 212 213
3 199 213 200
3 200 213 214
3 200 214 201
3 201 214 215
3 201 215 202
3 202 215 216
3 202 216 203
3 203 216 217
3 203 217 204
3 204 217 218
3 204 218 205
3 205 218 219
3 205 219 206
3 206 219 220
3 206 220 207
POINT_DATA 221
VECTORS velocity float
0.000000e+00 0.000000e+00 0.000000e+00
0.000000e+00 0.000000e+00 0.000000e+00
0.000000e+00 0.000000e+00 0.000000e+00
0.000000e+00 0.000000e+00 0.000000e+00
0.000000e+00 0.000000e+00 0.000000e+00
0.000000e+00 0.000000e+00 0.000000e+00
0.000000e+00 0.000000e+00 0.000000e+00
0.000000e+00 0.000000e+00 0.000000e+00
0.000000e+00 0.000000e+00 0.000000e+00
0.000000e+00 0.000000e+00 0.000000e+00
0.000000e+00 0.000000e+00 0.000000e+00
0.000000e+00 0.000000e+00 0.000000e+00
0.000000e+00 0.000000e+00 0.000000e+00
-6.291092e-02 -1.116184e-01 8.501247e-02
-7.788607e-03 -1.048617e-01 8.652999e-02
-6.671593e-02 -1.176357e-01 1.033185e-01
-1.076682e-02 -9.770797e-02 7.766365e-02
-3.729207e-02 -1.158946e-01 6.866465e-02
7.267646e-02 -1.688802e-01 3.741231e-02
-9.731240e-02 -2.349838e-01 2.348621e-02
4.828132e-02 -4.743048e-02 6.522093e-03
-4.160019e-02 -2.958761e-02 5.939672e-02
-8.735891e-02 -7.932032e-02 6.239878e-02
-1.556361e-02 -1.158613e-01 3.718292e-02
-3.236268e-02 -1.307908e-01 5.803159e-02
2.021843e-02 3.324091e-03 5.827914e-02
-1.334940e-02 -3.406671e-02 1.515888e-01
8.457840e-03 -8.113681e-02 1.237121e-01
-7.380244e-02 -1.466146e-01 1.231286e-01
3.055458e-02 -8.356903e-02 1.134300e-01
-9.536249e-02 -1.652646e-01 1.318004e-01
3.810325e-02 -1.972014e-01 1.174192e-01
-1.784195e-01 -2.181057e-01 8.416286e-02
-7.212085e-02 -1.207945e-01 2.073152e-02
-1.686528e-01 -2.042546e-01 6.285306e-02
-1.651854e-01 -2.761219e-01 1.322012e-01
-1.280440e-02 -1.379854e-01 1.285952e-01
-4.434404e-03 -1.469109e-01 1.267416e-01
1.460551e-02 -7.528474e-02 1.420741e-01
2.517794e-02 -4.848107e-02 1.437801e-01
6.991046e-02 -6.236061e-02 1.538458e-01
-4.236236e-03 -2.087419e-01 1.708624e-01
8.062206e-02 -1.140303e-01 1.674588e-01
-9.324733e-02 -1.555962e-01 1.909591e-01
-4.855023e-03 -1.912168e-01 1.982711e-01
-1.814306e-01 -1.717995e-01 1.678407e-01
-1.713512e-01 -1.221677e-01 8.528721e-02
-2.217314e-01 -2.528323e-01 6.305963e-02
-1.729644e-01 -3.896414e-01 1.415447e-01
-1.097473e-01 -2.437728e-01 2.231998e-01
-7.401154e-03 -2.169238e-01 2.066404e-01
1.561162e-03 -2.607504e-01 1.850174e-01
-1.441136e-02 -1.179206e-01 1.151940e-01
-1.403292e-02 -1.093682e-01 1.104868e-01
1.579021e-01 -5.548872e-02 1.291176e-01
1.540206e-01 -4.809192e-02 1.800993e-01
-1.106705e-01 -1.918564e-01 2.074648e-01
6.145820e-02 -2.112133e-01 1.898297e-01
-7.545573e-02 -2.057355e-01 2.027487e-01
-2.431546e-01 -2.006937e-01 2.154048e-01
-2.105199e-01 -2.860651e-01 2.290615e-01
-1.482714e-01 -3.991205e-01 2.652337e-01
-1.234130e-01 -2.488246e-01 3.193768e-01
-1.098616e-01 -3.042162e-01 3.158514e-01
3.856390e-02 -3.370621e-01 2.635973e-01
7.259480e-02 3.853933e-03 1.099384e-01
-6.460380e-02 -1.238507e-01 1.104639e-01
6.072112e-02 -9.939775e-02 1.094240e-01
2.032996e-01 8.480605e-02 1.462371e-01
-8.516769e-02 -1.382067e-01 2.119932e-01
1.049649e-01 -2.054608e-01 2.166386e-01
2.412947e-02 -1.352012e-01 2.352216e-01
-2.407105e-01 -1.934225e-01 2.974794e-01
-1.202573e-01 -2.316657e-01 3.723988e-01
-1.991268e-01 -4.313431e-01 4.006220e-01
-1.354900e-01 -3.135780e-01 3.872316e-01
-1.991385e-01 -3.686693e-01 3.617423e-01
7.769331e-02 -3.306117e-01 3.512331e-01
-6.317587e-02 -9.754607e-02 1.210354e-01
6.295547e-02 -7.068564e-03 1.085178e-01
2.126810e-04 -1.733747e-02 1.238291e-01
1.546984e-01 1.576087e-01 1.440891e-01
2.582790e-02 -5.888162e-02 2.080718e-01
5.680136e-02 -2.796143e-01 2.522609e-01
-6.931481e-03 -8.470127e-02 2.886827e-01
-1.656517e-01 -2.038215e-02 3.288097e-01
-2.556614e-02 -8.991204e-02 3.775643e-01
-1.682926e-01 -2.971371e-01 4.044436e-01
-1.101075e-01 -2.845797e-01 3.841767e-01
-2.552715e-01 -3.256424e-01 3.237986e-01
5.297215e-02 -2.433180e-01 3.220856e-01
-1.412150e-01 -1.296272e-01 1.269932e-01
1.203946e-01 3.574240e-03 1.045863e-01
9.015303e-02 1.274633e-01 9.083764e-02
1.686276e-01 1.950270e-01 1.128214e-01
1.124913e-01 6.644990e-03 1.689401e-01
8.907218e-02 -1.875166e-01 2.170455e-01
-4.808629e-02 1.302797e-02 2.653141e-01
-1.259865e-01 1.416261e-01 3.080163e-01
-4.429434e-02 -6.671800e-02 3.171841e-01
-1.898435e-01 -2.756386e-01 3.147240e-01
-1.006437e-01 -1.985646e-01 3.272834e-01
-2.653351e-01 -1.034819e-01 2.928383e-01
1.109027e-01 5.463986e-02 2.722094e-01
-6.636274e-02 6.077732e-04 1.065949e-01
2.314931e-01 4.422768e-02 8.710905e-02
7.747517e-02 6.386076e-02 7.139237e-02
1.981361e-01 1.653688e-01 7.890591e-02
1.120099e-01 4.079546e-02 1.307870e-01
1.539034e-01 -1.100045e-01 1.829182e-01
1.867354e-03 4.502869e-03 2.106580e-01
-1.489303e-01 1.197437e-01 2.350403e-01
-1.077093e-01 -3.098897e-02 2.416776e-01
-1.894096e-01 -1.575582e-01 2.342003e-01
-6.436994e-02 -5.618784e-02 2.469392e-01
-2.160453e-01 -4.593745e-02 2.540762e-01
9.162620e-02 -7.317601e-03 2.427865e-01
-8.800472e-02 -5.444207e-02 8.269882e-02
2.724388e-01 9.739141e-02 5.721542e-02
1.098406e-01 1.913663e-01 2.720904e-02
2.002948e-01 2.740870e-01 4.060595e-02
5.266692e-02 7.241938e-02 8.066927e-02
1.352001e-01 -1.313013e-01 1.282962e-01
5.610351e-02 -7.729949e-04 1.598419e-01
-8.586618e-02 1.961107e-01 1.757112e-01
-1.054098e-01 6.838838e-03 1.708515e-01
-1.543735e-01 -1.854652e-01 1.643678e-01
-7.198170e-02 -1.199904e-01 1.622585e-01
-9.207048e-02 5.160416e-03 1.732549e-01
1.767283e-01 1.378916e-01 1.965576e-01
-3.806379e-02 2.409464e-01 2.425139e-02
2.635652e-01 3.215173e-01 1.658774e-02
1.214031e-01 2.784465e-01 1.785114e-03
1.787044e-01 2.930375e-01 1.175533e-02
4.092090e-02 9.578049e-02 3.304677e-02
1.761194e-01 2.334823e-02 7.074070e-02
1.650722e-02 9.179113e-02 8.548180e-02
-5.338369e-02 2.887574e-01 1.134800e-01
-1.752604e-02 7.358820e-02 1.204231e-01
-1.350989e-01 -1.426836e-01 1.102741e-01
1.839181e-02 2.539313e-02 1.215852e-01
-4.127442e-02 1.292710e-02 1.383775e-01
8.602215e-02 1.076095e-01 1.497084e-01
-6.494602e-02 3.243823e-01 -1.638975e-02
2.097235e-01 3.626251e-01 -1.140987e-02
1.434783e-01 3.102721e-01 -1.768588e-02
2.064805e-01 4.267039e-01 -1.394994e-02
1.309922e-01 2.309777e-01 2.713180e-03
2.523763e-01 1.986008e-01 3.234857e-02
-2.251227e-02 1.428808e-01 3.498569e-02
-1.036046e-01 2.174627e-01 4.785116e-02
9.257456e-02 1.495247e-01 7.459972e-02
-1.926043e-01 -7.804623e-02 7.272748e-02
-5.166566e-02 1.050810e-01 9.331572e-02
7.048699e-02 1.321730e-01 1.316801e-01
-7.185608e-02 5.391479e-03 1.521139e-01
-3.234777e-02 3.325472e-01 -4.056282e-02
1.168700e-01 2.985290e-01 -3.380674e-02
1.226299e-01 2.411961e-01 -2.646553e-02
1.542608e-01 3.958166e-01 -3.599255e-02
2.210608e-01 2.890986e-01 -3.067941e-02
2.606183e-01 2.144511e-01 -1.162339e-02
8.011111e-02 2.140085e-01 -6.231106e-04
-6.036279e-02 2.130423e-01 1.562826e-02
1.176249e-01 1.956844e-01 4.194067e-02
-1.460800e-01 5.349197e-02 5.059536e-02
-1.542622e-01 5.876604e-02 5.782202e-02
1.673086e-02 1.164562e-01 8.830092e-02
1.761283e-02 1.256807e-01 1.274829e-01
-8.846422e-03 2.560434e-01 -6.210760e-02
2.627206e-03 2.164898e-01 -5.670096e-02
1.079748e-01 2.461060e-01 -5.245398e-02
1.716900e-01 3.941864e-01 -3.898314e-02
2.231958e-01 2.597956e-01 -3.662461e-02
1.812694e-01 1.312945e-01 -3.271512e-02
1.939289e-01 1.783825e-01 -1.994473e-02
1.673421e-02 1.960157e-01 -9.193728e-03
9.679873e-02 1.569955e-01 1.749615e-02
-7.897020e-02 1.190171e-01 4.131848e-02
1.353162e-02 2.158888e-01 5.552879e-02
-6.212867e-02 6.653019e-02 5.674282e-02
-1.220286e-02 5.583484e-02 8.027203e-02
-1.214296e-02 8.115433e-02 -5.044523e-02
2.023796e-03 1.505248e-01 -5.959905e-02
1.866341e-02 1.430261e-01 -7.188500e-02
1.627981e-01 2.761700e-01 -6.133649e-02
1.726705e-01 2.094158e-01 -5.277229e-02
7.794880e-02 1.258773e-01 -4.638929e-02
1.924555e-01 2.265341e-01 -2.748970e-02
-2.770310e-02 2.053297e-01 -1.646863e-02
9.872987e-02 1.720795e-01 1.585119e-02
-3.649825e-02 8.349981e-02 2.810298e-02
7.758434e-02 1.475515e-01 4.836782e-02
-8.593758e-04 8.775395e-02 7.006249e-02
2.486524e-02 4.778464e-02 8.360015e-02
-1.398318e-02 2.039651e-03 -2.914851e-02
3.221752e-02 1.338820e-01 -3.497643e-02
2.121077e-02 1.218696e-01 -4.411476e-02
7.916457e-02 7.451004e-02 -4.320569e-02
4.036032e-02 2.547065e-02 -4.377977e-02
-4.860447e-02 4.632873e-02 -3.864734e-02
1.047209e-01 2.412881e-01 -1.662549e-02
-6.959780e-02 1.726762e-01 -1.902049e-02
3.942612e-02 1.207589e-01 5.550767e-03
1.367927e-02 1.036357e-01 1.720178e-02
6.849342e-02 1.170464e-01 2.683966e-02
1.061943e-02 1.041409e-01 5.269418e-02
6.815282e-02 1.121863e-01 8.639144e-02
0.000000e+00 0.000000e+00 0.000000e+00
0.000000e+00 0.000000e+00 0.000000e+00
0.000000e+00 0.000000e+00 0.000000e+00
0.000000e+00 0.000000e+00 0.000000e+00
0.000000e+00 0.000000e+00 0.000000e+00
0.000000e+00 0.000000e+00 0.000000e+00
0.000000e+00 0.000000e+00 0.000000e+00
0.000000e+00 0.000000e+00 0.000000e+00
0.000000e+00 0.000000e+00 0.000000e+00
0.000000e+00 0.000000e+00 0.000000e+00
0.000000e+00 0.000000e+00 0.000000e+00
0.000000e+00 0.000000e+00 0.000000e+00
0.000000e+00 0.000000e+00 0.000000e+00
