# vtk DataFile Version 3.0
tensile membrane
ASCII
DATASET POLYDATA
POINTS 221 float
2.000000e+00 7.500000e-01 1.250000e+00
2.000000e+00 8.750000e-01 1.250000e+00
2.000000e+00 1.000000e+00 1.250000e+00
2.000000e+00 1.125000e+00 1.250000e+00
2.000000e+00 1.250000e+00 1.250000e+00
2.000000e+00 1.375000e+00 1.250000e+00
2.000000e+00 1.500000e+00 1.250000e+00
2.000000e+00 1.625000e+00 1.250000e+00
2.000000e+00 1.750000e+00 1.250000e+00
2.000000e+00 1.875000e+00 1.250000e+00
2.000000e+00 2.000000e+00 1.250000e+00
2.000000e+00 2.125000e+00 1.250000e+00
2.000000e+00 2.250000e+00 1.250000e+00
2.154432e+00 7.879706e-01 1.236643e+00
2.135220e+00 8.953681e-01 1.237647e+00
2.128558e+00 1.011725e+00 1.237370e+00
2.125204e+00 1.131110e+00 1.237404e+00
2.123090e+00 1.251724e+00 1.237665e+00
2.121444e+00 1.372884e+00 1.237800e+00
2.120074e+00 1.494302e+00 1.238120e+00
2.118812e+00 1.615745e+00 1.238641e+00
2.117496e+00 1.737013e+00 1.239247e+00
2.116205e+00 1.857901e+00 1.240067e+00
2.114918e+00 1.978083e+00 1.241199e+00
2.113919e+00 2.097030e+00 1.242885e+00
2.114259e+00 2.213700e+00 1.245635e+00
2.293129e+00 8.062299e-01 1.227642e+00
2.272416e+00 9.135392e-01 1.227043e+00
2.260076e+00 1.024399e+00 1.226128e+00
2.252968e+00 1.138850e+00 1.225611e+00
2.248449e+00 1.255370e+00 1.225710e+00
2.245041e+00 1.372909e+00 1.226008e+00
2.242223e+00 1.490916e+00 1.226599e+00
2.239719e+00 1.609084e+00 1.227681e+00
2.237216e+00 1.727105e+00 1.229048e+00
2.234740e+00 1.844684e+00 1.230743e+00
2.232186e+00 1.961482e+00 1.233087e+00
2.229738e+00 2.077176e+00 1.236317e+00
2.227757e+00 2.191444e+00 1.240892e+00
2.426207e+00 8.178683e-01 1.221670e+00
2.406431e+00 9.257823e-01 1.218788e+00
2.392132e+00 1.035123e+00 1.216598e+00
2.382301e+00 1.146574e+00 1.215120e+00
2.375513e+00 1.259909e+00 1.214488e+00
2.370406e+00 1.374465e+00 1.214752e+00
2.366216e+00 1.489611e+00 1.215726e+00
2.362460e+00 1.604996e+00 1.217418e+00
2.358785e+00 1.720342e+00 1.219651e+00
2.355063e+00 1.835378e+00 1.222335e+00
2.351118e+00 1.949884e+00 1.225717e+00
2.346811e+00 2.063669e+00 1.230244e+00
2.341941e+00 2.176682e+00 1.236330e+00
2.556513e+00 8.259305e-01 1.218037e+00
2.537924e+00 9.342900e-01 1.212960e+00
2.523194e+00 1.043270e+00 1.208860e+00
2.512016e+00 1.153348e+00 1.205857e+00
2.503612e+00 1.264682e+00 1.204114e+00
2.497053e+00 1.377027e+00 1.203870e+00
2.491630e+00 1.489954e+00 1.204970e+00
2.486666e+00 1.603136e+00 1.207236e+00
2.481850e+00 1.716423e+00 1.210482e+00
2.476873e+00 1.829544e+00 1.214453e+00
2.471450e+00 1.942402e+00 1.219042e+00
2.465221e+00 2.054917e+00 1.224637e+00
2.457710e+00 2.167048e+00 1.231937e+00
2.685051e+00 8.317971e-01 1.216636e+00
2.667547e+00 9.405183e-01 1.209551e+00
2.653026e+00 1.049506e+00 1.203430e+00
2.641371e+00 1.158998e+00 1.198543e+00
2.632049e+00 1.269213e+00 1.195173e+00
2.624471e+00 1.380122e+00 1.193961e+00
2.618026e+00 1.491487e+00 1.194814e+00
2.612000e+00 1.603070e+00 1.197296e+00
2.606069e+00 1.714821e+00 1.201307e+00
2.599908e+00 1.826552e+00 1.206617e+00
2.593053e+00 1.938183e+00 1.212822e+00
2.585048e+00 2.049736e+00 1.219746e+00
2.575285e+00 2.161134e+00 1.227971e+00
2.812109e+00 8.362308e-01 1.217250e+00
2.795594e+00 9.452830e-01 1.208689e+00
2.781624e+00 1.054427e+00 1.200879e+00
2.770072e+00 1.163736e+00 1.194172e+00
2.760424e+00 1.273369e+00 1.189023e+00
2.752257e+00 1.383408e+00 1.186374e+00
2.745052e+00 1.493785e+00 1.186551e+00
2.738228e+00 1.604371e+00 1.188972e+00
2.731328e+00 1.715060e+00 1.193257e+00
2.724059e+00 1.825770e+00 1.199336e+00
2.715844e+00 1.936463e+00 1.206874e+00
2.706275e+00 2.047254e+00 1.215348e+00
2.694681e+00 2.158027e+00 1.224683e+00
2.937738e+00 8.394905e-01 1.219203e+00
2.922246e+00 9.489037e-01 1.209708e+00
2.909041e+00 1.058267e+00 1.200912e+00
2.897933e+00 1.167597e+00 1.192912e+00
2.888438e+00 1.277077e+00 1.186436e+00
2.880124e+00 1.386767e+00 1.182324e+00
2.872482e+00 1.496605e+00 1.181538e+00
2.865114e+00 1.606580e+00 1.183591e+00
2.857487e+00 1.716602e+00 1.187757e+00
2.849234e+00 1.826635e+00 1.193783e+00
2.839794e+00 1.936670e+00 1.201577e+00
2.828832e+00 2.046858e+00 1.210814e+00
2.815761e+00 2.157104e+00 1.221028e+00
3.061962e+00 8.416079e-01 1.222147e+00
3.047564e+00 9.513932e-01 1.212197e+00
3.035344e+00 1.061078e+00 1.202973e+00
3.024929e+00 1.170620e+00 1.194578e+00
3.015911e+00 1.280225e+00 1.187604e+00
3.007802e+00 1.389927e+00 1.182689e+00
3.000122e+00 1.499640e+00 1.180679e+00
2.992471e+00 1.609356e+00 1.181786e+00
2.984365e+00 1.719055e+00 1.185357e+00
2.975308e+00 1.828674e+00 1.190878e+00
2.964863e+00 1.938277e+00 1.198200e+00
2.952695e+00 2.048035e+00 1.207123e+00
2.938368e+00 2.157859e+00 1.217270e+00
3.184653e+00 8.423622e-01 1.225370e+00
3.171518e+00 9.525985e-01 1.215521e+00
3.160490e+00 1.062738e+00 1.206346e+00
3.151019e+00 1.172716e+00 1.198151e+00
3.142750e+00 1.282724e+00 1.191350e+00
3.135124e+00 1.392734e+00 1.186543e+00
3.127740e+00 1.502670e+00 1.183802e+00
3.120127e+00 1.612488e+00 1.183379e+00
3.111814e+00 1.722181e+00 1.185698e+00
3.102262e+00 1.831685e+00 1.190334e+00
3.091072e+00 1.941046e+00 1.196810e+00
3.077859e+00 2.050447e+00 1.204904e+00
3.062395e+00 2.159895e+00 1.214356e+00
3.305684e+00 8.413894e-01 1.228758e+00
3.294073e+00 9.521796e-01 1.219479e+00
3.284433e+00 1.062928e+00 1.210789e+00
3.276145e+00 1.173579e+00 1.203080e+00
3.268824e+00 1.284253e+00 1.196723e+00
3.261943e+00 1.394920e+00 1.192108e+00
3.255114e+00 1.505468e+00 1.189307e+00
3.247909e+00 1.615820e+00 1.187846e+00
3.239751e+00 1.725888e+00 1.188594e+00
3.230059e+00 1.835569e+00 1.192065e+00
3.218441e+00 1.944898e+00 1.197381e+00
3.204406e+00 2.054060e+00 1.204142e+00
3.187860e+00 2.163141e+00 1.212426e+00
3.424988e+00 8.383011e-01 1.232095e+00
3.415217e+00 9.497198e-01 1.223704e+00
3.407171e+00 1.061205e+00 1.215893e+00
3.400231e+00 1.172766e+00 1.209028e+00
3.394034e+00 1.284469e+00 1.203502e+00
3.388136e+00 1.396208e+00 1.199126e+00
3.382109e+00 1.507802e+00 1.196216e+00
3.375636e+00 1.619156e+00 1.194324e+00
3.368047e+00 1.730086e+00 1.194000e+00
3.358680e+00 1.840351e+00 1.196123e+00
3.346978e+00 1.949865e+00 1.200257e+00
3.332376e+00 2.058884e+00 1.205474e+00
3.314791e+00 2.167631e+00 1.212099e+00
3.542490e+00 8.325224e-01 1.235628e+00
3.534935e+00 9.446469e-01 1.228310e+00
3.528709e+00 1.057095e+00 1.221729e+00
3.523215e+00 1.169830e+00 1.215856e+00
3.518210e+00 1.282898e+00 1.211282e+00
3.513447e+00 1.396188e+00 1.207525e+00
3.508484e+00 1.509398e+00 1.204755e+00
3.503055e+00 1.622345e+00 1.202682e+00
3.496469e+00 1.734713e+00 1.201775e+00
3.487984e+00 1.846092e+00 1.202635e+00
3.476739e+00 1.956217e+00 1.205140e+00
3.461912e+00 2.065242e+00 1.208706e+00
3.443223e+00 2.173635e+00 1.213408e+00
3.658221e+00 8.229983e-01 1.239400e+00
3.653297e+00 9.359854e-01 1.233334e+00
3.648963e+00 1.049702e+00 1.228188e+00
3.644967e+00 1.164105e+00 1.223647e+00
3.641211e+00 1.279067e+00 1.220038e+00
3.637590e+00 1.394408e+00 1.217034e+00
3.633845e+00 1.509824e+00 1.214647e+00
3.629698e+00 1.625027e+00 1.212708e+00
3.624581e+00 1.739633e+00 1.211437e+00
3.617686e+00 1.853020e+00 1.211237e+00
3.607755e+00 1.964534e+00 1.212184e+00
3.593365e+00 2.073940e+00 1.213912e+00
3.573503e+00 2.181875e+00 1.216653e+00
3.772435e+00 8.082986e-01 1.242923e+00
3.770378e+00 9.225442e-01 1.238500e+00
3.767862e+00 1.038201e+00 1.234934e+00
3.765264e+00 1.154971e+00 1.232017e+00
3.762759e+00 1.272510e+00 1.229613e+00
3.760269e+00 1.390485e+00 1.227446e+00
3.757788e+00 1.508656e+00 1.225592e+00
3.755042e+00 1.626716e+00 1.224162e+00
3.751657e+00 1.744322e+00 1.223019e+00
3.747034e+00 1.860892e+00 1.222130e+00
3.739815e+00 1.975396e+00 1.221678e+00
3.727410e+00 2.086314e+00 1.221588e+00
3.706634e+00 2.193627e+00 1.221955e+00
3.885897e+00 7.861450e-01 1.246460e+00
3.886168e+00 9.028140e-01 1.243928e+00
3.885104e+00 1.021743e+00 1.242096e+00
3.883782e+00 1.141921e+00 1.240687e+00
3.882491e+00 1.262806e+00 1.239563e+00
3.881172e+00 1.384039e+00 1.238546e+00
3.879916e+00 1.505456e+00 1.237513e+00
3.878591e+00 1.626899e+00 1.236762e+00
3.876975e+00 1.748121e+00 1.236152e+00
3.874807e+00 1.868788e+00 1.235459e+00
3.871389e+00 1.988200e+00 1.234533e+00
3.864705e+00 2.104576e+00 1.233083e+00
3.845439e+00 2.211978e+00 1.230800e+00
4.000000e+00 7.500000e-01 1.250000e+00
4.000000e+00 8.750000e-01 1.250000e+00
4.000000e+00 1.000000e+00 1.250000e+00
4.000000e+00 1.125000e+00 1.250000e+00
4.000000e+00 1.250000e+00 1.250000e+00
4.000000e+00 1.375000e+00 1.250000e+00
4.000000e+00 1.500000e+00 1.250000e+00
4.000000e+00 1.625000e+00 1.250000e+00
4.000000e+00 1.750000e+00 1.250000e+00
4.000000e+00 1.875000e+00 1.250000e+00
4.000000e+00 2.000000e+00 1.250000e+00
4.000000e+00 2.125000e+00 1.250000e+00
4.000000e+00 2.250000e+00 1.250000e+00
POLYGONS 384 1536
3 0 13 14
3 0 14 1
3 1 14 15
3 1 15 2
3 2 15 16
3 2 16 3
3 3 16 17
3 3 17 4
3 4 17 18
3 4 18 5
3 5 18 19
3 5 19 6
3 6 19 20
3 6 20 7
3 7 20 21
3 7 21 8
3 8 21 22
3 8 22 9
3 9 22 23
3 9 23 10
3 10 23 24
3 10 24 11
3 11 24 25
3 11 25 12
3 13 26 27
3 13 27 14
3 14 27 28
3 14 28 15
3 15 28 29
3 15 29 16
3 16 29 30
3 16 30 17
3 17 30 31
3 17 31 18
3 18 31 32
3 18 32 19
3 19 32 33
3 19 33 20
3 20 33 34
3 20 34 21
3 21 34 35
3 21 35 22
3 22 35 36
3 22 36 23
3 23 36 37
3 23 37 24
3 24 37 38
3 24 38 25
3 26 39 40
3 26 40 27
3 27 40 41
3 27 41 28
3 28 41 42
3 28 42 29
3 29 42 43
3 29 43 30
3 30 43 44
3 30 44 31
3 31 44 45
3 31 45 32
3 32 45 46
3 32 46 33
3 33 46 47
3 33 47 34
3 34 47 48
3 34 48 35
3 35 48 49
3 35 49 36
3 36 49 50
3 36 50 37
3 37 50 51
3 37 51 38
3 39 52 53
3 39 53 40
3 40 53 54
3 40 54 41
3 41 54 55
3 41 55 42
3 42 55 56
3 42 56 43
3 43 56 57
3 43 57 44
3 44 57 58
3 44 58 45
3 45 58 59
3 45 59 46
3 46 59 60
3 46 60 47
3 47 60 61
3 47 61 48
3 48 61 62
3 48 62 49
3 49 62 63
3 49 63 50
3 50 63 64
3 50 64 51
3 52 65 66
3 52 66 53
3 53 66 67
3 53 67 54
3 54 67 68
3 54 68 55
3 55 68 69
3 55 69 56
3 56 69 70
3 56 70 57
3 57 70 71
3 57 71 58
3 58 71 72
3 58 72 59
3 59 72 73
3 59 73 60
3 60 73 74
3 60 74 61
3 61 74 75
3 61 75 62
3 62 75 76
3 62 76 63
3 63 76 77
3 63 77 64
3 65 78 79
3 65 79 66
3 66 79 80
3 66 80 67
3 67 80 81
3 67 81 68
3 68 81 82
3 68 82 69
3 69 82 83
3 69 83 70
3 70 83 84
3 70 84 71
3 71 84 85
3 71 85 72
3 72 85 86
3 72 86 73
3 73 86 87
3 73 87 74
3 74 87 88
3 74 88 75
3 75 88 89
3 75 89 76
3 76 89 90
3 76 90 77
3 78 91 92
3 78 92 79
3 79 92 93
3 79 93 80
3 80 93 94
3 80 94 81
3 81 94 95
3 81 95 82
3 82 95 96
3 82 96 83
3 83 96 97
3 83 97 84
3 84 97 98
3 84 98 85
3 85 98 99
3 85 99 86
3 86 99 100
3 86 100 87
3 87 100 101
3 87 101 88
3 88 101 102
3 88 102 89
3 89 102 103
3 89 103 90
3 91 104 105
3 91 105 92
3 92 105 106
3 92 106 93
3 93 106 107
3 93 107 94
3 94 107 108
3 94 108 95
3 95 108 109
3 95 109 96
3 96 109 110
3 96 110 97
3 97 110 111
3 97 111 98
3 98 111 112
3 98 112 99
3 99 112 113
3 99 113 100
3 100 113 114
3 100 114 101
3 101 114 115
3 101 115 102
3 102 115 116
3 102 116 103
3 104 117 118
3 104 118 105
3 105 118 119
3 105 119 106
3 106 119 120
3 106 120 107
3 107 120 121
3 107 121 108
3 108 121 122
3 108 122 109
3 109 122 123
3 109 123 110
3 110 123 124
3 110 124 111
3 111 124 125
3 111 125 112
3 112 125 126
3 112 126 113
3 113 126 127
3 113 127 114
3 114 127 128
3 114 128 115
3 115 128 129
3 115 129 116
3 117 130 131
3 117 131 118
3 118 131 132
3 118 132 119
3 119 132 133
3 119 133 120
3 120 133 134
3 120 134 121
3 121 134 135
3 121 135 122
3 122 135 136
3 122 136 123
3 123 136 137
3 123 137 124
3 124 137 138
3 124 138 125
3 125 138 139
3 125 139 126
3 126 139 140
3 126 140 127
3 127 140 141
3 127 141 128
3 128 141 142
3 128 142 129
3 130 143 144
3 130 144 131
3 131 144 145
3 131 145 132
3 132 145 146
3 132 146 133
3 133 146 147
3 133 147 134
3 134 147 148
3 134 148 135
3 135 148 149
3 135 149 136
3 136 149 150
3 136 150 137
3 137 150 151
3 137 151 138
3 138 151 152
3 138 152 139
3 139 152 153
3 139 153 140
3 140 153 154
3 140 154 141
3 141 154 155
3 141 155 142
3 143 156 157
3 143 157 144
3 144 157 158
3 144 158 145
3 145 158 159
3 145 159 146
3 146 159 160
3 146 160 147
3 147 160 161
3 147 161 148
3 148 161 162
3 148 162 149
3 149 162 163
3 149 163 150
3 150 163 164
3 150 164 151
3 151 164 165
3 151 165 152
3 152 165 166
3 152 166 153
3 153 166 167
3 153 167 154
3 154 167 168
3 154 168 155
3 156 169 170
3 156 170 157
3 157 170 171
3 157 171 158
3 158 171 172
3 158 172 159
3 159 172 173
3 159 173 160
3 160 173 174
3 160 174 161
3 161 174 175
3 161 175 162
3 162 175 176
3 162 176 163
3 163 176 177
3 163 177 164
3 164 177 178
3 164 178 165
3 165 178 179
3 165 179 166
3 166 179 180
3 166 180 167
3 167 180 181
3 167 181 168
3 169 182 183
3 169 183 170
3 170 183 184
3 170 184 171
3 171 184 185
3 171 185 172
3 172 185 186
3 172 186 173
3 173 186 187
3 173 187 174
3 174 187 188
3 174 188 175
3 175 188 189
3 175 189 176
3 176 189 190
3 176 190 177
3 177 190 191
3 177 191 178
3 178 191 192
3 178 192 179
3 179 192 193
3 179 193 180
3 180 193 194
3 180 194 181
3 182 195 196
3 182 196 183
3 183 196 197
3 183 197 184
3 184 197 198
3 184 198 185
3 185 198 199
3 185 199 186
3 186 199 200
3 186 200 187
3 187 200 201
3 187 201 188
3 188 201 202
3 188 202 189
3 189 202 203
3 189 203 190
3 190 203 204
3 190 204 191
3 191 204 205
3 191 205 192
3 192 205 206
3 192 206 193
3 193 206 207
3 193 207 194
3 195 208 209
3 195 209 196
3 196 209 210
3 196 210 197
3 197 210 211
3 197 211 198
3 198 211 212
3 198 212 199
3 199 212 213
3 199 213 200
3 200 213 214
3 200 214 201
3 201 214 215
3 201 215 202
3 202 215 216
3 202 216 203
3 203 216 217
3 203 217 204
3 204 217 218
3 204 218 205
3 205 218 219
3 205 219 206
3 206 219 220
3 206 220 207
POINT_DATA 221
VECTORS velocity float
0.000000e+00 0.000000e+00 0.000000e+00
0.000000e+00 0.000000e+00 0.000000e+00
0.000000e+00 0.000000e+00 0.000000e+00
0.000000e+00 0.000000e+00 0.000000e+00
0.000000e+00 0.000000e+00 0.000000e+00
0.000000e+00 0.000000e+00 0.000000e+00
0.000000e+00 0.000000e+00 0.000000e+00
0.000000e+00 0.000000e+00 0.000000e+00
0.000000e+00 0.000000e+00 0.000000e+00
0.000000e+00 0.000000e+00 0.000000e+00
0.000000e+00 0.000000e+00 0.000000e+00
0.000000e+00 0.000000e+00 0.000000e+00
0.000000e+00 0.000000e+00 0.000000e+00
-1.674788e-02 6.807260e-04 -1.255454e-02
-9.302392e-03 1.944749e-03 -6.444559e-03
-5.582924e-03 1.792933e-03 -3.658393e-03
-3.871766e-03 -1.546886e-03 -1.103117e-02
1.658569e-03 -3.054646e-03 7.539911e-03
-4.488449e-05 5.340027e-04 2.470657e-02
-2.088479e-03 5.497639e-03 1.457523e-02
-3.268619e-03 6.197572e-03 8.622947e-03
-9.543482e-03 4.883228e-03 8.426552e-03
-8.228676e-03 2.067698e-03 7.230205e-03
-6.465030e-03 4.145883e-03 4.263581e-04
5.250621e-03 1.142194e-02 -8.250307e-03
3.828296e-03 1.221857e-02 -1.089277e-02
-2.841645e-02 -6.174883e-03 3.223160e-02
-1.146789e-02 -6.056680e-03 2.570132e-02
-4.254012e-03 -7.884345e-03 4.085008e-02
1.246343e-03 -7.269659e-03 3.906184e-02
1.166981e-02 -2.253570e-03 2.817166e-02
1.077093e-02 4.554280e-03 3.654243e-02
5.432499e-03 8.736829e-03 3.279818e-02
-1.164546e-03 1.379247e-02 2.166177e-02
-9.054371e-03 1.457818e-02 1.751233e-02
-6.596417e-03 1.332276e-02 1.456898e-02
-1.247923e-02 1.101113e-02 6.861287e-03
3.725727e-03 1.528732e-02 6.567209e-04
7.740237e-03 1.728149e-02 -5.625454e-03
-3.133490e-02 -6.331580e-03 1.294797e-01
-1.552842e-02 -6.170755e-03 8.585816e-02
-5.458597e-03 -3.696748e-03 5.870913e-02
-2.463619e-03 -6.352724e-03 4.849056e-02
1.278152e-02 4.011884e-03 3.309763e-02
1.510732e-02 1.021632e-02 2.001580e-02
7.930259e-03 1.103040e-02 2.177952e-02
-1.078463e-03 1.505179e-02 2.177732e-02
-4.875035e-03 1.302639e-02 2.955636e-02
-4.092944e-03 9.789550e-03 3.491105e-02
-1.364054e-02 9.292470e-03 3.600232e-02
-3.287746e-03 1.376253e-02 2.134086e-02
-3.282242e-04 1.625209e-02 1.553423e-02
-2.630361e-02 1.614488e-02 2.295956e-01
-2.455406e-02 7.923874e-03 1.780764e-01
-1.152696e-02 4.642134e-03 1.144048e-01
-4.797825e-03 -4.041948e-03 6.508318e-02
6.131624e-03 -1.596474e-03 2.605062e-02
1.118697e-02 7.881616e-03 -1.776603e-03
1.875973e-03 1.147371e-02 -3.860774e-03
-1.361576e-02 1.012351e-02 6.141267e-03
-1.284864e-02 1.301450e-02 3.160614e-02
-1.019845e-02 1.262635e-02 5.644033e-02
-2.085421e-02 7.502898e-03 6.995950e-02
-1.271187e-02 9.949038e-03 5.520723e-02
-1.211998e-02 1.074007e-02 3.474587e-02
-2.019955e-02 2.185236e-02 3.400172e-01
-2.106386e-02 1.264794e-02 2.947112e-01
-1.488625e-02 5.731682e-03 2.112283e-01
-7.201066e-03 2.868978e-03 1.365378e-01
5.810592e-04 8.024705e-03 7.821838e-02
-4.286435e-03 1.069124e-02 3.065572e-02
-7.741647e-03 1.485799e-02 1.482152e-02
-2.008557e-02 1.272093e-02 2.667906e-02
-2.106014e-02 1.326297e-02 4.933995e-02
-1.145665e-02 1.542412e-02 7.857099e-02
-2.120754e-02 2.268017e-03 1.035346e-01
-1.462355e-02 1.448373e-03 1.106923e-01
-2.172050e-02 -1.644136e-03 9.141558e-02
-2.346343e-02 6.438339e-03 4.405383e-01
-1.632607e-02 1.010775e-02 4.045360e-01
-6.549021e-03 1.552219e-02 3.392523e-01
-5.211903e-03 4.650421e-03 2.569544e-01
3.701085e-03 3.448649e-03 2.001264e-01
-4.937663e-03 2.006878e-03 1.625920e-01
-7.612126e-03 8.467359e-03 1.367417e-01
-1.847046e-02 1.126110e-02 1.268396e-01
-2.158800e-02 1.227292e-02 1.263151e-01
-1.310243e-02 1.859875e-02 1.277259e-01
-1.857069e-02 7.718292e-03 1.303897e-01
-1.399381e-02 8.856048e-03 1.378295e-01
-2.213441e-02 6.224028e-03 1.411069e-01
-2.159489e-02 -3.481747e-03 4.935961e-01
-1.731427e-02 -1.114798e-03 4.688232e-01
-2.131935e-03 9.954044e-03 4.357240e-01
-1.480811e-03 -6.105947e-04 3.943284e-01
8.617796e-03 -4.140354e-04 3.751922e-01
-4.314628e-04 -1.753791e-03 3.697270e-01
8.314668e-04 6.725293e-03 3.450806e-01
-1.183658e-02 7.029755e-03 3.074411e-01
-1.291290e-02 9.807380e-03 2.637134e-01
-7.322831e-03 1.688297e-02 2.341287e-01
-1.226231e-02 1.190627e-02 2.017195e-01
-4.418236e-03 2.245169e-02 1.712923e-01
-1.466372e-02 2.316957e-02 1.538268e-01
-1.696196e-02 -4.177797e-03 5.276893e-01
-1.417854e-02 -4.940160e-03 5.058478e-01
-3.069832e-03 3.052999e-03 4.806987e-01
-1.052393e-02 -7.486364e-03 4.801973e-01
-6.173035e-04 1.238230e-03 5.244663e-01
-5.752131e-03 -2.143281e-03 5.951804e-01
-3.244364e-03 -2.266347e-03 5.821180e-01
-8.815581e-03 1.319199e-04 4.954226e-01
-1.450822e-02 -1.831741e-03 4.044589e-01
-3.945182e-03 7.187921e-03 3.478751e-01
-1.152493e-02 2.824341e-03 3.033191e-01
2.047087e-03 2.384216e-02 2.634173e-01
-4.114442e-03 3.124358e-02 2.226928e-01
-2.109257e-02 -1.309627e-02 4.993496e-01
-1.675366e-02 -7.819431e-03 5.084123e-01
-4.785088e-03 3.730432e-03 5.079356e-01
-1.341525e-02 -2.508344e-03 5.361423e-01
-9.700797e-03 1.257626e-03 5.834708e-01
-1.236111e-02 -1.359526e-03 6.755915e-01
-1.759351e-02 -8.519172e-03 7.143197e-01
-1.752247e-02 -3.881143e-03 6.168785e-01
-2.664215e-02 -9.100460e-03 5.031121e-01
-1.227922e-02 1.591669e-03 4.270130e-01
-1.066919e-02 1.975493e-03 3.726100e-01
3.321341e-03 1.788041e-02 3.289134e-01
4.151297e-03 2.459219e-02 3.006172e-01
-2.508081e-02 -1.182761e-02 4.373246e-01
-2.438854e-02 -8.871215e-03 4.650371e-01
-9.021726e-03 2.985678e-03 4.975313e-01
-1.378256e-02 -1.702264e-03 5.352711e-01
-1.116942e-02 1.975870e-03 5.964235e-01
-1.816801e-02 2.868422e-04 6.523074e-01
-2.384001e-02 -4.520901e-03 7.062633e-01
-2.084867e-02 -8.085371e-03 6.623052e-01
-2.832813e-02 -1.536068e-02 5.637624e-01
-1.643216e-02 -9.452597e-03 5.010001e-01
-5.423118e-03 -5.930273e-03 4.492149e-01
6.240151e-03 7.739601e-03 4.098066e-01
8.619372e-03 1.682249e-02 3.762099e-01
-1.742170e-02 1.325296e-03 3.830397e-01
-2.293159e-02 -4.435468e-03 3.988692e-01
-1.382237e-02 3.956511e-04 4.488441e-01
-2.043619e-02 -6.878395e-03 4.810056e-01
-1.190707e-02 -2.313236e-03 5.419321e-01
-1.768285e-02 -2.035923e-03 6.233703e-01
-2.886773e-02 -8.437149e-03 6.669349e-01
-2.425825e-02 -1.118608e-02 6.514272e-01
-2.940550e-02 -1.218081e-02 5.783144e-01
-2.095639e-02 -8.626129e-03 5.152381e-01
-3.597019e-03 -5.879875e-03 4.880594e-01
1.594364e-03 2.916722e-03 4.671236e-01
-1.808766e-03 5.074882e-03 4.496093e-01
-1.727832e-02 -6.729185e-03 3.059529e-01
-2.562990e-02 -9.996820e-03 3.303592e-01
-2.051052e-02 -4.810251e-03 3.771230e-01
-2.610373e-02 -6.247019e-03 4.253001e-01
-1.183661e-02 7.366579e-05 4.661680e-01
-1.331108e-02 5.432139e-03 5.474238e-01
-2.981657e-02 1.272184e-03 5.891984e-01
-3.114742e-02 -3.941200e-03 5.701978e-01
-2.870689e-02 -7.427073e-04 5.248219e-01
-1.775159e-02 5.026350e-04 4.840908e-01
-8.415772e-03 -3.386399e-04 4.687012e-01
-1.058928e-02 9.866832e-03 4.637278e-01
-1.043757e-02 1.076994e-02 4.744254e-01
-2.113200e-02 -4.610477e-03 2.061863e-01
-3.036232e-02 -5.249868e-03 2.392524e-01
-2.490709e-02 5.440522e-05 2.809130e-01
-2.797682e-02 1.551168e-04 3.266923e-01
-1.938125e-02 3.244549e-03 3.667297e-01
-2.000225e-02 6.135019e-03 4.395196e-01
-3.196058e-02 2.965319e-03 4.719646e-01
-3.221583e-02 -7.577907e-03 4.625444e-01
-3.370947e-02 -9.276639e-03 4.232297e-01
-2.332051e-02 3.534910e-03 4.028395e-01
-1.794944e-02 1.400636e-02 4.123389e-01
-2.094255e-02 1.887746e-02 4.340061e-01
-1.067080e-02 1.920673e-02 4.493076e-01
-1.256072e-02 -5.351527e-03 1.183889e-01
-2.503446e-02 -6.879282e-03 1.481594e-01
-2.708397e-02 -4.522539e-03 1.768744e-01
-2.684460e-02 -2.890220e-03 2.076327e-01
-1.914987e-02 2.530121e-04 2.450472e-01
-2.088201e-02 -2.934280e-03 3.121969e-01
-2.889074e-02 -4.599739e-03 3.293900e-01
-2.698834e-02 -5.522677e-03 3.228612e-01
-2.955336e-02 -2.234630e-03 2.993154e-01
-2.850678e-02 3.896818e-03 2.720155e-01
-2.004486e-02 1.302624e-02 2.908208e-01
-1.201110e-02 1.712040e-02 3.397014e-01
-2.409194e-03 9.990439e-03 3.959295e-01
-1.459002e-03 -8.399499e-03 4.912870e-02
-1.339507e-02 -7.751523e-03 6.870464e-02
-1.768726e-02 -5.404977e-03 7.116518e-02
-1.403938e-02 -4.234649e-03 7.131449e-02
-8.361597e-03 -3.757934e-03 1.075309e-01
-1.235981e-02 -6.227607e-03 1.519725e-01
-1.676447e-02 -2.248184e-03 1.614948e-01
-1.816735e-02 -6.956007e-04 1.672634e-01
-1.516334e-02 2.300589e-03 1.776714e-01
-1.428067e-02 -6.686343e-05 1.680905e-01
-1.153748e-02 -1.516792e-03 1.387320e-01
-4.330365e-03 1.004274e-02 1.574682e-01
4.599652e-03 1.316841e-02 2.508598e-01
0.000000e+00 0.000000e+00 0.000000e+00
0.000000e+00 0.000000e+00 0.000000e+00
0.000000e+00 0.000000e+00 0.000000e+00
0.000000e+00 0.000000e+00 0.000000e+00
0.000000e+00 0.000000e+00 0.000000e+00
0.000000e+00 0.000000e+00 0.000000e+00
0.000000e+00 0.000000e+00 0.000000e+00
0.000000e+00 0.000000e+00 0.000000e+00
0.000000e+00 0.000000e+00 0.000000e+00
0.000000e+00 0.000000e+00 0.000000e+00
0.000000e+00 0.000000e+00 0.000000e+00
0.000000e+00 0.000000e+00 0.000000e+00
0.000000e+00 0.000000e+00 0.000000e+00
