# vtk DataFile Version 3.0
tensile membrane
ASCII
DATASET POLYDATA
POINTS 63 float
2.000000e+00 7.500000e-01 1.000000e+00
2.000000e+00 1.000000e+00 1.000000e+00
2.000000e+00 1.250000e+00 1.000000e+00
2.000000e+00 1.500000e+00 1.000000e+00
2.000000e+00 1.750000e+00 1.000000e+00
2.000000e+00 2.000000e+00 1.000000e+00
2.000000e+00 2.250000e+00 1.000000e+00
2.250000e+00 7.500000e-01 1.000000e+00
2.250003e+00 1.000003e+00 1.000474e+00
2.250001e+00 1.250001e+00 1.000635e+00
2.250000e+00 1.499999e+00 1.000660e+00
2.250001e+00 1.749999e+00 1.000585e+00
2.250000e+00 1.999999e+00 1.000390e+00
2.250000e+00 2.250000e+00 1.000000e+00
2.500000e+00 7.500000e-01 1.000000e+00
2.500001e+00 1.000002e+00 1.000496e+00
2.500003e+00 1.250003e+00 1.000745e+00
2.500001e+00 1.500000e+00 1.000814e+00
2.500000e+00 1.749999e+00 1.000737e+00
2.500000e+00 1.999999e+00 1.000492e+00
2.500000e+00 2.250000e+00 1.000000e+00
2.750000e+00 7.500000e-01 1.000000e+00
2.750000e+00 1.000000e+00 1.000369e+00
2.750001e+00 1.250001e+00 1.000596e+00
2.750002e+00 1.500001e+00 1.000687e+00
2.750001e+00 1.749999e+00 1.000644e+00
2.750000e+00 1.999999e+00 1.000438e+00
2.750000e+00 2.250000e+00 1.000000e+00
3.000000e+00 7.500000e-01 1.000000e+00
2.999999e+00 1.000000e+00 1.000197e+00
2.999999e+00 1.250000e+00 1.000348e+00
3.000000e+00 1.500000e+00 1.000430e+00
3.000001e+00 1.750000e+00 1.000425e+00
3.000001e+00 2.000000e+00 1.000303e+00
3.000000e+00 2.250000e+00 1.000000e+00
3.250000e+00 7.500000e-01 1.000000e+00
3.250000e+00 1.000000e+00 1.000030e+00
3.249999e+00 1.250000e+00 1.000089e+00
3.249998e+00 1.499999e+00 1.000142e+00
3.249999e+00 1.749999e+00 1.000165e+00
3.250000e+00 2.000000e+00 1.000134e+00
3.250000e+00 2.250000e+00 1.000000e+00
3.500000e+00 7.500000e-01 1.000000e+00
3.500000e+00 1.000000e+00 9.999056e-01
3.500000e+00 1.250001e+00 9.998876e-01
3.500000e+00 1.500000e+00 9.999050e-01
3.499998e+00 1.749998e+00 9.999366e-01
3.499999e+00 1.999999e+00 9.999733e-01
3.500000e+00 2.250000e+00 1.000000e+00
3.750000e+00 7.500000e-01 1.000000e+00
3.750000e+00 1.000000e+00 9.998694e-01
3.750000e+00 1.250000e+00 9.998211e-01
3.750001e+00 1.500001e+00 9.998143e-01
3.750000e+00 1.750000e+00 9.998325e-01
3.749998e+00 1.999998e+00 9.998791e-01
3.750000e+00 2.250000e+00 1.000000e+00
4.000000e+00 7.500000e-01 1.000000e+00
4.000000e+00 1.000000e+00 1.000000e+00
4.000000e+00 1.250000e+00 1.000000e+00
4.000000e+00 1.500000e+00 1.000000e+00
4.000000e+00 1.750000e+00 1.000000e+00
4.000000e+00 2.000000e+00 1.000000e+00
4.000000e+00 2.250000e+00 1.000000e+00
POLYGONS 96 384
3 0 7 8
3 0 8 1
3 1 8 9
3 1 9 2
3 2 9 10
3 2 10 3
3 3 10 11
3 3 11 4
3 4 11 12
3 4 12 5
3 5 12 13
3 5 13 6
3 7 14 15
3 7 15 8
3 8 15 16
3 8 16 9
3 9 16 17
3 9 17 10
3 10 17 18
3 10 18 11
3 11 18 19
3 11 19 12
3 12 19 20
3 12 20 13
3 14 21 22
3 14 22 15
3 15 22 23
3 15 23 16
3 16 23 24
3 16 24 17
3 17 24 25
3 17 25 18
3 18 25 26
3 18 26 19
3 19 26 27
3 19 27 20
3 21 28 29
3 21 29 22
3 22 29 30
3 22 30 23
3 23 30 31
3 23 31 24
3 24 31 32
3 24 32 25
3 25 32 33
3 25 33 26
3 26 33 34
3 26 34 27
3 28 35 36
3 28 36 29
3 29 36 37
3 29 37 30
3 30 37 38
3 30 38 31
3 31 38 39
3 31 39 32
3 32 39 40
3 32 40 33
3 33 40 41
3 33 41 34
3 35 42 43
3 35 43 36
3 36 43 44
3 36 44 37
3 37 44 45
3 37 45 38
3 38 45 46
3 38 46 39
3 39 46 47
3 39 47 40
3 40 47 48
3 40 48 41
3 42 49 50
3 42 50 43
3 43 50 51
3 43 51 44
3 44 51 52
3 44 52 45
3 45 52 53
3 45 53 46
3 46 53 54
3 46 54 47
3 47 54 55
3 47 55 48
3 49 56 57
3 49 57 50
3 50 57 58
3 50 58 51
3 51 58 59
3 51 59 52
3 52 59 60
3 52 60 53
3 53 60 61
3 53 61 54
3 54 61 62
3 54 62 55
